<mxfile host="app.diagrams.net" agent="Mozilla/5.0 (Windows NT 10.0; Win64; x64) AppleWebKit/537.36 (KHTML, like Gecko) Chrome/135.0.0.0 Safari/537.36" version="26.2.14">
  <diagram id="R2lEEEUBdFMjLlhIrx00" name="Page-1">
    <mxGraphModel dx="129" dy="219" grid="1" gridSize="10" guides="1" tooltips="1" connect="1" arrows="1" fold="1" page="1" pageScale="1" pageWidth="850" pageHeight="1100" math="0" shadow="0" extFonts="Permanent Marker^https://fonts.googleapis.com/css?family=Permanent+Marker">
      <root>
        <mxCell id="0" />
        <mxCell id="1" parent="0" />
        <mxCell id="11LUYm5CSsk1cLdcRPxS-1" value="" style="shape=image;verticalLabelPosition=bottom;labelBackgroundColor=default;verticalAlign=top;aspect=fixed;imageAspect=0;image=data:image/png,iVBORw0KGgoAAAANSUhEUgAABdQAAALqCAYAAAA8ZtauAAAAAXNSR0IArs4c6QAAAARnQU1BAACxjwv8YQUAAAAJcEhZcwAAHYcAAB2HAY/l8WUAAP+lSURBVHhe7P0/bOtYmuD9P5ppoIPGBlVYVFYN/LCigfF1drGoCyrp6IeVjAvcTZxMLTxAAWTW0qDgjRzUYLyowIm4FUnBvLh4d4GCk3WwJjuaTAIGmEpe6Dq4JLqAraCCAnpeNDq5kd5zyMM/okiJkmVbvv5+0KctiTrkIUXfOufx0XNa/8//8//MBQAAAMBeev/+ffzz4OAg/gkAAADg8bT+f1///wmoAwAAAAAAAACwxl+ZnwAAAAAAAAAAYAUC6gAAAAAAAAAANNCaK+YxAAAAgD3z7t27+OeLFy/inwAAAAAeDzPUAQAAAAAAAABogIA6AAAAAAAAAAANEFAHAAAAAAAAAKABAuoAAAAAAAAAADRAQB0AAAAAAAAAgAYIqAMAAAAAAAAA0AABdQAAAAAAAAAAGiCgDgAAAAAAAABAA625Yh6LRJ64p1cyM083dXQ+kVFXP4rEcy/lVg7lzVlfuu14MwAAAIANvXv3Lv754sWL+Ge9SKLgRi4vVH9+OpWpedW2bTk6OZez4660d9wvjzxXTq/U6OHoXCbJQGDH7jquCMTtXKjxzZGcvB1Jn3EJAAAA7mgpoN6xBlnne1OOPzcBddVxbfVkLLYMwwkdVwAAAGBLjQLqDfvx9jCUyQ4755HXEWugjur4Mr+XgPpdxxWMSwAAALBbiylf2sdy7vviL5WhOLZ5j+3IsPI9vpxZ5j0AAAAAHkggbiGYbjvDxf760JG0Kz8dWNLxIvPskUWRBEGgSiRbteiu9QEAAIAtLM5QrxWJ17FETz4ReyjhpC+rJ3for5uGEqpHVre75r0AAAAA6qyboZ7NElfyb4yWFfrz4og/H8ku5pPfaYZ64EqrN1YPVrVnxbiiUX1mqAMAAGC37mlR0ra0VYe3SzAdAAAAuEeR3FyZuen2UM5qY9pt6Z875vFYrgPzcO8xrgAAAMB+uaeAOgAAAIC90n0jQ8cRR5VDIUkKAAAAsI09CKhHEkW6mKdL1m1flrxfFfMcAAAA+Di15eDIPJxeyc3KDnBX+qORjFTpd+9vvncU6bzmqmzSgd8DjCEAAADQxD0F1HWuwpa0Wh1ZWPNI5zmMX3fVOyLx3I56bIll6aJe77j5+1VH3O3o99ZsXxKp3ev9tcz7VdHH0nUCusUAAAD4OHXfpKlcpjJQfeaO68lG3d+FPno1nSs9fk/Hqw04R2o/nbgv3pNeTxXVH9fjAXehMek4QZU4/7k2ll76mi4LxyiPKzatvw5jCAAAAGzm0WaoX7uWDMYm32NqOlaDANVZDlRHWXXEy5uT7VUd/WSRpV5awbbFcWyx9WNdp2dJpz4SDwAAADxd3ZGEvpP0fZXpeCC9dDLKQwWFxz2xemOJe+OmL56Yqk2lvrjabutinsbS13RJZ9zXuWv9DGMIAAAAbO6RAupjGY9Vh9UPZT6fJyUcmk7xVHVezUr8he2hn24fy0WpYxvo4HzcD3bED9X7JxMZjSYy0fWGZq+D0xWz2wEAAICnq90dqb5vuBBYT4PC8SxxT38/9L6p/nuhLz5X7TFd8UJfvCsjtX2ii2prQvXh09d0GfVXLEB61/o5xhAAAADYxqPNUHd81WEt5m5s9+Vt2uOOO+OThdyO7W5fzk2feXobJg+0yJML821Pxx9JOR1ku//WdOSnMris+xIrAAAA8NS1TWA9mYySTRLXs8QHvTiVSce9r8C66b8v9MXb0p/4knThp3K1OsH7w2IMAQAAgC09UkDdkTdd87CKfSLHpU5tnejmSnVzNVtm1664brlcylW8XZm9f4CZOQAAAMDj0pNRRhP9LVBfHDuLrMtUp2bp1OdK31pt/70raYr36dXN3vTFGUMAAABgW482Q31XwluT81B1iadjnUpmuUyzt9xKYW47AAAA8HFrJylSksC6eW06lp6745D60UGjNCv7gjEEAAAAtvXkA+oZ25Gh74u/spyJZd4OAAAAPHlRJEEQxEU9rBcH1vOc5jK+3v0s9RrWoTnoPgamGUMAAABgQ08+oJ530EUOul3priztJzVzBgAAAFgpvJRerxeXy7XR6rYcn6QR9Zm83yCPST6ju8aKtChZXftwbwLTjCEAAACwrScfUG8fHJlHKwYFkWdyIXoPNhMHAAAAuHfWoeSTztf3dPPA+JEcNI4SB3JtFvCsVTv7PJL3M/Nwj9LCMIYAAADAtp5+ypfuG0nWOapfgT+4HCS5EFVnnq9rAgAA4KPR7su5WfRTxhfirZh1HgWu9NLAuPNGuuZhriq4HInX6cm6eLo6uFxU5WUPLmVgYvjOm+UjPhrGEAAAANjSR5BDvStnaTLIcU9aHVeCKJLIlMDtZAMH57zP1zUBAADwUemeDc0s9akMrJZ0VH/Y03nV0/5w4Inb6YiVRdNtGZ4VgtvZLPckuJzF1KNAvI6VBcTXmaq+eEfP5k774p4rnfSY9lCKh4xlQe1kkdS0/x7p9qr9rPjbQOJO9RlDAAAAYDsfxaKk7f5EwrRDPFUdassSy5TeOBkB2MNQRns0KQYAAADYiXZfJqEvTtodVv3hgc6rnvaHewMZT01UXC/CGU6kX4wQx7Pc8+Cy1WpJSxerFwfTdT8662vXcZw4uD0dD/K++GCsU5THx/QnVUHpxaB22n+3dHvTNDEr3a0+YwgAAABs46+/UczjFf4k//aXD/Kb376Ul7/rSOeVJZ+aLdVa8sefP8hvX/5OOp1XYqVvbv1Rfv7wW3n58lBev361tI8//dtf5MNv1PaaY7T++LN80G04fC2vXy1u/fTVV/LNl1/IJx9+lD//+nP5/HNTul/L6Pvv5Nse80oAAADw9Pzyyy/xz88++yz+WelTS15/9Y18qfrD/6HcH477xF35+h+/l+DbUyl1o2PW66/kyy8+kQ8//ll+ndXryuifv4/70XX99Oz1wzMZBb+XT37+YeHY3a9H8v347+UL8/4y3YevOu7X538nvXgQUTOuMHZRnzEEAAAANtGaK+YxAAAAgD3z7t27+OeLFy/inwAAAAAez0eR8gUAAAAAAAAAgPtGQB0AAAAAAAAAgAYIqAMAAAAAAAAA0EBrNpuRQx0AAAAAAAAAgDVYlBQAAADYYyxKCgAAAOwPUr4AAAAAAAAAANAAAXUAAAAAAAAAABogoA4AAAAAAAAAQAME1AEAAAAAAAAAaICAOgAAAAAAAAAADbTminkMAAAAYM+8e/cu/vnixYv4Z1nkuXJ5a56UHJ6NpN82T3BHkQTepVxzrQEAAJ41AuoAAADAHlsXUA/clvTG5kmJ489l1DVPcEeReB1LBlPztIRrDQAA8DyQ8gUAAAB48mwZ+qGE4WIhwLtLbem/Xb7G/tA22wEAAPAcrA6oR4F4bkc6rZa0dOmox24gUWS2rxAFnrj6/YW6rqfqmu0AAAAAdshqS7u9WD4ukRqbuOK6ngSPNagoXV9dLLMJAAAAz0N9QD1wpWP1ZDCeSvatxql6PO6JZXXEW9GJjbyOWL2BjPX7zWu67nig6rbcx+sAAwAAAHiiQrkdj2U8vpL35hUAAADgoVUH1CNPOr1xEgy3HfHDucznoYS+I8kXGqcysFwJ4sclgStWmljQHlbUHUvv1GOmOgAAAAAAAADgSakMqAeXAzOz3BF/MpJu/G3RtrS7I5n4TrxFB8avlyLqkXgXZkUkeyjhpF9ddzqQy8poPAAAAABUseTM98X3z+X4Y8tmAwAAgCejIqAeyLWJiYvzRpbWMeq+kTSkPntfnmceym06Of3kWJb6uSvrAgAAAEAdPUmnK11ViKcDAADgsVSnfLFt9T9bnEOW2AEAAAAAAAAAQKsIqHdlNJnIRJVRv2LuR/ReZubhvYoi9b+kAAAAALgvus9tHlbJ+uXmeVNZPVXMS5vb4ripbY5dV8e8DgAAAFTPUF8hz69uy8lS8sKuvMnSpF8uL1oaXEuSTaaqbiLyXOm0WtKyLLFMaannHdeTgD4sAAAAsLnAjfvUrY5ngsWRBGm/u6X73G6p7662u51Sv1y/tyPumk55pI5V7s9b8bFd8aqqNm5bIG78WmdxP2n9lnlf5InbUc+bHDul6iy02dQJAnXMwr5c1oECAAB49poF1KNAdSaTjmkvW3P0rVRNYO+OQhna+tFYeroTamZzxJ1iU7mubuC2xBqMs4C94zhx6hltOh5Ib6mjDwAAAGAzkXgdS3pZv7vMbB9Ps3552idXvXIZ9yzp1EWWA1cs1edP96vr5VXHMrBKwfAl69q2hg6uWwMZT9Vx1VgiHk/o11cd29TJxyCqrn6o6vR6PTWqSfajXwcAAAAaBdSjmwvVmdQdU/1MdTL9UCZVEfFYW/qTUHzd4dSdUDObI+kU2zKsqxt5cpEF60OZzycyGo3i1DPzuW8WMx3LxeoeOAAAAIAVblxLBrpfbzvih6GEcRlJN9ksQbrd9Pt1vzzpk6s+fjJzRnXze9JZ6pcH4qazb5yhhPN5XG8ymcs8TPvzUxlc1k+RWde21XQAXB3f1sdWx1VjiXg8odqdNLvq2JF4+SAkrjcaqbpZHeXoTbwf/fqoWUMAAADwEWs2Q/3gxMwW10/MrJTawLbqlLqn8YyWWDwrxczy0J3Y3mn1VyXDW7VVc+R8KeDelTPVCfd9X86PzUsAAAAANjMdyEDHjx1fwslIuu22tOOSbF6c5PJWRt1iv7wt3f5E/LoUj8F7mcV9f0eGZ3317oK26s+nEerZezViqLCubY044k9Kx1bPjk/qjh3KrRm2OOfFem3pn5sTHV/zLVkAAABkGgXU292+mS0+T2aeK9NBVQ7B5CuagziYrmeVzGVuFjidzOcSxp1oHZBvLde1Dk3QfSwXamO5k91WnfBuV5XNetQAAAAAivRM7FG3FHRORDdXKya5JLrpokmq335d7NOrMUMyI320mN5Rp4/0XDm9MpHrVVa0rQnHHzWczV5my6FlHgIAAAArbLwoaXd0br6uqbrQF+nCQUZwab4eajqzpZ5wu/82++rkUt12X96ajforpMlCQB1xPb0YaeUcFgAAAAAbsWX4tjyDOxem07XtQ6mNL3ffZOOB2fuKfnoUiKfXT1J9+XixUKuXpH9cG09f3bb1HHmzcTTdksN4CDKVq5vFc4nez5IHq64FAAAAnp3lgHq8AKku0dIs8URXskkp01sJzUMt63TWdmYLX7cs1dXa/YmEoS/DdMEf1eseD/RipFa8mn/HW565DgAAAKAh+0SOm0Ssjw62CmwHbicOoA/iAHoSQdcpYJzhUPxhOoio0bRtO5WndtHfwO24XjwW8tR5WGamkH1yfIcgPwAAAD42SwH1ZAHSniqXSwHvdbIZLY3MpGpCi07t0h/pRY/04kWh+P5Qkvj6VHVye2JVJmAHAAAAsDN1ec616L3qySeODvJQc+R1snWUbJ0HXad/jBcmHcmo35fuQbxp7+jzNNN5ZDoexGOhJIVlch6TmtQ3AAAAeJ5WpHypDnjrLmc2Eb309Ucr+b6kUle3GHQ/kkL/W6J0ZnwxvUu7LV2dvz3O3W5eY1EgAAAA4F5k/fnplZQyoOTCW5NnvZh3PJKbNEe6DkLrPOhPIQ4duGL1xjKN/wAQij8ciuPoGfV+vB6UPg8AAACgaCmg3j4+MTM0pjK4rAhdF/Kkl78K2j44Mo9q6kaeXOiV+7VyLsJ0ZvzpTeVsmHzxIwAAAAD3od1P10uq6c9LIG7PdOgXUrSEkqdfr8g4rsYBnbTeHslSVs7eJ5N5+n0ZjfSM+u7SelAAAACAtjxDvd0Xk0ZQZNyTVidZFFTPINe5BPOOsC3Ds9KMje5ZtuiorttxA1VP11UlUJ1oa2Bms4g454sLDmWB/OlATuN68cuKqZse13mz5cr9AAAAAFbrylnaoV8YCyR9crfTk6RXXl5ANF3cU3fnL8VL66ii86oXxwH7pDgGsfQCqnrdpk5aXHFdVfQ6TnWz9QEAAPDsVKZ86Y5C8bOFQZNFQS29uNB4ajrCqgMdTmQ5nWBb+hPf5DxXVVUn3IrrqtLLO9H2MJSlb0+2+/LWdN6TerpDq0uhrj2UkK9dAgAAAPem3Z9ImAbVs7FA0idPUotXjQXUOODtMAlOy1gGaR1VdF71qdqiU6nEprcbr9V0bwpjkIRq6zQtYxmPVdHrOFkd8QiqAwAAQKnJod6W7kh1pOMFQW2xC0XnEwznVcH0VFdGk7Cyru0Mk1yENZV1530e+jJ0SvVsR4a+2udkcVY7AAAAgAaswyQ3+EmzlUHr+uUrxwLtvkzq6oQTGY3eqG2qDY7I+6AQnW7cNksO4/onsvDOtL5TSilZdHBSeYzAbYk1mMYTfvQCqvO5GnOEafHFj8c0+p11KXAAAADw3LRUx3FuHgMAAADYM+/evYt/vnjxIv5ZpoPCvbEtQ/+tHJciyu0nsTLoI9F53eNUNI7481F9WsnAlZZOP6m/Lfv22LyYC29OpTdQe/Hny9/CBQAAwEenZoY6AAAAgKdjKoNenmYlLS6Tquu1D+QofjCW6+KM+SK9jtSFWcvp6N/JzenyNdbBdAAAADwfzFAHAAAA9ti6GeqR58rlrXlScng2WpGqEdns85hOUWMeajqPunkotiP+5EzEu5RrrjUAAMCzRkAdAAAA2GPrAuq4oyiS4OZSrq9mMjMvpY6OjuTwzZn0u0TKAQAAkGjNZjMC6gAAAAAAAAAArMEMdQAAAGCPMUMdAAAA2B8sSgoAAAAAAAAAQAME1AEAAAAAAAAAaICAOgAAAAAAAAAADRBQBwAAAAAAAACgAQLqAAAAAAAAAAA00Jor5jEAAACAPfPu3bv454sXL+KfZZHnyuWteVJyeDaSfts8AbClSALvUq75PQMAAAoBdQAAAGCPrQuoB25LemPzpMTx5zLqmicAthSJ17FkMDVPS/g9AwDgeSHlCwAAAPDk2TL0QwnDxUKQD9iFtvTfLv9++UPbbAcAAM9J84B64Eqr5Upgnu7EpvuMAvHcjnRaLVVPlY567AYSRWY7AAAA8FxZbWm3F8vzE4irxwgdVzzGCB+RSI0DXXFdT4LH+lxLv1u6WGYTAAB4XhoG1FUH5qLme6Rb23CfkScdqyeD8VSyb9pN1eNxTyyrQ4cZAAAAQDJGmM7ME3wcQrkdj2U8vpL35hUAAIDH0iCgHkng1ueL286m+wzEtQYmkG6LY77Omn/FbioDa8ez5wEAAAAAAAAAKKgJqJuvSsapVazaRY42s/0+I+9C0rc7/kRG3eQrdt3+RMIsqD6WC6apAwAAAMBHxpIz3xffP5fj55jJCAAA7JWagLrqsJyfy3ncafFl6OxisZVt9xnJzZWZym4P5ay0sFL7+ESyeeq3oXkEAAAAAPg4tKXd7UpXFeLpAADgsdUE1PMOiy7Hh+blO9l2n6Hcpqlhjg6WO1DtAzkyDwEAAAAAAAAAuC8NFyVtLoqiuOyUbav/2eIcVqyjHr2XdMkhu2o7AAAAgGWm375pzz3t72/V40/rblP5LsetcKfzWCfdtyqb2qbOIn1c87DC1ued1tumbtwmXczTJeu2byjelyrmaSN1dczrAAAAqd0G1ANXLMuKi7uzFUK7MppMZKLKqL/8Bb/o5sosVqonsPMFQAAAAKAs8jrS0msZqU56pPrs8bpGpt9u6ccdV7xgVdAwUl39ZB9pf79ZPS2pu3BMSz1uddSYobru3dtb5y7nsV7kldqqij5Wx/Vk1e6zczTtis9dX5+6NaLU++P3dDwTAFbnlR67pY/ryuJwbPvzXrr+xbpVVdO2tXQbIvHi46Z1S/Uivc6Wfm/N9ox6X7zPzuK2hWMpkZfsr0k7U6pO1f0VBKZt5vXdjW8BAMBTt/MZ6g9KdX5OB2k43ZE3pfzqAAAAAArGPbF6YzMhRX8LNH4gMh3LoFcXNIzE61jSG6frGtniOKqufmzqdWojlnnd/JjZQVVzVN1Vkcqt2lvnLuexXuC2xBrkbXUcJzvX6XggvaUgt6bbpOpl51ikrs/Aiv+osJo5r+zYZXc478BdaJs+n4XPwCoFuEuuXUsG6XFTaT0dsLZ6Ut6cbK+6Vmvo4Lo1UPtTbVTXPr7++vVV7TR1kiYsXpdeT7VNjTH1fvTrAAAAmXkD4dCe67eKOHPfvFYnDMO4rLPJPqv5cyeunxRnu50AAAAAe202m8Wlju/o/rA9H67ogud9b/Nev/Dm0J8P7XTbct882b/ZVjpGvt/q4+d1bdVfL74hnPuFNtmlytu3Nx0jLLfnLuexVjic23H95XPJ27S8LW+T3uarq5JavD5LYx3fSbbZw/kw3YetzysZixWHY9ufd2G85QwLbVPUZ5BvKzUubVtcSp974Tql24ufbejXXceaz3XhWKqo67HQTvUsu1eWLmJh20K9VXUWpdePsSgAAM/LzgPqTd1tn4VOjirLnVYAAADg47DrgHpl8K8uIFx4vTpouCL4uDLInFgI9prXtK3bWxd4vct5NJEFdqvHNmHoz31flWKku9Cm6mPWBXyVciBZ1a+8wnc5bx3ctm1VnMp7K/uMVrSt6pj5Z1t9z2b3xELlJgH1mmtf185snxXtXPN5ptJ9V19bAADwsXqCKV+SryzmmV58mVTkVgcAAABQYg/lrCpNYvtYTuzk4fTqRvW4E/l6RbbMrl1x3XK5lKt4uzJ7n9XT8rqOnNf017tvHPNoLNdVOT42bG+du5xHI9ZhkipEnceFqzOHL2q3u9LtqtLOr0OxTcPqk5T+JJQwVOVtXz2roa5ROOpWbr/TeXf78TpWk8lIFj6+KIjztZ9eJXuutyYlp30ix7UntTnHH8l2GUBtObTMQwAAgAaeXEA90Hn40r6b6TwCAAAAaODooCYw25aDI/OwILxNO95TmY7HMq4o0+wttxKah1pW1z6U2nhl942kIfXZ+4ow9obtrXOX82ik3Ze3wySkPtV53+OFLfWionox0urwfN6mIzmoDSy3pd3WxTxdYstwRbB9J+cdBeLpBU/V+cQLgFq9JF97Wm8vbLOeliWH8Uc2laubxc8oej9LHqy6dwEAwLP1pALqemX63tg80cH0yYqZGgAAAAAas5LoYnVg1XZk6Pviryxn1cHH2qD43axsb527nMca7f5EwtCXYbqA5VQvKqoXI7Wk1epIx1ueuR67S9C26SzvLc9bj790AH0QB9CTCLqt9uUMh+IP0z+FPFVt6Z8n5zAd6MVxPQmCQDx1zpaZwWWfHDPeBAAAS55MQD3ydDA9nQbhiE8wHQAAANjMinQmVTPK86C1yIFOWbKytKv756tSqETvxcwFlqOqadobtrfOTs6jAZ3apT+a6HWqZB6G4vtDSeLrU5kOemK5eV6bZn8QiOIgry6113CFu5x3cfxlO76EYbz+VpwCZtTvS/cg3vSk6WtqrpBMxwPp9XoyKJwzqUUBAECVpxFQD9xslkAcTJ9vmx8PAAAAeMZqg7eRpFkuijPK21lelZlUZWSJRZ7Jx+1JMQ16Hsy9klJGjVx4q2O9Sk0e6w3bW+cu59FEpPOK68B3Mb1Luy3dbl9Gk7n4War462zfjdoUXMZB3l7vov4arrD9eUdyk+ZI14FlnaP9Y4st6zFmbyzT+I8FofjDoTiOnn3vix/O43MGAACo8gQC6oG4eZ4XGYYE0wEAAIDtjKVXmCWdCS6zdYqcYjLqLMf5VAaX1WHm4HKQ5OOeycJM8Xb/fE3dQj+/NnXJhu2tc4fzaOTmIgl8n1YvkJovvlrQpE3X6ThoVZ71FbY+71DyLwBUXI3Ik042Rnuasjzps/fJHz/6fRmN9Oz7rnQ/tj8eAACAndptQD1IFqvRparfu43Iu1DdaMMWub1MV6SvKl5lBxYAAACAMe5JR3XW035zFBSDo+XFHbtyZhbb1PVaHTeehR2ZUlzjyDkvp2Qs100W6IzrqmO6nZ7p569eWHOz9ta5y3ms1z4+SVKHTAdyqtuaDUqSc83a67wpTA7qyiidul46R70Dncs7rWYPzwr1NrHteacLdupTuhSvVKdjDcTE25+s4mcWLyKr89ybsWxHXad4fKnz3jPABAAAZfMGwqE9129V3ay5b16r5DvmfTJ3Vr6x+T7z9zUpa9oHAAAAPDGz2SwudXxH94Pt+TA0L1TI+tSOM3eW+tBpqd/Huj65veLgq+tWH3P79vrm/Wv2W1NWncc66/Yt9nBetfe19aoGVum4q2afZVuddzic2xXvTYo9d9RnkzwujcGyMWH12CxrS03bk/tZlYXzrvlc1xxLW3W8tdc+Lut/L9aNfQEAwMflr79RVCdgpT/921/kw29+Ky9fHsrr16/kU/P6ktYf5ecP+n0v5fD1a3lV+8bm+8zf97JBWdM+AAAA4In55Zdf4p+fffZZ/LMs+t//IP/zh8/lP/3+q9r+95/+5Z/kuz/8JPLyH+Vfv/9b+eTDj/KHH9TzmC22M5J//v5b6dVMzf701VfyzZdfxPX+/OvP5fPPTel+LaPvv5Nv6yoqdXW7X4/k+0Ads6LN27e3JX/8+YP89uXvpNN5JVZp33c5j3Vq9/15V74efS/ffdurnPmu632p6n344Uf54af0HNVZ2k5cL/j7L8wrBem463cd6byy1o5/tjrvT1/JV3Wf23ffyunpr+STn3+jrrXIX/3qb+RVerGzMWH12Cwb39W0vfXHn+WD2unLw9fyOruhaz7XNcfS6o4XuC159d9+EnsYyv8J/rt8882X6nP4vfz+97roRVr/o/zmxz/En8kfPnwh37xeTn2T3qcv//YbqdgMAAA+Ui0dVTePAQAAAOyZd+/exT9fvHgR/yzTgcHe2Jah/1aOS0G9tllJMvI6ySL/ji/zJ7DY4lNrL54YnQM+TlvjiD9fsUZX4EpL58SxhxK+PTYv5sKbU+mp+9Tx58JtCgDA8/EEFiUFAAAAsNpUBj1LLGux7GpdI+Cj0j6Qo/jBWK6DmiTpUSDehUkwf/Tv5OZ0+fdLB9MBAMDzwwx1AAAAYI+tm6Eeea5c3ponJYdnI+m3maEOLElnn8dssc0irLHpNF901XbEn5yJeJdyveb3DAAAPA8E1AEAAIA9ti6g3oQOup9ezUSOzmXyJALqT6u9eKKiSIKbS7lW95q62xYcHR3J4Zsz6XeJlAMAgEWt2WxGQB0AAAAAAAAAgDWYoQ4AAADssV3MUAcAAACwGyxKCgAAAAAAAABAAwTUAQAAAAAAAABogIA6AAAAAAAAAAANEFAHAAAAAAAAAKABAuoAAAAAAAAAADTQmivmMQAAAIA98+7du/jnixcv4p9lkefK5a15UnJ4NpJ+2zzBHUUSeJdyzbUGAAB41gioAwAAAHtsXUA9cFvSG5snJY4/l1HXPMEdReJ1LBlMzdMSrjUAAMDzQMoXAAAA4MmzZeiHEoaLhQDvLrWl/3b5GvtD22wHAADAc9A8oB640mq5EpinO3HHferZOK2WLh3xIvMiAAAA8BxZbWm3F8vHJRLPdcV1PQkeq+9fur66WGYTAAAAnoeGAXXVeb2o+R7p1u64z8Ct/WorAAAAgI9NKLfjsYzHV/LevAIAAAA8tAYB9UgCtz5X4Hbuus/7CPADAAAAAAAAAFCvJqAeiNvpSCdOp2LtaCb47vYZeac7DvADAAAA2G+WnPm++P65HH9s2WwAAADwZNQE1FVn9fxczuMOqy9DZxcL7exon5EnpyaabtssAAQAAAA8D21pd7vSVYV4OgAAAB5LTUA976zqcnxoXr6T3ewzuBxIHE63h/L2/Ch+DQAAAAAAAACA+9ZwUdLmoiiKy73IFiK1Zfi2z8wUAAAA4M50/908rGL69xt38bN6qpiXNrfFcVPbHLuujnkdAAAA2G1APXDFsqy4uIF5bWcCcdPE68659ImmAwAAAM2ofnpLr2XU8UywOJLAc7P1jSzLVb3tIrXdNesfmf69Zen3dlQ/f3VgOVLHWqynSnxsV7yqqo3bpsYD8Wudxf2k9VvmfZEnbkc9b3LslKqz0GZTJwj0OlD567sf4wAAAOCp2fkM9fsSeReShNMd8Ufd+BEAAACATUXidSzpDcZJKsUlZvt4arbbhbWLpjLuWdKpiyzrCTa9fL+6Xl51LAOrFAxfsq5ta+jgujWQ8VQd13HEUSU+/KpjmzrpuTqOqqsfqjq9Xk+NQZL96NcBAACA3QbUuyMJwzAuO415FxYidfyREE4HAAAAtnPjWhJ3rW1HfNN3D8O8jx2k23Vw2Q9lPp/IZDJRP0Pxh0lQeTruSWcpOl38RulQwvk8rjeZzGUe+uLEG6YyuKyf5r2ubavpALg6vq2PrY47GslIlYlqd9LsqmNH4l2YNpt6o5Gqm9VRjt7E+9GvM68HAAAAO5+h3m6347I7qpN7mi9EekYnFgAAANjOdCADHT92fAknI+mavnvWfY88yePLb2XULfbr29LtT8RPIuNqV5eLaWKC9zKz9Yx0R4ZnpfWO2l05SyPUs/eqh19hXdsaccSflNdaasvxSd2xQ7lN5u2Ic16s15b+uTnR8fXieQIAAOBZ2/uUL5F3ms2QYSFSAAAA4I70TOxRt7JfHd1cmdQnjpzXLFrUfWMCzTKW62Kkuds3M9JHi+sdRUGcE/30ykSuV1nRtia2/zarLYeWeQgAAACssOcB9UAuTaoXsU/kIFSd8aBQ3s+SbcrtjXmN1fcBAACAGqsnqYTpdG37UGrjy903Jn2LnvBd0feOAvH0oqKdTrJYqNVLcqKvjaffdQKNI282jqZbcmjSwVzdLJ5LlI41Vl0LAAAAPDtPZlFS/RVQvSjQQkmD7aoDPB6Y1y5D8xoAAACABfaJHDeJWB8dbBXYDtxOHEAfxAH0pK+uU8A4w6H4wzQMX6Np23YqT+0yHejFVr14ko6nzsMyYw375PgOQX4AAAB8bPY8oG7JoVmdv7LY6UpBqqObvsZ3NQEAAIC7qctzrkXvJf2e6NFBHmqOvI70xiYIrfOgh3OZxwuTjmTU70v3IN60d/R5pqOK6TiZxDMonMekJvUNAAAAnqc9D6i3pW9W568s50fmfbacnJnX6PACAAAAW7GS/Cci0yspZUDJhbcmz3ox73gkN2mOdB2E1nnQn0K3PHDF6o1lGv8BIBR/OEwm6Qx98cN5fB4AAABA0dNJ+QIAAADgXrX75yY/+lQGl8UVR1OBuL1x8nAhRUsoefr1im+MRp500np7JMuTPnuvTr4t3X7fTNLpSpd5OgAAAKiw24B6kCw+pItb1f8GAAAAsMe6cjY0s9THPWl1vHjR/0iXwBO305MkLF5eQDRd3FPnIr8UL62jis6r3rEGZlb7fmkfnyTpXqYDsfQCqq1kLJMUV1xXFS9Q5xG/HQAAANj9DHW9+FC6ABEAAACAp6Xdn0iYBtWnA+lZlli69AaSpBa3ZRhOZDHTYlv6b4dJcFrGMkjrqKLzqk/VFp1KJTa9lTB59PjafXmbnmssGcskZSzjsSqDnjqPjngE1QEAAKA0C6gfnJiFQA9l5ZKf1qF5n1PIp1ij6T5XyY53Inu6xhEAAADw+NJ+80mzXrMOqs9DX4aOLbadF51bPJyXg+lGuy+TujrhREajN2qb7ruLvA8K0enGbbPksKrvn40JVowr0rFH6RiB2xJrMBV7GMYLqM7nYZxLPSm++P5Q1OkodSlwAAAA8Ny0VMdxbh4DAAAA2DPv3r2Lf7548SL+WaaDwr2xLUP/rRyXIsrtJ7Ey6CPRed3jVDSO+POR1C4/GrjS0vnf7aGEb4/Ni7nw5lR6A7UXfy6sYQoAAPDxY1FSAAAA4MmbyqCXp1lJC+sardA+kKP4wViuizPmi6JAvAuzmOrRv5Ob0+VrrIPpAAAAeD6YoQ4AAADssXUz1CPPlctb86Tk8GxUnZ4FiXT2eUynqDEPNZ1H3TwU2xF/cibiXco11xoAAOBZI6AOAAAA7LF1AXXcURRJcHMp11czmZmXUkdHR3L45kz6XSLlAAAASLRmsxkBdQAAAAAAAAAA1mCGOgAAALDHmKEOAAAA7A8WJQUAAAAAAAAAoAEC6gAAAAAAAAAANEBAHQAAAAAAAACABgioAwAAAAAAAADQAAF1AAAAAAAAAAAaaM0V8xgAAADAnnn37l3888WLF/HPsshz5fLWPCk5PBtJv22eANgTkQTepVzzewsAwJNEQB0AAADYY+sC6oHbkt7YPClx/LmMuuYJgD0RidexZDA1T0v4vQUAYL+R8gUAAAB48mwZ+qGE4WIhKAfso7b03y7/vvpD22wHAAD7rHlAPXCl1XIlME+3FgXiuR3ptFpqf6p01GM3kCgy25vaVXsAAACAj4HVlnZ7sVSJVD+6o/rgcV+8pfri6rHr6c54pPrprriuJ8GmffNnRqfZ0ddNj2PQVCCuvmYdV+Lb7aGY+10fN/+09uBeL/2u6mKZTQAAYL81DKirDsdFzfdIN6E7M1ZPBuOpZN9um6rH455YVmeDjtWO2gMAAAA8I5HXEas3Vl3wtDeu+uLq8fjqRvWwQ7kdj2U8vpL3ZivqzOLrVpOxA3X0NZvOzJOHE39WCx8W9zoAANheg4B6JIFbn9+tsciTju6868e2I344l/k8lNB3JPli21QGVpMZ5ztqDwAAAPCsBHJpOtG240uY9sdDX5yjg/h1AAAAAKvVBNTN1/Hir4FatYscbSK4HJgZHI74k5F042+gtqXdHcnEd+ItImO5royo7749AAAAwLMSXKvetubI+airM04oOtVEV0b6uVhy5vvi++dyXJ0tBvhIcK8DAIDt1QTUVQfj/FzO406GL0PnroujBHKdBsGdN7K0NlL3jerWJ2bvq/K+7Lo9AAAAABbpyS5d6apCjBEfN+51AACwvZqAet7B0OX40Lx8F7at/meLc7jNUiv30B4AAAAAAAAAADbQcFHS5qIoisuirowmE5moMupXzAGI3svDL00DAAAA4G503988rJCODVa85WGk7bhTQ+5avyRr0+6vzoNf910fL93fpjtUFYIgUGXH5562xzxtpK6OeR0AADxduw2oB65YlhUXd/3qopk8v7otJySxAwAAAHYkEDdeh0iVbCGisfTS13TpeCbol763I14x3qf6+IvviyTw3Gx9I8tyVc0itd3txHXSsYEV13fFCyoCien+W+X9aIX2Z8cviDzTjlKbY0k74u1pO6zkvW5VO7SNz7VC1qaWdCoGRVG6v6xNlnmvJ3XNambD664EbtLO6mtfvT3ykmO01LlF6notnMua4622xeeVivSaW0m9Xq+nStIWff1rznz1vZ6er/os0/0unN+q5qSff6mODvQX97XJeBkAAOyXnc9Qb0x1eoIg6aCkfXt7+FaqJrADAAAA2JJJvbiwClH6mi5H5rVGIvE6lvQGYzMhpsxsH5utav+OY449HcugZ0mnHI20Dk3bZrK0nFK2kKoyvZKb0vbo5ipph31SWlwyb0c6cUefa2IqY92OtRHNdedaQQdTrWSykO34Mhktrh6lA9RWtj99bZysXdPxQHpNAvaVtrjuSnfkm7WsxtIrX4/AzcZpjj9aXgdr3BNLvSG/vvGD7HibBYzv8nkF4lo9SU9dXXhxsmuatHErOriuPsvxVLVFfU7xZ6Vf1+dnVf0BRzF18s83/wx0oH+srrbej34dAAA8YfMGwqE9129VXam5b16rE4ZhXNbJ96mLPXf89XVSm7QHAAAAeMpms1lc6vhO0p8erutO+86aPrQ/d0zffGFfaT17OB/Gx9KP1T5Mv7/Y9U/aoovebl408j58ua3hfGgn9ezSSSyOGUSNGcwGIzteaUPejvI4I5z7hX2Wj9f0XLN2FY8bDud2ut9yQ7Xi9qUPK732VdvW2+66G4V25c3O21O+toufidpn8YChn32Wy/dZzf2lbP15KcW6i5vz+yopxfasudfTou6DxSMW9rn0GRe2LdRbVWdRem3XvA0AADyync9Qb7fbcVnr4CT5K3/yJ/tk1sHK784BAAAAeDTTgQz0ZF/Hl3Aykq7p92dd/8iTi+KM5tKQoN1/K0PT9x9cFmcbt+X4JN4g06sbyUcEkdxc6bm+tgyHTvzK+LpYL5Dr9HhvCvOnC+3Q34AdLTSkLd3+RPxkd+qULqtnhK8717I1M9Nj4a2ZuezI+dLXcrtyFvri+76cH5uXmtr6uhvtvrxN3qDGZMkM+cDVs6kVeyhh1bkYjj+RfvGA7a703w6TWdlqDxdNxnd3+bxKdRcva1v6k3QG/jYc8Sd9tZei/F6V2fvCvaqFcmtmyTvnxXqqHeemFePr6vsNAAA8KY+W8qXd7ctoNJLJZK46SKYDPSCXHAAAALC3TIB1MciYyNKviC2za1dct1wu5SrerpSCke3jE5Ma41bC+BUlupEknn4ix/03SWC0GJDM0sE4shBPz9pRFbhOdN+kYdaxLMToi1ac64JCMD0+Zl0AOkttM5YLNegph5rb7a50u6rURu2r3eW6p/Kg+1h6nY5J9WLL8G05oFygrs9Z1am2jyWNOS/+gaTanT6v7I8UdWtxdeXM/LFgU5Vpbhqx5dAyDwEAwEfp8XKoF3RH50kHWRlfVCw2BAAAAOCRrQ6whun0XJnKdDyWcUWZZm8pBM61LAibB0zTQKt9cqyOaclhvD3Psx69nyUPnDcLgc+sHfahqlWjawL0ymwpcbu2Jpicml0UgunailnZhZngcW7veLHKjrieXox0+xHQna57pp3PLDdvXru+1dFBzfVpy8EGefnv8nll94AcyUFNW9ubNCaz+EeaZtJ7dCpXpWT/WTtXnSMAAHgyHiagHi9AqktUEyzvSjbpoLaTBwAAAODRLC38WcN2ZOgn6Uvqy1kpsJgHYdO0Lmmg9SiOlKapNtJgZZoORsfTayKftQHfBpqe6zRZRFOneQnDJCA9HZxWL1iptPsT9T5fhumilKr+eKAXI7Wk1epIx1ueud7YVte9oDCzXEuu+3asJLK82djuLp/XXshTu+hvXndcLx4De25HrIH5I0X8xyEAAPDUPUhAPbq5iFc17/UuCZYDAAAAH6E8iCpyoFOXrCztpcBiltYjTkuS5kfPZwqnaWHiNCJpOhj1Sm16jZr0JrHovWRzm+8QONbSnOntbAb6VAan9d+61ald+qOJzOdzmYeh+P5Qkvj6VKaDnlgb5sC863VPBa4lJu4bS/Op11pxfRvNOi+7p88rn8V+/3T7zach0/EgHgMPxsm1iO+TlVP+AQDAU/HAKV/yr2guiiTr5/A1OAAAAODJyVNr1PX5lcgzeb295WBtmtZjeiU3nsmPXkznks6g1ttvTO7sipnkeYBZva8+4pvUXxWQb6K0AGm7b1JZTgdyWpqmHqXf2i2md2m3pavXlorXlTKvbbhw5Z2vuxa4Jm+6PqUwz6e+KrhfO/u8MLZrMOv8Lp9Xfu71ufDzlDj3TF1DS13EafxthVD84VAcxxFn6IsfzqsXqgUAAE/SgwTUs0WGVDeocmX54DKfDfHkv+oHAAAAPENZnuuaPr8SXA6SvN4zqZhEk6aBVPUHSXTXXoh2p2lhCtsrUmhkQe3adgTiptHjpqldGuvKyETGp4PLxeB1+q3d0+qFOvOFNzd05+ueXw97GMqoW8inPu5Jpy5/TV3AvTC2q03HU3Cnz6t7ZoL/qjVVa3FFnlyYqvctmwk/e69Oqi3dfl9Go5GM+l1RlxQAAHxEdhtQD1zpdDpxWehbtfti0snFnbJWJ1l4R8/S0DnlOmkHSXXbhpVLxQMAAADYb105y6Kbus/vmj5/UgLV70+7/c559YKfi0FlW05K0e512xPldqRjD1UCT9xOL5n9rsceTRYe3VR3ZGabLwacs0lGeva6el01x0jalY2JSousrneX6x6Jl14Peyhv05QkxQVUV+SEjwPu+lzM04XzkKYLe97l88rzluvrai3UVWPThQVj71fx840XnNU58c3YuKM+k/gbAjpHft21BAAAT8e8gXBoz/VbVado7pvXKvmOeZ/MnaU3hmpzup+qYs+HoXnrGo3bAwAAADxxs9ksLnV8p2FfOuur1/Wh/blT1S9P69lD1aNfL++rVxd7VUPD4dxO31t5vLSNddtzq9tRc70anmu27+VBj5G3s/iWddem6TWuss11z+tUX4/k3lKl0K783J38s1gqVfurub+M1e2v+byMVXUd1c7kcfG+X3OvrxhnZseq+KxWn0Na6s8lrV97WwEAgL3w198o6j/aK/3p3/4iH37zW3n58lBev34ln5rXl7T+KD9/0O97KYevX8urhTd+Ktbrr+TLLz6RDz/+WX79+efyuSndr0fyffCt9Gp3vKhxewAAAIAn7pdffol/fvbZZ/HPsuh//4P8zx8+l//0+69K/e+SrK9e14duyR9//iC/ffk76XReiZW+Ia33u450Xllr+96fvvpKvvnyC/nkw4/y51/nff7Pu1/L6Pvv5Nveijnhn/57+cvPPyT1Tv6rnC2dUEt+pbb/GG//z2p7fQL0unasHHs0PNdsPHL4Wl5XXnRL/kaPe9R75K9+JX9j9lV7bT7vytej7+W7b3tbz5jf/LpH8n//X5H6vF/Kf/nH/yX9L8zLBdZrtb+ffyO//ewX+X9/9TfySt0Uf/qXf5Lv/vCTyMt/lH/9/m/j4/3hB/U8ZovtjOSfv1fXd+lEau4vY6vPy9B1v1R1/8NC3a6M/vlf5e87Vff9mnt9xTgz++xL90jgtuTVf/tJdNqc/xP8d/nmmy9Vm34vv/+9LnpB2P8ov/nxD/LDTz/JHz58Id+8Xr5302v78m+/kYrNAABgT7R0VN08BgAAALBn3r17F/988eJF/LNMB/J6Y1uG/ls5LgXh2u1tw7NAtcjriKWTpDu+zFloMxF5Jr2MI/58VJ+yJ3ClpVPi2EMJ3x6bF3Phzan01LV1/LlwaQEA2F8PsigpAAAAgPs0lUHPEstaLFVrRgLYsfaBxOvlyliug5ok6Xr9sHSF1KN/Jzeny7+vOpgOAAD2HzPUAQAAgD22boZ65LlyeWuelByejSRdZxLYBWao10hnn8dssc06q7HpNF8c1XbEn5yJeJdyze8tAABPEgF1AAAAYI+tC6gDD0n/Aef0aiZydC4TAuqLokiCm0u5VtdHXaEFR0dHcvjmTPpdIuUAADx1rdlsRkAdAAAAAAAAAIA1mKEOAAAA7DFmqAMAAAD7g0VJAQAAAAAAAABogIA6AAAAAAAAAAANEFAHAAAAAAAAAKABAuoAAAAAAAAAADRAQB0AAAAAAAAAgAZac8U8BgAAALBn3r17F/988eJF/LMs8ly5vDVPSg7PRtJvmycAHkkkgXcp1/yeAgDwUSCgDgAAAOyxdQH1wG1Jb2yelDj+XEZd8wTAI4nE61gymJqnJfyeAgDwtJDyBQAAAHjybBn6oYThYiFIB+yDtvTfLv9++kPbbAcAAE9J84B64Eqr5Upgnu6KnlHTaunSES8yLzZxT+0BAAAAniSrLe32YsE6gbidjnQ6bmksUvc6HptOcdTRn427yUgwEs91xXU9CR7r8yz9bupimU0AAOBpaRhQVx2Qi5rvkd5F4NZ+PXW1e2oPAAAAgOdlOlX/m5knBXWv45HN1OeiPhvzrJlQbsdjGY+v5L15BQAAYFsNAuqRBG59vrftbRsUv6/2AAAAAAAAAABQryagbr7iGKdisbacRb5a5J1uEBS///YAAAAAAD5Glpz5vvj+uRyTCQkAANxRTUBddTjOz+U87nT4MnR2vFhK5MmpiabbdpN933N7AAAAAAAfqba0u13pqkI8HQAA3FVNQD3vcOhyfGhe3pHgcpDkvLOH8vb8KH5ttfttDwAAAAAAAAAA6zRclLS5KIriUitbiNSW4ds+MwQAAACAh2b67Cv77RXSOpvVUgrH26huXR3z+qNL27frtmy133tqyyqFdu7Bp7E725xTXR3zOgAA+HjsNqAeuGJZVlzcwLy2IBA3TYDunEufaDoAAADwYCLPTdYlMn12XVrqecf1JKiN+UWqm9+J35fWsfQ+Oq549ZVikRoflI+X1V1VNfIW65k6QaDXVspfj8cc6hi6ba2W2p7UXhJ5SftbHW8ngd/truN6234+Xvz5lOsE8fVfujY7uF4bfa4rj6c+z3hbzbHS+6DVWX2/pLL3J+efS49T2k+5bap+8f7a+b0KAAA+Cjufob5K5F1IEk53xB9140cAAAAA7l/gtsQajJPUi2KL4zjZekbT8UB6VlXAMxKvY0lvnNRSFVQ9W9VWpmMZ9Czp1EUbA1esXnq8ZO2kbPkkXdeqCZLqIKdlUkTG7cyP1+v11HjCiduuX38M213H9bbbrw4UWzJIPx9VL6/Ti6//zm36uVqHyecnM3lf/ryDazM+VKZXclPaHt1cJcexT9YvJqoD2+a+sR1fJpuON819N56q84nvL3X99etP+F4FAAD3Y7cB9e5IwjCMy1L/RXVw0oVIHX8khNMBAACAB6L64hcmcmkPQ5nPJzIajWQymajHvjjxlrFclKKGgWtJ0oV3xA/nMlfvH40mMpnPJRwmQcLp4LQi2BgUvpk6lFC9Xx9rMlH7CNPjTWVwWQ4RR+LlDVX10uOFYg4ncvQmbrt+/cHn6Gx5Hdfa+vPRQVvNVmOspF5SJxQ/qbRjW3yu7WM5SaLMclWKmEfvZ+aRNpXb0Dw0wttk/ChHB6tThd41mK6uYk+fl7nnJvH9pa5/dt89wXsVAADcm53PUG+323FZpDobp/lCpGd0JgAAAICHE94mfXFx5Hwp72JXzkJffN+X82PzklYI8sYTYkrV2v239cHG4L3M4pnLjgzPSusmtdXx0ojj7H0pzUcoaQzVOS/Wa0v/3ESIx9dbzQDfiW2uYxN3/Hzs4VsZLXxAbemOCoHdXdnqc23LcRJRl+nVTeH1SG6u9FnbMhyaPxlcFz/ZQK7T++/NigHknYPpKUf8SXmNr7ztT+5eBQAA9+ZBUr5E3qmZ2cJCpAAAAMCDy9JujOVC59aOH+fa7a50u6oUJsZk6TZUzdm1K65bLpdyFW9XysHGbt/MXB4trpsUBRJ4rpzGgdRVbDm0zMN9ssV1bGSb/WZBeFtOKvOhFILBu7Ll59o+PknOb3or2ST06EaSePqJHPffJLPbiwHoLB2MI7Xx9EIwPf5jxB2mgW//Leo9vVcBAMC9eYCAeiCXJtWL7iwdhKqzFRRK4Wt+tzfmNVZBBwAAAHan3Ze3ZvZwnFs7XjixI66nF7us7ntn6TZkquqMZVxRptlbCoHSoigQTy+0qY4VL/5o9aSn84Sn9ZZYcphEXuvTg9iH6l2PZIvr2MgW+83TpRzJQU38vn1wZB7t2Kafa5b2ZSzpJPT0Dzb2ybG0s889z7OenZ/zpjrQPbsoBNO1LVLtZFYE7Wvt+b0KAADuzYMuSirTQbw4y0JJg+2qIzIemNcuK7vjAAAAALbU7k8kDH0ZpgskTnX/Wy92aUmr1ZGOtzwzOqbTe/hJypH6crYUOAzcThxoHcSB1qTPr1OFOMOh+CbFx7I8XcZ0YEnH9eIJN57al2XGDUkA9vFsfR3XuK/97tq2n2sa20/TuqR/sDmK/xqQzqZPg9NpOhgdT6+JdKtj63foNC9hOIxnwFfn878v+3+vAgCA+/EAAXVLDs0q6ZXFNh1GJV1N3eE7cwAAAMDO6dQh/ZFetFIvIhmK7w9Vf1xvmcp00BPLzTM+W8n0W71JDnS6kZWlvRA4jLyO9MYmqBgHPNXx4gUsRzLq96V7EG+qpOOh6QhhOk4m5AwK+5os5RhfL59tvxubXMdN3Nd+N1V3ve7yuXbfmGB7nB4ozY+ezwxP08LEedbTdDBr0qmkOdPb2Qz/qQxOvQf7w8N93KsAAGD/PUBAva06hckq6ZXlPP0aoi0nZ+Y1Oh4AAADAzkQ6x3U5tWK7Ld1uX0aTufjpxOJCDus8XUiehmNJ5Jl86l5h8cV8drFkAc/k6VqBK1ZvLNM4WBuKPxwmE26GvvjhfMsFJ/PFLe9qm+vYxN0+nzyNSlmw1YnXXa87fK5a1+RJn17JjWfyoxfTuaRpYfT2G5MfXudXrzuGaUOq3T83+x/I6UNMU7+XexUAADwFD5vyBQAAAMDDu7lIUiue3lTO3s1mDxelAVA96/eyOmIbXA6SfOoz/b3UVCjpBGe7anqxXkiyVx3ozXJPz94nAeV+30y46Up3bfC2KvAfidfpmcUtd2Cb69jEnT6fPI3KAnWdL1ae+KbXa/vPNdGV5DTU/TRI3re4nzQtTGH7RilTujIyf3mYDi43+oPGNu52rwIAgKdstwH1IFmYRpcH+jYiAAAAgDXSdBrx7F3VUc8nQkcSBYVA6MICkF05MwtlyrgnrY4bz6COTNG5tLNq5/1C4DNdrDEJbHqlOosLSS4qtjNemLOVjC2SomfCq6JziRcDwdahSbuRBP7zUwvE61iSLdm0A9tdx/V28fl0dL3kmaqjxmV113nr67X955pa/MOALSel6efrtq/VHZnZ/GPp3fOAdKt7FQAAfBzmDYRDe67fqnpwc9+8Vsl3zPtk7qx8Y0FWx54PQ/PaGo3bAwAAADxxs9ksLnV8p1lfOu9D1xR7OK/axbp6dtWBw+HcrnhvUuy546RjgOX+/Np2xmXxfH2nvo5uX7bPpXP05078vvL1q3t9++u4znb7Dc3nX1Xqr/PW1+sOn2usWL/yfNLrXre9cJ1qB5z5PvK31Hye2Vi0flxZf+8Utq0s9b+baf3GY2cAALAX/vobRf1HfKU//dtf5MNvfisvXx7K69ev5FPz+pLWH+XnD/p9L+Xw9Wt5VfvGgqzO76TTeSVWgzqN2wMAAAA8cb/88kv887PPPot/lkX/+x/kf/7wufyn33+1sv/96auv5Jsvv5BPPvwof/715/L552npytej7+W7b3uV6TVq63W/ltH338m3vYpan76SryrqdL8eyffffSunp7+ST37+jfz2pchf/epv5JUZBARuS179t5/EHobyf4L/Lt9886V8+eXv5fe/10Uvfvof5Tc//kF++Okn+cOHL+Sb10nKEOv1V/LlF5/Ihx//LL9O26fOa/TP38fty8YPv+tI55VVGD+05I8/f1DtKI9F6l7f/jqus91+P1Xn/o0695/lh//5g/xkXrVtR537/5K//+x/yz+o10Veyt9+8zpLy7P19dryc818+u/lLz//kNQ9+a9ytnTDtuRXavuP8fb/rLYvp5bJ2nb4Wl5X3vCW/I0+N/Ue1Qj5m7j9NZ9nNhatH1fWXYtt79WiP/3LP8l3f/hJXv7tN1KxGQAA7KmWjqqbxwAAAAD2zLt37+KfL168iH+W6cBeb2zL0H8rx6WgXHujVSMfmc7BHacNccSfj+pTpgSutHQKFHso4aSYagZL0mu17ppiM9vcq2+PzYu58OZUegO1F38urGEKAMDTwaKkAAAAwJM3lUHPEstaLPecRnq32gcSr0kpY7kOahJP6zzf6UqbRwcE0/E4Nr5X/53cnC7/fupgOgAAeHqYoQ4AAADssXUz1CPPlctb86Tk8Gwk/acUdc5mVGu22GYRzNh0mi96aTviT5hxvRYz1O/PRvfqmYh3Kdcfy+8pAADPHAF1AAAAYI+tC6h/dKJIgptLub6aycy8lDo6OpLDN2fS7xJ9bCRwpXOhr+KRnPMHiN3jXgUA4FlqzWYzAuoAAAAAAAAAAKzBDHUAAABgjz27GeoAAADAHmNRUgAAAAAAAAAAGiCgDgAAAAAAAABAAwTUAQAAAAAAAABogIA6AAAAAAAAAAANEFAHAAAAAAAAAKCB1lwxjwEAAADsmXfv3sU/X7x4Ef8sizxXLm/Nk5LDs5H02+YJgA1FEniXcs3vFwAAKCCgDgAAAOyxdQH1wG1Jb2yelDj+XEZd8wTAhiLxOpYMpuZpCb9fAAA8T6R8AQAAAJ48W4Z+KGG4WAj2AXfRlv7b5d8rf2ib7QAA4DlqHlAPXGm1XAnM041FnridjnTWFNeLTIVlkWpDp9NS7chLx/UkqK8CAAAAPA9WW9rtxZKLxHNdcR+67xz333U/vziOeIy2PNL577vKzwcLSr9TulhmEwAAeJ4aBtRVB/Si5nukG5hNpzJdU2bmvWWB2xGrN1bvMS8Y0/FAelZHVsThAQAAgGculNvxWMbjK3lvXnkoST/fPIk9Rlse7/z33fLnAwAAgFUaBNQjCdz6vHGNhbeS7EJ/HdUXv6acHy+v6hJ5HemNTQPsofjhXObzUELfUXvTpjKwmFUBAAAAPDuRGq8EgSqRGrk8IU+13bvQ9Nyf8zUCAAB7qyagHiTpWeK0KlbtIkfbOZKDble6dWUpnh7IZRrNt4cSTvrmPW1pd0cy8Z14k8hYLpimDgAAAFSw5CyewHIuFfNXHtiO2xJeSq/XU+VSQvPSsn06f6NRuz9STc/9OV8jAACwt2oC6qrDeX4u52bW+NDZ4aIr9uFGOeci70LSeL5z3pel/m/3TNI1YaaDS2apAwAAAEv0ZJRkAsvjx5Mfoy37dP4AAAB4ymoC6nmHU5fjQ/PyHUTv67KjrxbeprlmHHnTNQ8XtOX4JA34z+Q9k9QBAAAAAAAAAPeg4aKkzUVRFJdaRwfS1rnwPDdOK+O6rni1OfEiyeLwK2a2tw+OzKOp3PJdQAAAAOBuTJ9+o7kquo+/y3zXaRtUeXDpsc3TTTxKeyvcqR3bnH9aZ9N692A37dD7MA8BAAAKdhtQD1yxLCsubin3SjrT3J5dSEdt7w3GMp5OZTwey6Cn6rQ6spwCPZRsgnpDM6aoAwAAACWBuPH6SKU+t+q/t+LXzQL/kSduRz03fXpLb+u4Ff30gkivv5TUSfJdJ/U6akBQXa2mLUbkuclaTmkbVNFt7LieBNn7032oki34NJZe+pouHa9w/Hs8fyVS+0nWn2pl7dXHcpcqbtruzTRvR7Uo2Pz8s2OmdWrrNT33ba+Rqul24u1L7chvnEXp55/tL5n4la4lZlnmvgAAACjY+Qz1dabTqUzFFmfoSxiGEvqOehZvkcGqDoue2W4eLrEOzT4AAAAAbEUHF62BjKe22I4jjipxH3s6Vv306uB3HCS1eqqOeWqrerbp3Y97YmUB0WYCtyXWYKxGBpoaM+g2ZPsbSK84XlCv620L44D0NV3SL7E2tdX5R+J1VJvVeS7PA5rKeGBJqzzTaNftjm3RjpL36vytnj5/1Zym5x/XyY+ZnIN5UlUvPUfzNJa+pkt67k3fl9Hnb0kvvRHVexzH1Nft6FnSqf4AC8w+svsPAACgxryBcGjP9VtFnLlvXqsThmFcynxH1zf7KG/2HbNN5vawuNGfO+Z1cVYcORzOVWepoj4AAADwtM1ms7jUSfrZ9nx1NzjtV5feV+iHx8Uezhd3E86HttlW0R/P+/jl4xfqxaU4jqhpy8o+fT4uWNqWncOqscp9n79ul1+oG879bAwl88qhTKN2N7N1O8rnvzRWWzUeK24rXbdwVT2l6bk3fN+qsWY+lq34HUn3rz73YboPW+8jGdNWDGtj6T4rP1cAAPDR2/kM9Xa7HZey7lmYzEifj6Rb3tw9E9VRjU2vbmTd3AEAAAAAu+aIP+mXvhXaluMT01GfvV/sp0eeXJgJ6PbwrfQXKralP/HVHjcQ3pqZwY6cL+5M6cpZ6Ivv+3J+bF7aue3PXxxfJv1uoW5buv232RhnfLF9Gpe1dtYOW4ZheaymrntauXz+wXuZxTPGHRmela5be0W9XSucv+MvjzXb2flPZXBZM0t/OpCB3oe6fuFE7yMZ01YMawEAAB4w5UvaKTFPF7UlX1f0VlhXFAAAAHhYcTDSPG4kC4DbcnJc1csvBFWbyNI4juWiIv96u92VbleVe4pybnr+0c1Vdv7Ds6qa+o8KZlLR23Kgfnd21Y7lP4qs0e3LZDJRZbRYLwriPOSnVw+TOKV4/rNrV1y3XC7lKt6urAru20MJR8U/RgAAAFR78BzqW1vV+ck68wAAAAA258ibjaLpItH7mXl0JAc1Uch2NmumgXZf3poAfJx/PV4sUi+oqRcjvdc5zsrm5x/epiOQ+vPXwez7num8m3bU/VGkgSgQTy/kqT6reIFPq5fkIX+gAVp+/lN134xlXFGyttRO3rJleI9/9AAAAB+XPQ+oW3K4waQW7ai+FwkAAABgj7X7EwlDX4aOGQRM9YKaejFSS1qtjnS85Znrj84+VKOWPXCndqwKxtcL3E4cQB/EAfQkaq1TwDjDofjDjRL+3J1OPeMnaYHqy1n1NbJPZNu/JwAAgOfnQQLqkWdmK6hOcN3q+NkEl4WOYDEVzJXc1PSe89kxthzuRW8WAAAAQN5Pb06ndumPJjKfz2UehuL7Q0ni61OZDnpiuTV5sB+Ylc78WZmyMpIgCOJyX38IeKx26DFeb2yC6Dr3eKg+L/WZ6RQwo35fugfxpnuXn7/IgU4JtLLUpSAFAABo7kEC6vlXPadyW9nLCyX/puLBQien+yad2TCVq8qIeiQ3aX4+ZhYAAAAADyLv44/luibGnafjWC/Subd10LeY3qXdlm63L6PJXPx0WDC+ln0IqefnP5P3dVHq4FJ6vZ4qF7WTg+7qcdpRGIPphVB17vFHGoc1Ov/IM/nUvb24dwAAwNP2MClfum+yFf6rVpaPvAvVDdcqFtIp1J0OTpdmuEfeqQyyePoxMw4AAACAh9A9k3TN0ao+vg5iXiSd/GZuLpKg7+lN5SzqfKLNnsjGKVMZXFaHaYPr9AJsl1KlkUdpRz4hyq76irD67Du9TT78O2hy/peDJJ/6TCcVBQAAuJvdBtSDZDEaXRa/iVlY4X86EKuTLCykZ6F4bkesNCLunFesLN+VUTYdRXWSLL0wkZ694omrjpPVtYfydqNl6QEAAABsry39c9NPX+jjq6LHBdZA9d6bax+fSDxiUPs6VYOJfKK63l8hQOu8USOEgiygOpZeXC9tg56VXBHo35nCOGXck44+dvJMNTmKxzlpk+3h2WKbtZ21+47t2Eq+1tV0cCle2nZVdF71tZ9903Nv9L7CWFOdf6vj5vehKro92a1zzsKjAABgB+YNhEN7rt+quiBz37xWyXfM+2TuVLzRd9L9VBR7OA/N+6qEat+qm7RVXQAAAOCpms1mcanjO7pPbM+HKzvE/tyJ+86l92X99/p+fjYWqOlz52OF5eI4VfuvaYuyal9x2bQN2fsf5/zjUjUwMta3u7mt2nGX8w+H9eMzdZ2rP/tc03O/8/tMsat+QdLz3/B6p8da8dECAICP2F9/o6jOwEp/+re/yIff/FZevjyU169fyafm9SWtP8rPH/T7Xsrh69fyqvRG6/VX8uUXn8iHH/8sv/78c/k8Ll35evS9BN/26verfGq9lq++/FK++A8f5Dd//nVSv/u1fP2P362tCwAAADxVv/zyS/zzs88+i3+WRf/7H+R//vC5/Kfff7XU/8615I8/f5DfvvyddDqvxErfl/Xf6/v52Vjgdx3pvLKW3vPpK9XH//IL+Q8ffpQ//zrv44/++V/l7ztV+69pi6L39Y3a1ycL+0r2p8cM36l+f9UM47gNVeOM87+TXnyA+z//Dz/8KD/89JN5VcS2nWSc8/dfmFeWrW93c1u14y7n/+krNT5b/qy6X4/k++++ldPTX8knP/9GXXORv/rV38ir0vk0PfdN3ld576gx4+j77+TbXsWdk55/zWdb50//8k/y3R9+kpd/+428JocMAADPTktH1c1jAAAAAHvm3bt38c8XL17EP8sCtyW9sS1D/60cl4J77cdaKRL4WOjUMeZhKrw5ld5gqif9y2g3OXQAAMATQkAdAAAA2GPNAurmSQkBP+AuIvE6lqTLdpXx+wUAwPNEQB0AAADYY+sC6pHnyuWteVJyeDaqWPQfQDORBN6lXPP7BQAACgioAwAAAHtsXUAdAAAAwMNpzWYzAuoAAAAAAAAAAKzBDHUAAABgjzFDHQAAANgff2V+AgAAAAAAAACAFQioAwAAAAAAAADQAAF1AAAAAAAAAAAaIKAOAAAAAAAAAEADBNQBAAAAAAAAAGiAgDoAAAAAAAAAAA0QUAcAAAAAAAAAoAEC6gAAAAAAAAAANLA6oB4F4rkd6bRa0tKlox67gUSR2X5Xgav260pgnm7kLnUBAACAj0Igru6j1xXXFdfzJNhV//3JS6+XKx7XxNjja6LGfMm9zLgPTfE7DgC4f/UB9ciTjtWTwXgqU/OSTNXjcU8sq7OD/zhF4l2MzeNN3aUuAAAA8BHRffS6Mh7LeDCQnqUnx7gE1rX42szME8T2+Jok97J5AjTB7zgA4J7VBNQDca2BCaTb4vihhGEo/tCOX1H/hZKBdZdZApEEriWDrTpGd6kLAAAAfJxsZyi+7y+U4dARO+vCj6VndcRlqu/TF6kxURCoEqnR0QpN3wcAAIDGKgPqkXch6fxvx5/IqNuWdrst3f5EwiyoPpaLjaapm69exeljLOltNMH8LnUBAACAZ+DwWLrd7kLp90cymcwl9B1JevFTGfd28W1TPKrwUnq9niqXEpqXKjV9HwAAABqrCKhHcnNlpn/bQznrJg9T7eMT0xlX3fHbTbpllpydn8t5OlvGSffSxF3qAgAAAM9buzuSie+YZ1MZnHrMWAYAAAC2UBFQD+U2TadydCBt8zDTPpAj83AzbdWRz2fLHB+alxu5S10AAAAA0h1JHlMfyCWpXwAAAICNVedQt231P1ucQ8u8UBC9l3R5D7tiexRFcQEAAACwX7pv0oi6yPi6QUTd9O0ftHufHtM8zZjXK6V1quo9tEJbNrE37V/hXtuo9rt1vve0Xftw8dK2mKc7t+3+03r7cI22te2510iuxxb7S+ttWrdQbxNbHQsAcK8qAupdGU0mMlFl1F+any7RzZVZrFRPYC9tD1yxLCsuLHYEAAAA7JnuG8lC6rP3NQGaSHXrzfpFpm9vWXotI72gaU1IR40DWvF6R67UDQMir5O8p1OTbibyFo8Zv1ftL9DrKeWvF8cZkTruYjvzeg+dJz7yltuiz7fjelJ32dJrrd+31P6lSuo66G26ZItKjaWXvhbX09e26fua2qSNW4jyzzfJ957sv6M+6NV73/A+XXmPFq5Z1bVJ70217+y+Ku9Pvad4n975PtzJ/h/5Gt1B9u+Fvg/Kv+dxG7a9/7a/n7f99+b+/20AADy06hnqddR/JE8HaTjdkTel/OoAAAAA9pklh/mCSBULVUbidSzpjadmEk3yzdWEXtDUigOdO6cDedYgO6bjqOPqh9NxHGQdq7GH4+hSWEtJ1bF642yyj25n3tSxDKyHW3w1cFtiDdK26PY72XWbjgfSs6oClPm1julvCBfOe6CvdfkE4nM070mlr+mS5uZs+r61tmjjRgJxLfX5Zh+i+ozVMbTpuBd/vtW2uE+tQ3M9ZvK+3OTgWt1jxvRKbkrbs0ll9okcL885y+7f8VS1I75PzSLAu7oPt9r/nl2jbZn7ID+H+EFy7uocNvvn6A7385b/3jzYvw0AgIc1b8yfO+rtuooujm9eLgnDMC7rhEPb7MtRe97MXeoCAAAAT8lsNotLtbyPbg/X98E130n79Mt96Xybrfr7xf2Fcz/rg1ccy3fMtvr+edaHt4dqb0XhfGib4y5sK7y+NPgojE2c0v7C4ra6eva84eVaLxzObXO85c+g/vNZ+BxK1fLxTk07G1zvWKP31V+TO7WxgeL9triPwmefHt9s0ba7T/N9lj+L/FySUr5tsuMVN2TX1pRV93Xd4HmVO+5/L67RHSweT90fxXNQv+P5/VG+t+/jfi7+m7LBvzeP8W8DAOBBNJyhrv9CqmeGJNQ/+DKqmZ3ebrfjAgAAAOAJiTy5MB1+e/hW9feLffq2dPuTbFHT6eCyYlbltkK5NRMxnfO+OlKqLf1zc8Dx9eLxgvcyi2eIOjI8K9ZR2l05G5qpo7VpbXYovDWzTx05X0qZqdoS+uL7vpwfm5e0wrV2/JEsXGql3X8rySlMZfBYq8fedxtL99vipVOf/cTP0xMVbX2ftuX4JLkvplc3hfsikpsr/QnaMhwmFRfXFwjkOr0OtV/RdsSflO7DwvHufh9uuP+9vEbbc/yJ9IvnoH7H+2+HyYxtGctFk9nad7mft/335mP9twEA0CTlS/J1ozzTiy+TitzqAAAAAPZdJO9n5mFJvlZSVfAnkS9qOpYma5puxpZDyzxcp9uP13yaTEaLgdgokMBz5TQO/j2QLE3GWC50vuf4ca7d7kq3q0ph0lF+rW2ZXbviuuVyKVfxduUh/ihQ4d7bmAUbbTmpzBFSCFQW3OU+bR+fJJ9VMd1RdCNJrPhEjvtmjYHiH3CyVCf1KU/jwKd5fB823f8+XqOt2UM5q9pn+1jSvycsBv+r3el+3vbfm4/03wYAQIOAeuAWgunqP2Zh3dR0AAAAAHsunw0u9qEU49dhuqH0+oLCoqazpSTL20rzuk/lqpSYOUqj/3VtigLx9IJ/HbOAodWTns5XXBPfuhftvrw1gd8473e8cGBHXE8vOFh9jbJrrc55Oh7LuKJk51CZ6/7+3Xcbs89WjuSgOuYr7YPlZO93uk+zIGweRE4DmPbJsbSzezHPIZ6103lTE9S+77XFNt///l2jOzg6WJwRnmlLxe1Rayf386b/3nyk/zYAANYE1PWq0tk6MDqYvvQ1MwAAAABPRvResgnqdYGq2gDWfclTu0wHeqFET4IgEE+NRSwzsycJ5C3SYxUd0BrEAS3zPr2o5XAovklL8VDa/YmEoS/DdNFU1Z7xQC84aEmr1ZGOtzw7NaZTSPhJ2of6clYfFH0I+9rGre7TPAibpixJA5hHcVQ/TXmS/nEnTXWiY8VPcGLZR36NrHSF5U0Cy1vez9v+e/NR/9sAAM9YbUA98nQwPfkPhf6r+HLONgAAAABPSXA5iGeaarXBr1VpBAoB+SS41lw+83KZPp4JN8l0PJBerycDMxaxK1JOFscqensYzmU+n8cpGUb9vnQP4k0PSqdv6I8mcTvmYSi+P5QkhjaV6aAnlpslyCgEAkUOdMqHlaX9KOOwfWhjPou9wpb3aZbqJK6f5v7OZ4GnKU/iNCJpqhP1SuN0RPvkY7hGK84h+zdl1Ux84y73813/vfnY/m0AANQF1AM3mw0SB9Pn95sTDgAAAMA9U3384rdPy3mJ80DOlZQyr+QKea83C57lixYu0WMP1bBpHKgKxR8OxXH0zE9f/HAuk6WUk/mM2Hh9J7W9kIL4wUU6j3KgSjGFg2pQt9uX0WSeLf5YzDmdpzLJ02YsiTyTM9nLc1U/oPtuY77/+nz8VX+EufN9mqY60fU9k/u7mKokTXmit9+Y/ejc4U8ocvlRXaPa2eeF9SAazMTf/n7e/t+bj/XfBgBAZUA9EDfvacswJJgOAAAAPGVR4Eqn2Md/u/zt03b/PAmiyVQGl1VhmsI4oTZ4VhUEisTr9JKgXIVsFvLsfRJs6vdlNNIzP7vSrTxGngferorqR17hXB/AzUU8o753Wr0wYr74Y0GWv7ruWqurfTlIciary7PR3y525b7b2D2TdM3R8YW3fO3U53hR8THe/T7tSvKRqPqD5H2L91Ga8qSwvSLl0D77uK7RWHqFGdyZ4DJb661Rqpmt7+c7/Hvzsf7bAABYDqhH3kXe2VUdnNtL/ZfPulLq+OiOeqcTl6r/5gEAAAC4H9Ory4r+uu6ft5IZ4OZ9jv9WShlUjK6cZRHOnrQ6XjyzMtIl8MTNguIVAXnrUA8dlCQIlI0R9CJ+HSsLfFVJ00fIdJAs2qfzCpsxRadjzkPnGc52mi6KqKtcipe2URWd57hj5WltGrvDOKbY/lNVOW9nct2yYNvCgo3la+3m19qcR1btvCL1ZhZ0S4KNab34cyqO0Zq+r9Id27hWnjs//uwX7jf1edR+jne4T43FQKYtJ6WI8rrt+29PrtGu4gPqHDr6/jVPF36v1B3eLHX7tvfz9v/ePPi/DcRjAODhzEvCoT3XLzcrztw39WK+k21zFjYsy49T2kcDd6kLAAAAPCWz2Swu1fy5Y/rfa4vtzIehqbbC6vGAXbsP36mvZ6tK2X7t4by8i2ZjkMKxw+HcrnyPLvbccdJxSXm8kF6v0nlsMI6psrb9Feesraunr1ud2rqlY61/X801Me7SxiZW7b/+c1zXrvr7NFa8fyo/m8LvVc1nl98z9WPSrI11+1hlB/vfn2u0+e9V1nZ1D9T/G1d1DvdwP2/9783642332dW0847/jgEAmvvrbxT1D27mT//2F/nwm9/Ky5cvG5RDef36lXxq6krrj/Lzh6Tu4evX8irbsCw/TmkfDdylLgAAAPCU/PLLL/HPzz77LP65qCV//PmD/Hapn14o/+Uf5R+/+x/yP85W989Tn776Sr758gv55MOP8udffy6ff56U7tcj+T74Vno1+7BefyVffvGJfPjxz/JrU+fzz7sy+ufv5dteO+/D/64jnVdW1ocP3Ja8+m8/iT0M5f8E/12++eZL+fLL38vvf6+LXnjvP8pvfvyD/PDTT/KHD1/IN68t3Uj5qq6N330rp6e/kk9+/o26LiJ/9au/kVdWerT0ev1OOp1Xkr+sxzF/lh9++Ele/u03og+xibprps//69H38t23vcpZwLX1ul/L6Pvv4utWR9etut5fn/+d9LITa/K+mmti3KWNTcTtU/v/Dwv71/fNv8rfd9Lx5fK4r65d6+7T2Kf/Xv7y8w9JvZP/KmdLvxgt+ZXa/mO8/T+r7RU3RDb2rR+T1t3zjexg//txjbb7vfrTv/yTfPeHn0Re/qP86/d/G5/DH9R+ErbYzkj++Xt1Dku33z3cz1v/e7PiePfxb8MG8RgAwN20dFTdPAYAAACwZ969exf/fPHiRfzzo6LzD8cpExzx5yvWbgpcaek8B/ZQwsk26UXWi7yOWFcn97Z/4Dna9vcqrqdzRTm+zJcWJgYA4HFVLEoKAAAAAA+gfSDx2oYyluugJqO3zsOerk55dHBPwe5Ibq6mT27xSWC/8XsFAPg4EVAHAAAA8Ei6MvKd+NG4Z5UWJFVFL1Jq9ZJFTW1H/PuaqRrdyJUM5bx6tVYA2+D3CgDwkSLlCwAAALDHPuqUL6kokuDmUq6vZjIzL6WOjo7k8M2Z9LsE5YDnIvJcOVX/HsjRuUxI+QIA2DOt2WxGQB0AAAAAAAAAgDWYoQ4AAADssWcxQx0AAAB4IsihDgAAAAAAAABAAwTUAQAAAAAAAABogIA6AAAAAAAAAAANEFAHAAAAAAAAAKABAuoAAAAAAAAAADTQmivmMQAAAIA98+7du/jnixcv4p9lkefK5a15UnJ4NpJ+2zwBYEQSeJdyze8NAADYAgF1AAAAYI+tC6gHbkt6Y/OkxPHnMuqaJwCMSLyOJYOpeVrC7w0AAFiFlC8AAADAk2fL0A8lDBcLQUGgSlv6b5d/X/yhbbYDAADUWz1DPQrEu7yQq/FU4j/e27bYR+fy9qwr7V18BS5wpdUT8ecjWdnXjzxxT69kZp7WOTp5KyO+mwcAAICPSLMZ6rYMw8mKNBWBuJ2L+v700ZEcHR7Km+O+dOlOK+n1OpKTt6T/qKPTDZ1eqbtKjREnG/31Zj+vb+R1xBpMmaEOAABWqp+hHnnSsXoySIPp2lQ9HvfEsjriRea1rUXiXdR8N7XCTB97TVkXcAcAAACerYr+c1bGYxkPBtKzWtLquBLcua//EYivDSOM1WbJ/WOebYTrCwAAnqiagHogrjUwHSNbHPP10fwrcFMZWKqjbZ5tLpLArc9ZtyS8zdoy9H3xa8r5MVNHAAAAgFVsZ7jUjx4OHf1l1MR0LD2rI+72nX0AAADgo1UZUI+8C0nnjjv+REbdtrTbben2JxJmQfWxXGw0TV1/ra8jnVZLWi2rduGk1Y7koNuVbl0hng4AAACsdni81I/u90cymcwl9B1JevtTGfd28a1UAAAA4ONSEVCP5ObKTB23h3JWyh3XPj4xnWzVzb4NzaMmLDk7P5fzdBaMk+5lA/ah2gsAAACA+9DujmTiO+bZVAannhodAAAAAEhVBNRDuU1TsRwdyNKk7/aBHJmHm2mrDno+C+b40LzcQPSe3HoAAADAg+iOJI+pD+SS1C8AAABApjqHum2r/9niHFbMB4/eZ4t/2hXboyiKy73QAX6178Bz4/QxruuKF6jjmc0AAAAA7q77Jo2oi4yvG0TUzRjgvoYBldJjmqcZ83qltE5VvftSdzzz+nr6febhzpm21e5/3fZlURRIEKiyo0Ynx1fFPG8srbejdgAAAKQqAupdGU0mMlFl1F9OSh7dXJkFQnV8u7Q9cMWyrLjschGj0EyZt2cX0lH77g3GMp5OZTwey6CnjtcivyMAAACwM903koXUZ+9rgpmR6v6bNZLMGMCy9HpJekHTms65Gi+04jWVXKkbLkReJ3lPpybdTOQtHjN+r9pfoNdsyl8vjkciddzFdub17m0csUk70+uSnXMyiShdf8qyzPW6y/VbqBuJpz67ZN+66PcXrkVk2li3vUJ6jS2rJ72eKqreynthpeTe0u1Njq9KfE7JhKpVovS6pfXidrSk43qyVVMAAABKqmeo11GdwtNBGk535E0pv/p9m06nMhVbnKEvYRguLJo0SDuZAAAAAO7IksN84SRZXjkpEq9jSW+s++da8g3XhF7Q1JLOLmfYpHRQ2Bpkx3QcdVz9cDqOg7hjNUZxHF0K6zWpOlZvbOroL+Pqtponqt7AuofJOdu0M2Ou7SBv865du5YM1Ge3IL0WOuBvqTaWDx5vrxlzjXv5NdbfdM7Oy9wLG13g/N6Kmf2l109PqKrbX+C2xMqum66nxovmw56OB9JjzAgAAHZgg4C67lilnUIRxx/JUjy9O0oC3aqM7iXY7ogf6pnzXWm3dU724qJJY7nYeU8YAAAAeI7acrBi4aRAB2ST6KkaF4QynyffcJ3PQ/GHaQCzt2EgdZ1IvItx8tAeSqiOORqp46pjmkOKHL1Rr43i15PxiBrD9EwdR9eZx+2cTOYyD30zC38qg50mit+mnbmb9NraeuyTjK3CsGLstbWxjMfp56augy7hMAlY62sRB/xtGRa2h366fdWYS9UJ1fv1N53Veel7IT3f6eC08R8t8ntLn3++v4luR3pvVe0v8iS/7Mk9qa9xcl+mnzVjRgAAcHcNA+p6loDuWCV0B6UuYB4HulXZpe6Z6UjOVUeyvOvuWd5Ru7pRLQUAAABwbxYCl2/VuKDYQW9Ltz/JFjWdDi53OCM4FJMJUpzzvjpSqi39c3PA8fXi8YL3MrP1jHRHhmfFOkq7K2fpQKI2rc02tmhnajqQgb62ji/hRI99krHVjodXavc6kF/Yabsvb7Novw6MT6Rf2N7u9iVt+vR2+fsKWZ3FCyz9Sf5Hi6ubBle4cG/FE7hK593uvzVjv4o/goS3ZvKXI+dLqUvVZx364vu+nB+blwAAALbUIKCefOUuz/Tiy6Qit/q9SjuS5umiwuyZyq+jAgAAANhMJO9n5mFJvqZSVeAykS9qOpYma5puxpZDyzxcp9s3M9JHi8FevXCm58rpVTrIuQ8btLNIz2ofdWvGPruwJnWnfSLHmx68tk5X0luhyeSn/N6yZXbtiuuWy6VcxduV8h9BrENVSxvLhauzxC9qt7vS7aqy679OAACAZ2dtQD3/yp1iOncAAAAAPmb5LGuxD6UYFw7TDaXXFxQWNZ2939Xc7zSv+/Js5yiN/te1KQrE04tVdsyCnXrhTJ1r+17i6Xdop57p/bY0k/4pODrYSZuze0tdu+lYp6ZZLtlnVp5MVZhlr9MNJYuYdsT19GKku7oHAQAA1gTUA7cjacrBOJg+eYKdOwAAAACbid5LNkG9Lli6oyBqc3nKlOlAL3rqSRAE4qkxi2VmANknx0tt0mMaHUAfxAF08z7bEWc4FH+Yhv13abt2xraZHb7nrHR1202+TaxT9PhJipb6crb0R4l2fyJh6MswXRRVfd7jgV6M1JJWqyMdb3nmOgAAwKZqA+qRp4Pp6Z//HfEfKZiu2xHPIlEdoOr1YwpfR101SwYAAABAI8HlwKTeUCOBuvwgq/KOFwLyRwebjSLyWcrL9PFMqFSm44H0ej0ZmDGLXZGasjim0dtDvcjlXC9MOpJRvy/dg3jTzm3azl1adf3uzYp7odE3Gow8+C5yoNOzrCzVKUF1apd+vCiqXmw1FN8fShJfn8p00BPL3XkOIgAA8MxUB9QDN5s9EQfT9WKg5tlDa+cJ0qVy/Zvi11EffJYMAAAA8JFRY4Hit1TPSgOBPOh5JbXrTGYLRG6aRzyQ6/TYZXqMoho2jQPjofjDoTiOnmnuix/OZbKUmjKSmzRHug5i67zkDzFY2Lidu7Ti+t2n2tnnhclPDcZq+dhvJrWZgiLP5FP3FhZ2jXRe/ECVYnoX9YF3u30ZTebZQrm1C8ICAAA0VBFQD8TNe9AyDB8vmB4r5F8cX3hLMx8i70KS1qq2lnv7AAAAABqLAlc6xbFART7vdv/c9M+nMrisCk0WxhO1KUyqAqaReJ2e6dsvy/KPz94ngdJ+X0YjPdO8K93KY+QTb+yqqH7kFc51dzZv5zY2v373K1kIdElwma3HVftNh6Js7Fd3b+ldDpJ86uoyL3yqNxfxNwF6p9WLn+YL5QIAANzNUkA9D1ArtsjtZXll9WIpBbh1B7zTicvuvknXlTOzuIxMB2J1kkVl9AyEYh5Ccc4XV+4HAAAAsGR6dVnRr9f9+FYys9q8z/Hf1vSvC/3zcU9aWf9clcATNwvqVgTkrUM9xFCSgGk2ltB9+46VBV+rtI9Pkrp6TGBSQqZjj07HnIfOkZ3tNF0cVFe5FC9toyo6r3rHytPa7NLm7dzAHa7ffdMLgcb54tPrrBeBzf6wsvxNh2rle8vN96dKcY0v53zx3ipe91M1GFVvN1RddV9mbXHePO6EMQAA8PTNS8KhPdcvNyvO3Df1Yr6TbXMWNizLj1PaRw3fWdEuezgPzfsAAACAj8lsNotLHd/RfWJ7PlzZIfbnTlU/uqrYzpp9JVaPG+rbs6pfb6tK2X4r+vjNxiqFY4fDuV35Hl3sueOk45fymCS9Xuuua7WN25mOoxqMa7a+ftlYrXr8teq6a8l9pkphoJfVUdex9v5S99Py8VZf33XXT59nlbXXfc31TeuvG8sCAIDnraX/T3UaMvqv95fXt+bZOodyNirMDND57C6Tuodno5UzxvPjlPaxQlzn4ipb4EjkSE7Oz6S/u+9OAgAAAHvl3bt38c8XL17EP8sCtyW9sU7VOFnR/47Ecy9lZS//8I28Od4wLYmeGX15IVd5B12OTs7lrN9d2b+v6tefvz1Tx27n4wTVnuJ+kvMUsYehWdRTz1pOtun0LmH4Xq4vBhKv/en4Mk9zlde1UZ1ru62/9XodX5fDN8VxRXq9DuXNWX+ja7JVO9NxVOmc62xz/fKxWvX4q7aeoWecJ9XPZGRutLyOfk3UNTtteC80uL4Vn5vaoZyfHcfnWauqnhk3HqsDraipzjH5BrTjz+VeU90DAIAnbSmgDgAAAGB/NA6o+2/luJQqvL0q8PiU6HzncYoWR/z5ijWeAldaSTRbwkmzSTs79VTaCfVZRVLOuhPenEqPgDoAAFijYlFSAAAAAE/LVAY9SyxrsexuXaNH1j6Qo/jBWK6DchjU0DOTL0ye7KODxwlSP5V2PnuReKfLvy86mA4AALAOM9QBAACAPbZuhnqWiqPCujSMT0o6qztmi23WroxNp/kCo7Yj/mTF7PD79lTa+axFEniXEmcgrfBR/d4AAICdI6AOAAAA7LF1AfVnJYokuLmU66tZIX944ujoqJQH/RE9lXYCAABgY63ZbEZAHQAAAAAAAACANZihDgAAAOwxZqgDAAAA+4NFSQEAAAAAAAAAaICAOgAAAAAAAAAADRBQBwAAAAAAAACgAQLqAAAAAAAAAAA0QEAdAAAAAAAAAIAGCKgDAAAAAAAAANAAAXUAAAAAAAAAABogoA4AAADgWYiiKC4AAADAtlYH1KNAPLcjnVZLWrp01GM3UJ1Qs/2uAlft15XAPG0iUnU6HdOelm6PJwF9YgAAADw7gbi6f75QXPHoG1dT4wjLsuKihjT3IvL0WEWPUe7pAFtL7xXuDwAAgLuqD6hHnnSsngzGU5mal2SqHo97qhPa2UFHLBLvYmweN6He32mJ1RvrZhi6PQPpqfbsXZ8VAAAAuG+6f75QZmYDHscs+RzMs73C/QEAALATNQH1QFxrYDqCtjh+KGEYij+041d0IHtgbTazfFEkgWvJYIOeZuSdZu+3h37cntAfqtZpUxn37tIeAAAA4Amy0/55wraPzCMjUv3uIFAlUj3wZ846U+MZRz2w5dBKXspwnQAAANBQZUA98i4knTvu+BMZddvSbrel259ImAXVx3Kx0TR18zXDOFWLJb2NJqd7cmqi6fYwlEm/G7en3e3LJEyD6pu2BwAAAHjKujKaTMTXMWLNHsrbyUj6bfNcCy+l1+upcimheenZUuMHS2bqOp3IcfEaaVwnAAAANFQRUI/k5iqbCi5n3eRhqn18YgLYItPbTbqblpydn8u574uvytBZnE2zSnRzZWbLO3K+MEJQ2geSzsPZrD0AAAAAno9knOOc96UcTwcAAACaqgioh3KbpmI5OljubBYC2JvRM8q70jXl+NC8vFYhwO+8kVJ8X+nKSKd/0WW0vBUAAAAAJLqRKxnKG4YMAAAAuIPqHOq2rf5ni7OUXFCJ3usvSsbsiu1RFMVlZ3THN4un573fhePo9C+6JM8AAAAAPCWmb7/1MCKtb55WavdlMulXTNC5X1Gkc7OrsuHJpeOdHY6smkmPe5+fRVldHfM6AADAPqkIqCe5GCeqjMrpVZQ8/YqewF7aHrhiWVZc3HtaITRSx9B52NPjtFodccmdDgAAABiBuPG6RapkCxeNpZe+pkvHax7wVP3vpJ6r9lxWOFbVPiPPrKHUkeUue6R2bdZYMn17y0re6wY1rSu3Re3f7RTqx+1wK45VZcfXqSQft+jc7KqkY5e6c4sl10QfOx3vZOe0st5dPdJnkd4fpTr6DxDFfd3X2BIAAGAb1TPU6xQWB9X5zB/k65LhrQng23L43hVLdXb1cz2DPjGV8cCSDkF1AAAAIGG+cbqwalH6mi6b5HC0Ds1+ZvK+3OUOriUNRcv0Sm5K27PJOEsLgUbidSzpjadZX3+hf99T/ft1UVQd0LUGMp6quo4jjirxHqZjGVhVAfwK6fUwT2Ppa7psl+tS1Alk4xa9PydbP8qcW2Xj8msSM/Wyc6qtd1eP9FmYOukxi+eq/wAxVuNNvZ/82gEAAOyJeWP+3FFv11V0cXzzckkYhnFZJxzaZl+O2vMKvpMdMy72cJ7vPZwP7XSbPR+uPywAAADwpMxms7jU8Z2qfrKR9aXX9LlXyvvcdqnDnffpk1IeI2RtK23IXld9eMcv7jOc+4V9lo+3emygFcYHdQOWKju5TuXrUR6frB675NdEtaG0Ld/vtmOedCy36rgP+VkUttWN7zb5/AAAAB5QwxnqetaCniWQUJ0pqVv/M85lrsr9cMSfFFflb0v/7TCZySBTuSpPiQEAAABwR205PjE97qsbNTJIRXITL3Zky3DoxK+Mr4szmQO5NgOI4lpI+luvF+Z1e/hWjSuKY4e2dPsT8ZPdyXRwmaQTqVQeG2h5W2X2vtDWh6auSTiRxQyaauwy8VWrtdLYpXBNHH8kC5dEafffyjCZvi2Dyx3mP3m0zyKUWzMR3zkvje/OzQHH1yuOBwAA8HgaBNSTrwDmmV58mVTkVn8QzpvlRYTaB5J+E3Oxgw8AAABgF9rHJyYdx62E8StKdCNJPP1EjvtvkkBxMQiapYNZTBWZr8nkyHnNuKL7xgRV1R4WYvQFceDZPN47SyluUl1JT604dsmviS2za1dct1wu5SreruzwDwWP/1nYcmiZhwAAAE/E2oB64BaC6fZQwrqp6Q/AruxtWXJoJj4AAAAAuAftY0kmG+dB1TQYa58cSzvrk+d51qP3s+RBaVJMmE5Ntg9VrRpdE6BXZkuJ27UHWs9pW0cHpdnaq2XXRF3R6Xgs44oyzd5S+KPGHT3eZ5HeL8vfMs7um1VtAgAAeEQrA+p6pfdswXsdTF/6Gt8DyBZBamCHnUsAAAAAqbYcmK+Fpmld0mDs0YEeIaTpPdIAaZoORsfTa6KtGwadPxZWOhuoauxiOzL0ffFXlrPdB5of/LPIU7tMB3rRU0+CIBBPjT8tM5sr+UMNAADA/qkNqEeeDqan0yCqcuI9kEJKl7WYxQAAAADciyz1R5xyJM2Pns9OTtPCxKlM0nQwq1J6rEpdEr0XM0/ZBOyfmBXnVjUrPA+yixx0u9JdWdq7H5c9wmehj5dOnJqOB9Lr9WRgxp/2Y6YZBQAAWKM6oB642cyAOJg+f8z8hHlKl+oc6fmCNs91lgsAAABw79LUH9MrufFMfvRiOpc0LYzefnMbp4OpyiWeB4/V++qjzkn9p5pju/abs5GkGU2KY5d2Ov2/kDJnSeSZfOrezhbrfLTPQo83e2OZOr6EYSj+cCiO44gz9MUP5zJ5xDSjAAAA61QE1ANx8zwvMgwfe7Gfwurw04EsLWqfLXa04uukAAAAAO4oXVBzKoNB0gNfXOMoTQtT2F6RtqPdP08C8/p9S517rTAeqV3cc9+N5cKtOLfgMlufamHskuUpr7smuuogyac+01OOduOxPossT/rsvWpEW7r9voxGIxn1u9J9kp83AAB4TpYC6pF3kQWo9Xfwbi/LK8wXi7c4YzxwpdPpxKWq/7itvKOnuqY9ve9IokgVfbysgzeUM+LpAAAAeDYCcVW/O5sLMx3IaccVr9hBzwK1Y+mpDnrch4770Xq2c6kv30CW9iVmy0kpwrpue6IrZ0MzYWbck1bHk6DYrk7PjEdsGb59oLSTO75O2lSdW5wbPN2Xt2rsUr4mbl5PleLaVs75Lq/J43wWaXogfc9arZa0WskYMilmrOnpzyF+e+KexpoAAAAbm5eEQ3uuX25WnLlv6sV8J9vmLGxYlh+ntI86oT937OKxi8WeD0PzPgAAAOAjMpvN4rJM9Y8b9Itr+/f2cL5xFzoczu2V9QttWrP/1eOOmv59Nt6oH0Nk+93w/HZxnbJ9OE7FZ2OK3aDtNcXeetCTfi7V1/UxPot155qUwrE3GGsCAADcp7/+RlGdksyf/u0v8uE3v5WXL182KIfy+vUr+dTUldYf5ecPSd3D16/lVbZhWX6c0j7qfGrJ66++lC8++SA//vnX8vnnn8el+/VIvg++ld7aHQAAAABPzy+//BL//Oyzz+KfuZb88ecP8tuF/vnvpNN5JVahb/zpq6/kyy8+kQ8//ll+bfrQn3/ela/P/056xTc28em/l7/8/IP8+ddqHyf/Vc6WOvwt+ZXa/mO8/T+r7fXJSXS7vvnyC/nkw4/J/pr077PxRv0YIhtn/K4jHXX8pme4i+uUHfvwTEbB7+WT9FoVz2389/KFeX9Z3TX5vPu1jL7/Tr7tbTtHPL1Xlu8P7aE/i8Btyav/9pPYw1D+T/Df5ZtvvpQvv/y9/P73uuiFV/+j/ObHP8gPP/0kf/jwhXzzWt1HG4w1AQAA7lNLR9XNYwAAAAB75t27d/HPFy9exD+BJy3ypGMNZCqO+PMV63UFrrR0nht7KOHkgVL/AAAANFCxKCkAAAAAAPegfSDx2rUyluugJjt9FIh3YZLGHx0QTAcAAHuFGeoAAADAHmOGOj466ezzmC22WRc1Np3K1DwU2xF/smIWOwAAwCMgoA4AAADsMQLq+ChFkQQ3l3J9NZOZeSl1dHQkh2/OpN9lbjoAANg/rdlsRkAdAAAAAAAAAIA1mKEOAAAA7DFmqAMAAAD7g0VJAQAAAAAAAABogIA6AAAAAAAAAAANEFAHAAAAAAAAAKABAuoAAAAAAAAAADRAQB0AAAAAAAAAgAZac8U8BgAAALBn3r17F/988eJF/LMs8ly5vDVPSg7PRtJvmyfAsxJJ4F3KNb8bAABgxwioAwAAAHtsXUA9cFvSG5snJY4/l1HXPAGelUi8jiWDqXlawu8GAADYFilfAAAAgCfPlqEfShguFgKGeL7a0n+7/DvhD22zHQAAYDurA+pRIJ7bkU6rJS1dOuqxG0gUme3buOM+o8CVTsfUbem6ngR3aQ8AAADwMbDa0m4vFiCVjKM6+ThKPXa9xYFU/XsiNYZzxd3p2GvX+wzE1WPLjivZaZV+H3SxzKbtpMdIjhOYV+vl7y9fawAA8HTVB9QjTzpWTwbjqWTfkpuqx+OeWFYn76RsQnfQtt6n/speS6zeWFcxdN2B9FRdd31vBgAAAACencjrmHFUOpBS4yj1eHx1o0ZZidXvCeV2PJbx+Erem613dw/7VO2dTmfmyT2Jj6HLWHpNBqHm/ffcKgAA8IBqAuqBuNbABL1tcczXR/Ovx01lYDX5i3yBDtDrDpp+bDvih3OZz9V+fUcdQVu9z8g7zfLf2UM/+cqeP8zqjnsbtgcAAADAfooiCYJAlSgL+GJbgVyagZTt6HGUGYeFvjhHB/Hrzd6DJeOL7SaaPRZ+rwAA2InKgHrkXUi6rpHjT2TUTb4e1+1PJMyC6mO52KD3EFymAXpH/MlI1C4Vtd/uSCa+E2/R+7yuiopHnpymHbxhKJN+N/nKXrcvkzANqm/WHgAAAAB7KryUXq+nyqWE5iVsKbg2YztHzkd6HKUf6/FdV0b6uX669j2WnPm++P65HO8sk9B97POhTWVw6j2d4DS/VwAA7ERFQD2Sm6tsKriclRYyah+fmAC26j7cNv3PcCDXWYT+jSytjdR9o7puidn75e5IdHOVBePP+6XeVvtAjszD5u0BAAAAADSjJzN1pavK7mLf97HPRzAdyCVflQYA4FmpCKiHcmvi6XJ0sNy5KQSwN2Lb6n+2OIebLgNTCPBXBePVK6N01fbR8lYAAAAAAHbK8SX9ojXpRwEAeF6qc6ivCn5H77MFVeyK7VEUxWVRV0aTiUxUGZVnmGuFfS6JbiSPp+cB84Xj6PQvuiTPAAAAADSw3G+/Z6YPf2/HzfZvnm9kXd0N9x2/Nyk7l+3bPN8zOz3n7FxVMS/ti+7ZbtOP7ut5AgCARRUB9dXB7zz9ip7AXtoeuGJZVlyaLHieyvOr23KyJoFepI7RabWy47RaHXHJnQ4AAAA0kvanW6ZPrX+u7FOr9yfvqZ+FG3md5D2d6nzSkWeOafrw6XE7ridBViEQNz6OKr00X+RYeulrulTuP1JN7JT2r9+vzinf+aKFc4rEU/VbrULdjpsvNhmpdnX0e2u2lzQ7121scp5NrqXZ18r3pNc73V+n/rw3va/W7DPbX3auqujnK679g2v35a1ZY2w6ON2yXcnnml63hfOsuWECV183Xap/Jxe3b/t7BQAA6lTPUK9TWBxU5zMvTBjfnOqYBoEXd07T/67bw7eyFMMPb7Ng++F7Vyz1Zv1cz6BPTGU8sKSzN70qAAAAYB9F4qm+d9qfXpT0qVubzIppSAf3rEF6TFscx8n68tPxQHpWIShovimb9vRj6Wu6LOWe1OdkqfHENNv/wjihp8YJa87p2rVkoOovmI5lYHXECwJxrZ6UNyfbl4OZG53rRrY4z/Samaex9DVd9LVs8p617uG+CvJxn5a0xzxJP5s9Gf61+28lialPZbBxMvX8c42pk3Qc83no89Sfa8WJdke+WYNsLL3ytVXXLh1fO/4oSZkaXz+z31T6mi5b5XQFAOAZmzfmz9V/tOe6ii6Ob14uCcMwLuuEQzvbl/qvudpfTR3fKbxPFXs4z98ZzlXnJdvHcP1hAQAAgCdlNpvFpY7vNOsLJ+9Lij30F/rUfqFvvtTPz/rjjhoRVMv69gt9dSUczm2zX3upgfn4Ymlbg2Nq+TmVxxOL51S//4q6hTan24eF7aFfc07bnmsDW5+n1uRarn1P2v7l+2zr+6p2n4Vxp1O+n4rbyjusb2NReq/WjWdXqzl+4X5a3G/+/qrPJr926rqXNufj5ZrzKdxv+TFXXR+l4e8VAABYreEMdf2X856kXxBTnQGpW/8zzmWuyloHJ2bGhn5iZlWsnWbgiD/pF3Klt6X/Ns1bN5WrG2apAwAAAEsiTy7Szrzjy6TfXehTd7NZtiLjix2mf8i+berI+dJXUbtyFvri+76cH5uXNlE4J/1N11G3uH99TpNs0cjp4LJ2ZrjjTxbrFtJ4qD3LMJxIv7C93e3Lebrf2zB5oN3Xue7oPO/FfdxXwXuZxTOnHRmeFcd+Sltdx3SHs/e7u0/vqjvafIHSwrWLZ5KXbpm1M98L92l6zMA1Y3Z7KGHdgB0AANxZg4B68jW0PNOL7iiVO4ib0x3R0Wgkk8lcdT6SjsB0sCb3uvMm+cpaUftA0m+oTa9u9qdTBQAAAOyJfB0kW4ZnVYG2tvQnoYShKm9LQcy7sA7N5JexXKiOfrmv3m53pdtVpcmEnJL8nKoC2InuGxPlVMe/rhxnrEljaZ/ImiWecvd0rrs5z/txL/eVGifq9bwmk9FiOlCdMtRz5fQqHZjul00XKC1eu9m1K65bLpdyFW9Xav54kAfdx9LrdEyqF/VZ7PJ3GAAALFkbUA90TsG0z3JPf+nujs5V9zCxauaCfWiZR0WWHCY9FwAAAAAVwtu0Q38kB7WRtuSbplvEtusVF20c98xii3qhSr1A5/qg4yrZOdmHakRQo/smG2fM3t/teGvd07nu3XkW3Ot9FQXi6QVe1TWMF860etLT+enTQ+6bDRcoza/dVN0vYxlXlOxcp7dS+C5EQeEb2+bNleuSAQCAnVoZUNerjacLmsTB9IV0KxuIFyDVJaoJlnclm1RR7ixkMz0aqO1oAAAAAFgZlL0n7f5EwtCXoflWqg78jQd6gU5LWq2OdLzl2dwbOTrYm9m493que3SeS3Z8X+lxqA6gD+IAugkU2444w6H4w3TguH/a/XSi2AYLlOrUNn6SDqi+nNVf3/axnBQGzEf1f9kAAAA7UhtQjzwdTE//JF7OXb6Z6OZCer2eKpebB7wLKV3WeoQBAgAAALDvrPQrnSsnoERmEszmQd98tm01ne6kP5rIfD6XeRiK7w8liTlPZTroibUy7+Maq3JpR+9lZh4+VKDx3s51z85Tu4/7qjgOtR1fwlBdR3UtdQqYUb8v3YN4057qyihPpr4ynWl+7UQOdCqglaVdOxZf+Ea50jiHOwAA2Fp1QD1wxcqTpos/Hy3nLt/KTKq/gRjJ+7QHuBQUz1O6VOdIDyX/puEez9oAAAAAHkn7IJ2iUtcfV4JLMwnmQjZb6z+Q6/RbrSVR+k3VYsqTdlu6ej2leC0l89r4euMgYB6QvKpvb7ZQqC2V2SN36L7Odd/Os2j391UkN2mOdL1216i7eaqYx9Y9KyzEepH9oaOs0bWLPJNP3au+Z9S4Pf1GueOHeT71u/yBCgAArFURUA/EzfO8yDC8ezC9fXxi0rbUfPVNdbKy+P1SULwtx+l32KYDWaoeXKsuQ8JZuaIQAAAA8ExlObbrU1EEWVS8Lh92VeAvEq/Ty/rjS9Jvqp5WTYzRzUqjzJtbn16jMK7ZZHHRbd3Tue7deRbt5L4qyidLVa6fFXnSycaq+2oxr3k6zF3S5NpdDpJ86jM9zaws/9ztYSijbuG44550GiyMCgAAtrMUUI+8i7xDrP5rfHtZXm28WEoLiAbJojG6LPxRvN2X87T/qP7j3uokC/PoWRyeq95fDOBXrA6fdyJ1db1vXVcVfbys8ziUyoXlAQAAgGdvMRVFR3XWs3686lfrPnnerT5bnFCTrWmUBP7yeqov31lMN1GWTayZDuRUHzOvrKoXgqPOm8VjZsHGZLZt3PeP+/96xm46BunKWTYVuDjGMO/LAv1qjPF2+/SVTW19rmvt13kuusN9Vanw7eTBpXjpeaqi86p3rEF9gHqfFBYorVf+XN38czXnm90y5+XPtfCHLDUOfpuuQrpuYdQmv1d1Y3oAAJCbl4RDe65fblacuW/qxXwn2+YsbNBCtXnVvu35MDRvrRL6c8euqqfLmroAAADAEzWbzeJSx3ea94fX9vWXO/GxVf14Wx042689VL3+RWuPWVFHq61Xev/q/ddcl2zcUhrPGKvOR0uuuSql67XtuTax1Xlqa841tvY9aiy24jhrz7vyvqrZZzic2+X6WbHnjlPX1tVtTKVtrbnV10iPocraHRTeq4r+Pamy7tpV1cvrVJ9rdn9u8vuYvnflmB4AAGh//Y2i/mOZ+dO//UU+/Oa38vLlywblUF6/fiWfmrrS+qP8/CGpe/j6tbzKNmifivX6K/nyi0/kw49/ll9//rl8bkr365F8H3wrvYX3l3xqyeuvvpQvPvkgP/7515vVBQAAAJ6oX375Jf752WefxT/Lov/9D/I/f/hc/tPvvyr1v5d9+kr1x7/8Qj788KP88NNP5lUR23bk69H3Evz9F+aVRdX9+K6M/vl7+bbXzscQv+tI55WVjw8Ufcxv1DE/+fCj/PnX+RhA19fH/O7bXuWs6ritFcf8+vzvpGflR6jb/8pxQjZuKY1njFXno7X++LN8+K0aDx2+lteFi77tuTax1Xlqa841tvY9Lfnjzx/kty9/J53OKylc/lj8WW18X9Xs89NX8lXdeX73rZye/ko++fk3qp7IX/3qb+RVVnF1G1N/+pd/ku/+8JO8/Ntv5PXG+ebTYyx/9svU+FXdvz+bsfXvOp1CW3O190z3axl9/138+7Uokv/7/4riNvyXf/xf0q+4tNZrtT99jT77Rf7fhWtkPqtVv1crx/QAAEBr6ai6eQwAAABgz7x79y7++eLFi/hnWeC2pDe2Zei/leNSgLD95FZ0BHZIpzMxD1Phzan0BlM9wVxGpAwFAABbqFiUFAAAAAAAAAAAlDFDHQAAANhjzWaomyclzMLF86UX7qxfNJffDQAAsC0C6gAAAMAeWxdQjzxXLm/Nk5LDs5H0yfqCZymSwLuUa343AADAjhFQBwAAAPbYuoA6AAAAgIfTms1mBNQBAAAAAAAAAFiDGeoAAADAHmOGOgAAALA//sr8BAAAAAAAAAAAKxBQBwAAAAAAAACgAQLqAAAAAAAAAAA0QEAdAAAAAAAAAIAGCKgDAAAAAAAAANAAAXUAAAAAAAAAABogoA4AAAAAAAAAQAME1AEAAAAAAAAAaGB1QD0KxHM70mm1pKVLRz12A4kis30HAtfsu9URb91+H6A9AAAAwPMQiKv702uLK663iz53pPryal+uJ8FW+7pr/YLAzc4tMC89iCd93EgCT+8nH7/p/Xl3/jA2E3j6uObYTQ8defm9ru5lAACAu2jNFfN4kep0dKyBTM3TRbYMw4n02+bptlTHrtUbmydr9qk7geq999oeAAAAYM+8e/cu/vnixYv45+4E4rZ6kvbG17PFGb6V0dad7vR42/bd71q/IBuHOOLPR9JNXr1/T/a4+o8v6tpXD8bEdnyZjB7qbAr3rTruvMFx9SSuZNj5wNcdAAB8lGpmqKtOShZMVx1nP5QwDMUf2vErorYMrLvOqojEu4h7Nevp4H4aTLdVJyicy3yu2uQ7qnXaLtoDAAAAPE+2MxTf96vLMO9zjweWuPfR6Y4iCYJAlUiNErBf1LgtC6brP6okY8PQH4pjhofTce9+7otKXRmpcWCsyXED1wTTdfydYDoAALi7yoB65F1kM1UcfyKjblva7bZ0+xMJs6D6WC4af8duWeSdyqBmhkNZcJkG9x3xJ6oTFM9GUW3qjmSSdqZUe66JqAMAAACbOzyWbrdbXfqqzx0OTVBd9bovvC2D3pacxUH6czkuzy4PL6XX66lyKaF5admK+rg/wWU2bovHhv1kbNju9mU08dUILbH9fbEFNQ7MY+qrJlYF4ubRdDWuTR4CAADcRUVAPZKbK9NjsodyVup0tI9Pss709La+u7tS5Mmp6ZXZdrq3OoFcZ9H9N8szCrpvsk7c7D3zWQAAAICda/flPO10T29XBL1X0UHYJEi/XTz8rvWxjSAfjMmbpcGYJYf54HDL+2I73VEazB9Lr2aaeuCa1DB6YhbRdAAAsCMVAfVQbtOZ40cHy53V9oEcmYfbymac20N5e95gb7YdB96dQ8u8AAAAAOAhWVnkdCbMY3kuInk/Mw/tQ1kejbXl4K6Dw60VU79cLC9QGnmSZhi1h2ekegEAADtTnUN9VQA7eq+60Am7YnsURXGpleWws2X4tt9gdonqKE0mMlGlcgGkQnsAAAAA3I8wn3UjB42niOuxgXn4UMx4ZOWYpE5a1zx9MHt73Lb035qc6ZOqsVvh28SVAfd7lqV+mcrgtJhyJhLvtDCJq+EKtul9s/HnkNZTBQAAfPwqAuqrA9jRzZXJZ64nsJe2B65YlhWX6m/dFXPYnd9tZX4jz69uywnJFAEAAIDdKyzsuDTbV21rtVrS6qQBzUgCz5WOfq2lxwZpjms1Fohf65jZxOlzVdKd6/Qd6Wu6ZPvUyvUXRekxzXhEF72PjutJsCbOGQWeuJ1C3fjYbuVxdmmj46bXuVWfMzzyOhXXbdlGx9X50nUxT4vylCp6eNdkstTuZalfpgM5NSeQr9fVZBKXul/d5Lql9012PdbcOHe55wAAwNNVPUO9TiH3eXUOvdXyxU7vmMMuCiQwncC8Y/92JwF6AAAA4KnIZtQ2LaZe2fTqUlzXrS6dTh7wXjvbNxKvY0lvMM4m4axkvhm7sKpS+pouDdOJBG5LrOyYtjiOE9fXpuOB9LKg/rL3elJQbyBjVdlW9eK6esN0LAOrOni/C0/9uPqaZ7fFFgt+Vt6fq4qptyxP/TIdnIqnxonZel1rx4jmftUXQ1P3jOOY+1Ffj54lnZoLcpd7DgAAPHHzxvy56qbMdRVdHN+8XBKGYVyWhMO56l4s1/Uds097PqyoViUc2lk7dD3Hb1gRAAAAeGJms1lclhT6143LYkd8oX+/rthDf17Z60778/ZwPnTM+21n7ptxQT40SI9X0e/PxgSqnnlpWU39wnWwl3ecnePCtux4adHtNdtihWtTN/DZxl2O2+AaZeMk9Vks7na351scj9nbXJ8737tl4Xxol95fvgYV/PR+XboexXOsuF+3uecAAMBHo6X/T/3Hfo3kL/fp5HTVMZDJRtPBC/Xt4WL+Pf3VxXhqgy3DcNJolrn+iuLl9a3MZmOZbt0mAAAAYP+9e/cu/vnixYv4ZyYKxLu8llvztJHDs0JaR51CxaTssB1x6maDqz53OoFXv89/O5Jusdud9ecNx5dw1K3Mt50cr6Lfn+1D7X+u9p+8WlJTf03dSF2nMFQPLEu121RaaHP1OESnT7H0AKY8frmLuxy3wTVaX1e76/nm942emT7Z5pvHd753K0SedKw8HWjVOS4ovN/x5xUz7AtjWHWe8+IbtrnnAADAxyMOq69U+mv/FjMQVv51P5st0XyGepHv5LMjtpkcAQAAAOyz2hnqd7bBTNqFGcWlGdLF2c8rZwWnx7vHGepqQNBoSFFoc9251872vou7HLfBNVpfdwfnm+5rl9dlJwrj1gZtK45RbceZOxXFrtvfNvccAAD4aKzNoR64+cx01ZGIZ5tsJpDLdAf2iRyEOv95obyfJduU2xvzWtQ8YWB3dC6qYx0bX6xefAcAAADAFtp9mZg81Xrh0OvK5NB2gwUg74Fq29uhHT+cjntmQcmOuJ5eGHLd6MCWk+PHmEH8dI8bmfGbfXL88J/1DoW36SB3qu6bsYwrSvptaJneip5wnrnTPQcAAJ66lQF1vdp5/s3AHXzVcTqQXq+3WLJo/VTGA/PaZaG7Ei9AqkvdQjRdeZP27csdHQAAAAC7YR1KEkIUGVdF1O0TeZQYsdLuTyQMfRk6poVTPbbQC0Na0mp1pOMFNWOJIzl4lDY/4eMenMQLcJ4cmOdPne3I0PfFX1nOxDJvT21/zwEAgKeuNqCuc+hlq53r3HBbB9MtOTSrx1cWO+2W676Mee0w765ENxcm+H5JsBwAAAB4LO0DqUuzvg/a7a70RxOd0lLmYSi+P1RjDb1lKtNBTyy3clr9RyWfdX1/2t2+jEYj6S8k0n96rMM0EC5y0O1Kd2VpV46FuecAAHieqgPqgZssSBNbtTBQE23VyRjFna7Kcp52y205OTOvVa4eM5P3lX/ijyTLGmMfLs0cAAAAALADwXWygKliFybAPDa9AORS2sh2W7o68DuZS56p5lo+7vBmINfpB4S12gfpOLRunKlEnriuq4q3cO9wzwEA8LxVBNQDcRdWgL9LMP3u2scn5qulUxlcVnRHgss8x/vRwZPO4wcAAADspWhxjPA4+b9rpN9oPb2pTLHRzfJDfiyqAsCReJ1e9gcPNNB9Y9biqhlnKsHlIMmnPtPfuy54dvccAAAoWgqoR95F3hGzRW4v9V/k60ppEdDAlU6nE5edfbut3Zfz7C/8PWl1koVe9KwAz1XHKgb/zx4z9A8AAAA8TdOry4q+flo60rIKwVrnXCq/UHoXWXBzLD01kIji/r4qgZ4hXBpzlGQTcKYDOY3rxi8rSf1svOC82c1EofsY8zSR5bBPAsD5aapxUcfKJxndKx24b0lLL8L55NOZdOXMLCyajDNdM85MSnE9Med8Mf3pVvfcY903AABg51YuShovrFJa6XyxLC8COlV1dNml7igUP1vsJVnoxVKd+sFYHSt+Uc+kn+y+Yw8AAAA8B9Oqvn5a8r697fgSju5jEsticNOK+/uq9Abx7OCV2n15a+pO47om4NtK6sett4c7bfd9jHnWiicaFa5RfI6q6HGRaoo9DCVMryEaiRcWTa+Z+h1IxplJSdcT09d16dbZ8p57lPsGAADs3F9/o5jHsT/921/kw29+Ky9fvmxQDuX161fyqakrrT/Kzx+SuoevX8urbMMKWZ3fSafzSqzKOp+K9for+fKLT+TDj3+WX3/+uXxuSvfrkXwffCu9JscCAAAAnphffvkl/vnZZ5/FP3enJX/8+YP8dqmPX1H+yz/KP373P+TbUyvv+6fS/vzvOtJ5VbE9kx6vut//6auq/n5Xvj7/O+nFb66vr+t+8+UX8smHH+XPv87HCnH90ffy3be9xdSQ2RikNJ4pyMZF5fOK6/5ZfvjhJ3n5t9/I603Syd/luEr1mKgro3/+Xr7ttde0efvj5v4k//aXD/Kb36p74vC1vG404HsohbatvRdztfdO92sZff9dfF2rbH/PbTBWBgAAe6k110uSAwAAANhL7969i3++ePEi/onHF3kdsa5OJJwspgIBAADAx291yhcAAAAAQEEkN1dTsU+OCaYDAAA8QwTUAQAAAKCp6EauZCjnLOAEAADwLJHyBQAAANhjpHwBAAAA9kdrNpsRUAcAAAAAAAAAYA1mqAMAAAB7jBnqAAAAwP4ghzoAAAAAAAAAAA0QUAcAAAAAAAAAoAEC6gAAAAAAAAAANEBAHQAAAAAAAACABgioAwAAAAAAAADQAAF1AAAAAAAAAAAaIKAOAAAAAAAAAEADBNQBAAAAAAAAAGhgdUA9CsRzO9JptaSlS0c9dgOJIrN9BwLX7LvVEa/BfqPAlU4nr9NxPQl22B4AAADguQh0X1/38TcoajhgRGqs4IpLf9x4ztcjEDe7R1z1bJ38/W6TQeAeCrz8fBufQuTl18lbf5V2JfL0GFodM//l3UCkzrU0Btfn/MA3+VO63gCAj19rrpjHi9R/fDrWQKbm6SJbhuFE+m3zdFuBK63e2DxZt0/VQe1YMqhskC2OP5FR1zwFAAAAPhLv3r2Lf7548SL+uUt6ckvWHW/I8eem3x2I2+rJeFdjgyfvOV+P/6+9+wdtJdsXPf/TvQc6aCbozZ0OBrqTqzIcb2fNozel5IQjbTbslzh5/fCFhqrsSJfGL3LQw/WjAyfS60gK3mCGgcbJ7GBcdeDCzSS48E6m7cBVdMM7QQcN5wxNJzvSrFW16o9KVVLpj23Z/n7ohWWV6q+027/106rfSs7dcDyZLe2cZa+3+4GMH+XFyp3zyvONZf/eHPFmQ7mv7ms4aImlO9I1jzOjzrGlzrE8KSC22t743jrhj+d6AwCevooR6uqPVZpM18nqQIIgEK9vR8+IWtKz6ow8WCaUwXn0162WcHCSJtPtvhcdT+D11dFpExl1tj0eAAAA4JmyHel7nng12qll1nkoYSi+76sWqh7Flna5rYeyj+cwOq8/ivjRasvQc+KHo07uzo0Kvpt+eeV4jyG5qwe0Jcl0W5x+nBPQfXDHpAUmdc57Z5769QYAPCp6hHpR0Lf1qPWoOZ550sgvs/uBeXZ9+e3EzZ5Vbi7oz9Tf7PJ9LlsGAAAAPHLT6TRqd8FzTCxu92frR9LBLPC8mafavUbhnmP6D86s0FVZ3y639RSux8a8mRMdQ64t/Uxlr3/sfbj039DS65+7PsUO9j1I+97r7Dv9XC3mBObOZ6P/d2zuMVxvAMDTVzJCPZTrq3QouJwWvsptvj42o8JFJjeBebSmcCAnZri5bSdbqxZeX5nR8o6cFW8HbB7IkXm48fEAAAAAWFNTmu22tFV79tVeIlyPOZOeXDyDW4jbQ0/1UrWRdCqGTfuuKVWiS4/cW4mU7fjvkrvJHXm7cMiWHGZJAbnPXvhTvd4AgMelJKEeyI3Jp8vRwWIwmEtgb8q/MOVk7L5cnq3aWi7B77wtuVWrLUN965lu/LEEAAAAgIfjeJJV5ngOZTnzpUhKSt2EA0kqndr900dSeiSU26l5aB/KYpWnphxsmxTY2FO83gCAx6a8hrptRyPHncOSAonhrWR/WxeXh2EYtUppLTNb+pfd1aM3wmvJ8unZn8O5/TSb6j/V4t8AAAAA7CUdw5uHRSa+X9qX2DtLzmeZ5FzNrw8iOYY7OIj2aTLX1UjOd1BMPflc7O0noz00XyJMpHcyyB1nKIOT3GCyupOv7uS92Wb9pnQvzaC1cVmf3Zd0AHtpwv2O7fh6b/z5Stbb/EIDAB6pkoR6W4bjsYxVG5b8AcrKr+gB7IXlviuWZUWt/O4rX9x0ZpCzjWa+D9U+Wo1Gup9GoyXu05/xBgAAANgzKrZXcbmOx+fCcRWvN/TzrSTRFYo/iGP4RkPH8POjlsNkmYnv4xi/IS13IH663WRfqiX9CV3yIXlOt3R/q6y5rdrnU349wkErXl91kJK+THqu0XZdGWQnWtOm10Mdu9sqXG/9etWnWvsYlmh25bIfp9QnvZMNJyiNj1WfS/K5WHq9kvepUTYqPne9yq5LODDvZ+GzvIa0FMmkJydmI+HgROJKp3UGk23w3qz5b61Ueu7631zu1UsGrWUlVXS3vsYguTuwq+td+/OVU+//WQCAp6x8hHqVXO1z9aezpJbacuHg3PzhXaOWWXBjEvi2HN66YqmAUf+e1V6fyKhnSWvTyAcAAAB4pNKRlXWbWa9MUPb6tJkXrS2UQcuSTi+O4Yt8tyFWuswWx3HSOH8y6kknnxA0d9EmvYBI8pxu65Sg2Hhby89nqVEn7cvoc1W7iU1G0utUDUhaIjlW82skeU63hXMwxz6a5I4hPQh1eKpPtfZBVGt2LyXOqU+kt3Yx9exYI+o4Hcecq7leC/0/69Bci6ncFj+v/rs0ASyTK7kuLE8HjdnH8nrj7HBWiiT6EsHPzRvWv1wxmGwX780Gn02dTLfiEd2248m4Rh9d/5tNvsPR66xbdbX8/y9Lmllv0W6ud6TO58tY6/9ZAICny0xOWsP8zO1Vk2UHQRC1BUF/pv7MLK6bzh5uz0oneM/NLh61uVnEg5kK0pavDwAAADxi0+k0agty8XXtVgjiPafkNaXNUb2BoqR/UIjDk/hdxe39ZPu2Wt/0E9KuQu747YVAPut7LCxL+wdlx7SmOtuqez4V1yPo22YfZpmXX+jl+jMbnk/N65G917bqj+WvaTDzcse4+F7Ukesr5j9j6bEV+49L3l8lO1Z9nc2TRnY9i/2/rG9Y3Ob8e7DYl033V1ywtnz/1LS5/mu5jd+bmp/N9Pzz55f/91fzvPPXse46c3bw/6x5217vdT5fyqb/zwIAPDk1E+rzf6jW/wORW7/4By4Nskr+YGm5IKw0SFz6Rw0AAAB43KoT6t6s7zgzZ51WiJezxNKqVpasLU8gz8fvqjleeYIrfV3ZttXpqfPzPNWyjHVsxXprqbOtuudTcT3yScjS3OC2/Zk651BjH3NJRvNcfRUJdaV8u0uSj7ljLc+l5vqWhRek13quz5m8Xr0vfXOt5tbLjqV8f2vKHX9lHzdvm/em5mdzIaGe32ftk869Z5teqB38P2vBFte7/DSqP1+r/q1V/j8LAPDk1EiozyfTF/6o1LD0W970j1LFH798kFC671zwVuPbaAAAAOAxqUyo70CaqNsojk7i8EIcn4/fl223kNSrvf8VSa211NlW3fOpuB7lSd68JYOP6qhxDll/rN55rt/ly/XJiiuXJoxzydlCJzDfd7TLEqyq2VXXK91X7jyT56LXJvvNLd/l5ymy3vu51XtT87OZ7kOvnHs/1jrnZF+bfEbv1KbXe5vP15r/zwIAPDkra6j7rmUm9lDsvgTrFkkTXy6SDdjHchD44vu5djuNlyk31+a5sLxemX1YNn+4JYfqrxoAAACAfbJiYsD8xJW6vng0IWBL3IGe2K+6cvLDqTPR4RJHBxXrNuVgnfrvGwhukv7Yoeo9VWi/jSd5VKYLRci3sOYEpemxykR9LkYyKmmT9CU3EpiHkeZrOY52NZJ3ppB1Uh/dPn6trnTSd8zqrIdJf9R5K+v2dHdhN+9Nzc/m9DytmR4byXnNuciS6xRfx8dru8/XY/t/FgDgrixNqPtuK51wJEqmj7ecwXvSk06nM9/SbL2eXNQ8d5H7s5VOLlND8Q8eAAAAgIdRY4LHZncsQeBJ3zER/0T3CfTEfpY0Gi1pDfwlkxLes60mrFzOSkYI3XV/pjKpf7ea3TOTEF5jglLbkb7nibe0nRaS0NmXEyOTUU8SqEcH+syb8jrKuE/kKpqZNJTrq3i58/Yh0uk527w3dT+b6t+XPlvb8dS/u37Uz67zJUfk4DiagPP4wPz+2G30+Xpk/88CANyZyoR6ONDJ9CTZ7Yi3cTLdkkP1h1f/8S1t6ezl+m+aeS4/Er15ILUHbCz7Vh8AAADA3mk229IdjnUpSpkFgXheX/UR9JKJTHodsdyaCdh9N72tTLTVGqW8C0uOQcJbSe4djpPPu9SWoWfGWI86suwtzb5cEDlot6W9tDUX+qjtt2Y/0bn68i4aIOZIki9vvj6OE8lX1xKG1xLn020pvRn6Pt3Te6OT6eNhW/27S0ZbT6R3MliZBG62uzIcDqWrrvljtu3nS3s2/88CAFQqT6j7rljpyHFHvNlwi9vfmuqPzTD641vazpJ0uS3Hp+a5bv7PVlbSJQp64oc5gaR3bT3QiAsAAAAA6wnDknKPzaa0deJuPJMk/yqjd/Ik0lOVo89DSatg3lF/JksiXkk0MLtMcKNzjModJZfbp2KqZcjo/DxNEBc10/o3WVmWBeFAXNdVbbD42UjKo+hzHbyTOJ+eK+eSlIXRy6/NOd/h3Qer3Ot7Y5LpifTOgUlPTmqWfnnstvl8Pbv/ZwEAKpUk1H1xszov0g+2SabvQnJbnqL+0C/cIeibIEl58Nv0AAAAANRzfR6XezwpGzSTG2n8ZIykUzZy1b9I56y6q/7M6pIruT7gnSWXm9K9jMuMJKVHSqX1wqvLw/gXvbje9VQPvypqS/zRUev34nOan4srKQuTW/6AdcEf9r3J7hyY9C6eRxJ4m8/Xs/t/FgCgykJCPRycpwlqHe3cXOhvZqta4dYw35VWqxW1Xd7llAUZ+g5Bve1QwlA1vb80uOjLKfl0AAAA4FFISm9Eo2NV5yEb9Knj/EEW5xcni0wTYnGCOuoXRH0DPap0demKObvcVh2jjrT0fsyvc+epjmSjfHqtc2jLaTo8vCONVjyJYvq6Vsf0AbeceHWV3KSO1YrH6mbHqlp+ni/nrPxY5xObthwXstCrlt+vB35v2kMzsrriC59IKINWQxp6Es7K1zwWm3++Nvp/1h3lSAAAD2xWEPTtmX66XnNmnlkv4jnpMmduwRLpOvasH5jnygTezLHz+863FesCAAAAj9R0Oo3aXfAcE0/b/dn64bSKz8ti8SS+r7HNlX2Pim1UrrfBeazcVu3zKb8e6fYdxywva9v1Z+pej+XXe5tjSM5dtZUdwdxrVbMrdrr8WKvXiwT9mZ28tvR9yx3DBp+Z5YJZP+m3rrHtjd6bmp/N7DNY9d5k16P8Jblzqt3Rvy93cb03/1wuHMMmORIAwN77+28V9T/31F//9pt8+Phz+eKLL2q0Q3nz5pW8MOtK40f5+UO87uGbN/IqXbBEus4fpNV6JVbVOi8sefP1V/LlJx/kp18/ks8++yxq7W+G8oP/nXTq7AsAAAB4ZH755Zfo56effhr93KXGjz/Lh89VXP+HlrReWVlcX0tDfvz5g3xejOOT+L7GNl+8+lq+/epL+eTDT/LrR3F8H7e2fDP8Qb7/rlM6Ilev99WXn8iHn36Vj/LrnP2TdCo7FOVWbqv2+ZRfj7/++3+X7//0F5Ev/kX+xw//KTrXP/1Z/R6xxXaG8m8/qP7MFkOP616Pquu9fZ8qOXf1WTp8I2+WdgRVv04d68+mz/mHVktelbxnlZ+N9jcy/OF7+W7ZBXvxD/Lbz3+O1zv+L3K6cDwN+Z1a/lO0/D+q5bssGv9X+dtvH+TjNf9dbfTe1Pxspn38yvfGkt/rz496jfzd7+T3C9vKndPK9/e+7fZ6r/p8Va5X9f+sTXIkAIC919BZdfMYAAAAwJ55//599PPly5fRTzwu4aAlli6S7ngyy00ICQAAgMepZFJSAAAAAAAAAABQREIdAAAAAAAAAIAaSKgDAAAAwJ05Etu2xTa/AQAA4HFrTKdTaqgDAAAAAAAAALACk5ICAAAAe4xJSQEAAID9QckXAAAAAAAAAABqIKEOAAAAAAAAAEANJNQBAAAAAAAAAKiBhDoAAAAAAAAAADWQUAcAAAAAAAAAoAYS6gAAAAAAAAAA1EBCHQAAAAAAAACAGkioAwAAAAAAAABQw/KEeujLwG1Jq9GQhm4t9dj1JQzN8h3wXbPtRksGK7Yb+gNx1THEr29Iq+WKv8uDAQAAAJ6CcJDG8K1VQfa+810V96t+iI79zVP1hao/44rrDlS/wTz1XJVex/LrEw7Ma1Xfbz1+1F/T+7jfj92ev89bfYYfi1D86HOT9e+jz8Gz/4cHAHiKqhPqOgi3OtIbTWRinpKJejzqiGWtTn7XogKLzsg8XiEctMTq9GSkjiExmYykY1mPv5MAAAAA7FB4fZXG8JOra3ns0fJE90OybsAaArkZjWQ0upJb88xztngdq67PNH6t+W0t0T6m5pf7sv/v8+af4cdAf5FiSac3yp2jPt+R9Dqqv772FzMAAOy3ioS6+oNo9UwAZYvjBRIEgXh9O3pG/3HsWdt+ux7K4LxmNt13xeqZv8x2X7xgJjN9PE58PJOeJfyNBgAAALRQrq9ymbtJTy72NVYOQ/F9X7Xw0Sf98Uw9+8+w6te3OjKK/pdji9OPcweB1xfTXY8G5dFfBwA8JaUJ9XBwLkmq2/HGMmw3pdlsSrs7liBNqo/kfIuR4eHgRJIc+XL5xLsj3rgr6nBEHZC0h2PxnHjJ6HxAEA4AAAD4Fwtx9ujdnmazggvpdDqqXUhgntotS049TzzvTF7rPgQKnsr1ecDzuPPP8J7L/f8myh1049xBs92V4dhTPfgY/XUAwFNSklDPjWix+3Lajh8mmq+PJR2nfrNhyBAO5MT81bXtZGsVwmvJDudUCocj7dN+fDyTK7nmLzQAAACeOf+dGYyiYvl+Mhhm9O4J125eRif22tJWjXx6madyfXifH0r6/xtx5G2xsy6WHGbJg+f5hQMA4EkqSagHcpOMaDk6WAxImgdyZB5uyr8w5WRUkH95tmJrwU1au+/ooCQ8So9nIldk1AEAAPCchQNJbu60j19LNx0Ms93dpQCwKJTbpFy+fSiWeZhpysG2yQMAAPZQeQ11245GjjuHi38SJbyV7G/m4vIwDKNWKZ2I1Jb+ZXenIwg2HjEPAAAAPAHZZKS2HOvaF83XcmxGiG40OamJ7avXW7U8s7KfsK6Vx7aBTbZZtY55fhvRdsu2vYpaZ9d1vcNQb0+1Lc8psfG57cJD7jtvw+PYzbXT2zAPS9TbR1O6l6Zm+risb+9LOoC9NOEOAMDjVJJQb8twPJaxarr+WVEWpJeMGNeTh1pW1MonHfHFjbPpIs6ZlGx+O9Pbhw+KAAAAgAeRL914bGpJN+V1llGvLpGo4vhGo6GaG5eGCQfittTvJra39LKWK8VB7npepHi5Wa9K2k84UdtQfYJoX6olfQMZSSd5LtpXdb3l0K93bLFkX6355Rue7xy1Tku/rrCOTjrnt7X+ZIyhOrxWdHzxNcsdj7/sgBR9bc2+47re8botdRDla1Zcn5xQXSt9npalt6ea2rZ+vbvqWEptcW5L3eH7XCrZn2p3/hlObHDtkvNPj0VtYxC/n42G3kbx3+0G+9D10nUzv+b5biebm+1st4PpAAB4SOUj1KuoACSpfV5eI225bLJTR7xhzZWtw7Rm+/S25I94bsQ8AAAA8GzlJwfMJa+a3TMzMeBEehc1srs6CWf1ZDSxxXYccVSL4vHJSHrWfMIy2/ZIquc9DWWQ1KFJBtWYO2KTOD+SPKdbRZmIW3VsVkcfm3r5imOrbY3zTZl14sttq3XMuah1dNJ5pK6K3o5+fj3qWrUs6egT1NS1yG+717GkVXmSvriW2nfSXbPV/tX62mTUUdctSW2uwawXbdIcS2yiFi07ljLbnNsObPI+L6M/p7qZXyPJc7rt9DO8i2tnttEz7+eC3b4/vtswd6br8/SkbvcfAIBHYVabN1PB8kyvopvjmacLgiCI2oKgP1N/jBfX9RyzTXvWL1ltbr92f1Z8ieeYZVFz1KsBAACAp2M6nUZtlSwuXoyJly2LpDG5aQtxdzDr22ZZoSOQbrskVo9U9QO0dL9L4vjisenXzu0o119Y3IFZVuhrbHG+c8vm1lu2Tj1z71PhYgZ92ywr7zdl6xaX544r2bZZUnV9sn0tLpvfXnFZxfVWtjm31e7ifa7pzj/DevWq9VZcu2S/6rz76b9TvY24z57vtu/y/cl/fuxNrysAAHus5gh1/W11druW3Q8qv2GObvdSbZ5a/ySbiPR0rW+n23KqopzIpCdWdLtZXL9v4LakM9IjAOLFAAAAwPOUq1XsvFUR9Lz2W8c8WjaSPOGIt1APOVc6plBmsX3aN6NYy0vK+Beb9gPK2NIPhtKeO7hcf2GjEpDrna9IIDdmEO98GYumdM/MdR69K5TSqCHMJpR1vOI56rsBLiU+zZI7DXLr2v3LQmlNdVxjz9xJsC59vcdLtjeRq8o6QjnbnNvOrPs+35U1P8O7uHaqH93T23A8CcZ6G6ZMS7Ktnb4/vlyYW2X0yPQxQ9MBAE9QjYR6fOtXVulF/VFcs/i5rq0Yr7/ZRKTN7li8JAKMbjeL6/fpoMDxxnKW3E7HRCcAAAB4hrLSijriFjMhZa7JYZpQHZ1X13bWooSaeVxLOvFpWbItS/Tbx6/X7gcULSaLt7f2+aZsOdxh5yM/oez0nSuuW2wXchUtV4pJ1+AmXTeajHZBLmG7jrQWf1Fbku9o6kx2u9W57cjm7/NurfsZ3tm1s/sSDNul/wZ3+v747+L/F6n9XZJMBwA8USsT6r6bS6abP8Lryb6h1gHZQVAI7m+zCug31+a5kunG28OZBF4/qgOoa9I5fU+CYCzDdii5TQAAAADPTG4yUkXXy44npMy3XppwXzo5qaw/T5Ie5Vs5MjtJrqntnm2dCa9KFm9jk/O15NB8gVAcnR0mHZMNBvoEybB3td3JaCSjkjZJX3IjgXmopfuVIzmouETNg4qi3sscHWz9JYi2zbntxibv811Y/zO8m2u3fGDbLt+f5LO4iy/QAADYV0sT6nqG73TuGp1MX7hFbk2T3mJwn2brJzLqmecuyv9EN9tdGY7HMlZt2G2bW9SyWy53FfABAAAAj0Z4LVk+PR58Ut7MS1TcvfOyGu23ZgR8vqRMmJuMdLEMzfqqk8X3K/sCYdKzpOUOokFBuhylZfo2WyUTbUf6nife0nb64HfmWvG3CisTrHMeybndnS0+w9tcu8o7DQp28f4cHEcTrR4fmN8BAHiCKhPq4UAn05PIvKzeXF2WHJrZy0tbFtmrv9/mucK9k2EYRq1UeCvJeAx7l/dcAgAAAI9AWqNcj0IN4sEn5S0wdZCVTWp8L5WVFElLyqSJfnVc2xdP3yv6/JJLORnFg4Z6pu8U1Y3eYDR+lqAWOWi3pb20Ndfum2Wj2NewpLxHOqq5xmj8uz63p+w+rt0u9xENghsOpVssxA4AwBNSnlD33XR0RZRMnw23GFHSlK76g6r/qJa2rAC6HJ+a5/IBaDiQE8sSS7XWYDGcy9d72/0toAAAAMA+y09GeraiNnOuNMvcSPLdaL4+jpPMpqRMNhlpzdGxj4XuK3VGMtETPAaBeP1+PCio74kXzDaehDEryTKV26ostuobxTWtB3NfiGTrVr+vWVmPNVSOPs+V3axxl/A25/bc3ce14/0BAGA9JQl1X9yszks8A7n57UE0DyT58z65KYRzOtmeJP5XdiAAAACAJyatUa6rqtSI2tPSLLmR5LvS7Eqcr9clZdw00e+cbVk2cs+kI72nt+qcm9LuxiNydUnKrQblpu9NdUke/SVFVNNaHcLcqPD2aXr3Qen7qvpNSfWd9Yzk3C05Fv8inWdrvc/dBuf23N3HteP9AQBgLQsJ9XBwngbleojJjQqG42+iy1ohWPNdabVaUSuLuzaTm5F+1JGW2nBUAkbvy8rd3nr6oGl/AAAA4J7lapRL3UkXc7H10slJN9N+G6flRCfeogcrjitN5I2kk8T5UayvR8PuOOG/I9lI/J5YjYY0GnH/J26mnzTQ5xK9fA3z/Z6G2pafXA/V8vNbLX5Jkbv7QB9Xa5CtO9dvWp+e5DaqE59sb6C2lxyI3Zd63bBtzm3P3fln+D6u3a72of6f1NL/JlTbXUIAAID9MysI+vZMP12vOTPPrBfxnHSZM7dgiXQde9YPzHMLgpn6+55ue74tWw8AAAB43KbTadQWBP2ZbWJie52AuGy9NCYvxPc5aT/B7qvovMp83F7nuCr7H8l+tjo2b+ZE6xb6DFueb70+02b9lFXbXnZNl63rOGXnXH590u2odeLlJc0uu3YV19vY5tyWu5v3ua7K89rJZzi20bVL9lvz3LZ/f3L//msnBAAAeHz+/ltF/cFL/fVvv8mHjz+XL774okY7lDdvXskLs640fpSfP8TrHr55I6/SBUuk6/xBWq1XYpWu80Jeff2VfPnJB/np14/ks88+i1t7KP/2w3fSeVRDGAAAAID6fvnll+jnp59+Gv1MhP/+7xJGcft/FuefOhVxdIkX/yD/m4qrP/78C/n0f/1Ufv/KkhdpTF6I73PSfsIfWtLS65jn572Qf/jtX+X7P/1FPbblm+9PV/YJXrz6Wr768hP58NOv8lES53/Wlm/O/kk6+qS2OraG/PjzB/m82NfYYpu+25BX//UvYvcD+Z/+f5Nvv/1Kvvrqj/LHP+qmJ238D/LxT3+SP//lL/KnD1/Kt2/WK5Chr8e3X30pn3z4SX79KLkeuu/zjQx/+F6+W9L5ia6lWvcf59Zty/Df/of8c6vsnMuvT3ruh6cy9P8on/z857ljaX8zlB9G/yxfxi/Pqbjexjbnttzu3+d13O1nOLbRtUv2W/Pctn9//ip/+y3+f8sXh2/kTa2EAAAAj09DZ9XNYwAAAAB75v3799HPly9fRj/3XThoiaULbDuezDacoHNvhQNTPsURb7ZkrinflYaukWH3JRg/rRryAAAAz13JpKQAAAAAUJcvg5YrA98XP0mmP9U5jpoHchQ9GMk7v6I6dqiuR1Lb/uiAZDoAAMATwwh1AAAAYI/t/wh1X9xGx0xCajzF0emJZPR5xBbbzOUYmUyyyT9tR7zxklHsAAAAeJRIqAMAAAB7bP8T6qH4gwt5dzWVqRzJ8dmpdNtPfFx2qM75OjnneUdHR3L49hlcAwAAgGeqMZ1OSagDAAAAAAAAALACI9QBAACAPfbYJiUFAAAAnjImJQUAAAAAAAAAoAYS6gAAAAAAAAAA1EBCHQAAAAAAAACAGkioAwAAAAAAAABQAwl1AAAAAAAAAABqIKEOAAAAAAAAAEANJNQBAAAAAAAAAKiBhDoAAAAAAAAAADUsT6iHvgzclrQaDWno1lKPXV/C0CxfRzgQV6+/ormDmhv3XXVMrvjmVwAAAOD58XMxdp3YOHt97bgbAAAAQKoxU8zjeeFAWlZPJubXebb0g7F0m+bXOpZuL2P3Axmv3HAog5YlvYkj3mwobfMsAAAA8NS8f/8++vny5cvo5zxf3EZHRuY3cTyZDZdFx9nr68XdAAAAAPIqRqirQDtNftsqLg8kCALx+nb0jKglPWvN0eHBTbq9vueJV9HOXq9OpvuuTqabXwEAAADERufCwHMAAADg7pQm1MPBeTrKxfHGMmw3pdlsSrs7liBNqo/kfKNo/UgO2m1pV7XSfLq5NTUqPWNJJx2CAwAAACAzkd7JQMipAwAAAHejJKEeyvWVGf5t9+W0cMdo8/WxpOPUbwLzaA32oVjmYX2WnJ6dyZkZxd53kiMAAAAAMGfSkwsmGgIAAADuRElCPZCbpJzK0YEsDBhvHsiRebiO8HZqHm2iKc3cKPbXh+ZpAAAAADHHE8+JH446TN4PAAAA3IXyGuq2rf6zxTksGUse3kqSGrdLlodhGLVKOkmvlvsDNyrj4rquDHy1jlkMAAAAYDPt0765m3TT8owFJrZfFt4DAAAAz0lJQr0tw/FYxqoNS2b9D6+vzOSiOjdeWO67YllW1NzCkJjADHu3p+fSUss7vZGMJhMZjUbS66h1Gi0mUAIAAAC20ezKpZnzaNI72TC+DlVYb+YvMrG9Zem5jFoqxidgBwAAwPNWPkK9SjiQk16STnfkbaG+eh2TyUQmYovT9yQIAgk8x4yimUjP4tZUAAAAYBvN7qXEOXUVX69dTD2UQcuSzkjH7Fp852psIqOOJa3iyBkAAADgGVkjoe6La/VMYK1LNA5lIZ/eHsZJctWGlcl2R7xAj35vS7Opa6MPZZwUe9zVrakAAADAs9WU7llaTH3hztFlfNeSePyMreL9QGaz+M7V2SwQLxn5rrbZImYHAADAM1Uzoa5HqnRkZH6z+9UJ8yhJrlpR+zROtAezobSLi9unZhSNCtCvrqmnDgAAAGyjPVx/gtJwIOcm4Lf7lyrezwftTWl3x+k2J70L7iwFAADAs1QjoR7f9plVevFkXFJbfSWTaC9fsykHR+bh5EYC8xAAAADAZtadoDSbK8mRs4p4v/02u7P0HRl1AAAAPEMrE+rZbZ+K3ZegupYLAAAAgH2x5gSlwY0J+u1DseJHi9pvJUmpT2+5rxQAAADPz9KEup7dv5PVeZFg3K0YYQ4AAABg3zS7ZyYBvsYEpUcHxPwAAABAhcqEejjQyfS0zot4WyTT9bYajYZqrYqRMaHcTs3DZSNiAAAAAKyhLcOsmHq9CUqnt9VzGoW3koTtRwek3QEAAPD8lCfUfVesrGi6eHoiUfPbJppZgXS5KS2QHkhyhykjYgAAAIAdap+Kqfwio/PzNCFeZB2aF02u5Loqox7cmDrrthwyCgYAAADPUElC3Rc3q/Mi/WC7ZHokV2txdD5YGPESDs4l3qPa3yk12gEAAIDdaUr30kxQOpmYhPii1eVhcv0E+1heMwoGAAAAz9BCQj1Lbisq6r65cMV1q1ohOe670mq1ojZ/O2lbTpNhMZOeWK2B+GEoYejLwG1lo+GdM+kSmAMAAAC7lZugtFouZh91pJHG7Kr5A3FbnWwQzGWhHGRlPwAAAAB4WhozxTyO6HrnWbmXVQrlYFQg3TCjVhxvJsPCYPN4ktOKba8x6Wl2jNuXowEAAAD22fv376OfL1++jH7O88VtmES348msGIDPyb1WsfuBjEtGsyzvD+g7WMeLg2BW9AMAAACAp2Ixoe4P5OLdjfltlUM5HeaS4OFA3It43cPTYelo82j751e52o1Hcnx2Kt12nVR6LDvGwv4BAACAJ2Z5Qj2UgXshUQR+eCrDVbd76pHmJtY/fLskBtd3kl6cy1Wu4PrR8ZmcdtvlsXeNfgAAAADwFCwk1AEAAADsj+UJdQAAAAD3qWRSUgAAAAAAAAAAUERCHQAAAAAAAACAGkioAwAAAAAAAABQQ2M6nVJDHQAAAAAAAACAFZiUFAAAANhjTEoKAAAA7A9KvgAAAAAAAAAAUAMJdQAAAAAAAAAAaiChDgAAAAAAAABADSTUAQAAAAAAAACogYQ6AAAAAAAAAAA1kFAHAAAAAAAAAKAGEuoAAAAAAAAAANRAQh0AAAAAAAAAgBqWJ9RDXwZuS1qNhjR0a6nHri9haJavIxyIq9df0dxB/Y37rjmuRkvWWA0AAAB4Mnwdr+tY2h3I+iFxqOJ9V1y1rk88vXPhwDXvjW+eWUcofrR+1udptVwZ8EYBAAA8qOqEejiQltWR3mgiE/OUTNTjUUcsa7ME9lSvv6JNzWtX8l3pjMxjAAAA4NkysXTtQDovkJvRSEajK7k1z2CXpvF7Y36rzxe3ZUmnN1Lrm6ei93kkvY61YYIeAAAAu1CRUFcBnNUzgZ8tjhdIEATi9e3oGR3M9SxXvWoNwU26vb7niVfRzl43o1ctF8rgnGw6AAAA8OyFofi+r1q4wQj9faT6Oq2OjKLOk+qL9eO+WOD1xTHdMT3IiZw6AADAwyhNqIeDc0nS1Y43lmG7Kc1mU9rdsQRpUn0k5xvVWTmSg3Zb2lWtRj49HJxIb/1hHgAAAADmWHIaDWw5k1rjWvZRcCGdTke1CwnMU4+af5H2daK+WDfuizXbXRmOPXHiRTI636TEDwAAALZVklAP5frKRHB2X07b8cNE8/WxpOPUbzYIWe1DFbZvIRzIiYkwbTs5EgAAAADr04naeGDLY82nPzX+u3Rok7wt9MX0FyCHWWfsaXyBAAAA8MiUJNQDuUlGfx8dLAbWzQM5Mg/XEd5uVNRxgX9hStHYfbk82+RIAAAAAGAfhZJ2m0oHIjXlgC4QAADAgyqvoW7b0ehv57BkLHl4m04capcsD8MwapV0kl7XORy44rZa4rrxTPW1bldMJyK1pX/ZZRQNAAAAsOeS/sHa5UmS9VS7E+n2ze9rupvjakr30tRMH5f1d3xJB7Bve+cvAAAANlKSUG/LcDyWsWq6Xl9ReH1lJhfVufHCct8Vy7KiVpwkJzDD3u3pubTUcj1j/WgykdEonqnearRkeUl2X9w4my7inEnJoQEAAABYi4qxGw1p5GLxcNBSv+vnXLV0iXAgreh1jZIJMkPVNYi3k/QPLP3aVjyYZplw4MbbTdZTTW+n5Q4kWzU5btWSPoKMpJM8p1urrMZ4fFzz29evb6lzWH5cWqj6O8k5J8cVrbvJ3FK569fKX0BdL10382ue73ayua7OGGAEAADwEMpHqFfJ1S8vr+m32mQykUk0W71nZqt3TE32ifSs6qA9myjVEW+4wY4BAAAArNTsnpmJL0dyviRRnC/FOD/vUiiDliWdkek36DtfHTuO+SfxYJpWxXZ9tyFWb2QG8Oj1VF/BzJs0GfWkk+8vmLtq52ZVSp7TbaE0SnZcyfaTbeu+yEgf1+I3A4ZeVx1bJzm2PLVuz5JG5boldDLdiq+f7XgyrtG/0dcm+e5Ar0OXCAAA4GGskVD3xTVBn+Z4Q1mI4drDOEmuWnWA54gX6NHvbTNb/VDGXjpXfXnQnkvkl+4XAAAAwI605a0JzydX1yWjvLWs9Ih9/HpupLTvWhKH7jrun8lM3/k6HMt4NpOgb5LjvZPFu1NVzH+ebLMfyGym11N9BbX+bOYVkvzZXbVZX0LtL3lOt+H8CO7suGzVp4i3H287EC85rlGnNNmfrauPzZNAncssatm6otatlVPfIJmu7xrIJ9PrrAMAAIC7UTOhrkdkZLcX6gC3KoaLkuSqFbVPTS3A2VDaxcXtU0ni0MWgXe37pGr0CwAAAIBda5/2zYjynlyUJInzd4+e5Wsx5pLi0UCYQtzf7F6auH8iveKGgxszeKewzUhbTgNPPM+Ts9fmqXXMJesvVV8mv/2mtLtjSfLyk97F/F2zuXXVSclYDwwyv8brJuckMjovKzOTs0EyXX95cWGy+STTAQAAHl6NhHp8a2QyIiMOIosBbg1LagHqQDSdrX5yI4F5qIWDk3QkCRORAgAAAPeg2ZUzk2AevStm1EO5vjIJ3v7p3N2j2XxLtkzfueK6xXYhV9FyZXo7n3y2DuMkvh6F7voLielmsy3ttmolg3dWyY6rLFkfayfD8tX+86ecP6d+6eiepnTHZvDQsv5KLpkeHUfdxLj/Lv7ywu7LJcl0AACAB7cyoZ6/vVEHccG9BnHZaAyxj+Ug8MX3c+12Gi9Tbq7Nc3cy2z4AAADwvKQJ5tG7+RHb/kU64OX49Xz6OLhJOg4TmYxGMippk/Ql8wNpdBL/Mld6JZ7EVE/4qScj3S7GT4/LPhQrfrSo/VaSlPr0Nttfdk5HclCZLTeDh6qWT89zyXRteX36vND0eYqldQAAAPAwlibUfTer1Rcl08cPOEJ80pNOpzPf0ky/ngjIPHcxF5YDAAAA2ERalnE++esnxdOdM6m8cdV2pO/FJVqq2+lCcrvZHUsQeNJ3TA2ViY7z9WSkljQaLWkNFkeur+XoYPP+zLJk/CrqPHTPRZdsCYK4nE5pHfkyB8fR5KzHB+Z3AAAAPKjKhHo88U2SsNYT/GyeTNfbaugRJioILg8aQ0kHm88FqpYcquBRB5ClLZ2VXwen5rnDjcNcAAAAAKmmvD42I8bTeY6yyUidt4t3rlqHSSJc5ECXZ1naystB6tIu3aGeLHQmsyAQz+uruF8vmcik1xGr1syfFYplZvLCW0m6JEe5oejZORVG1M8J07toq7af1D9vpiPxJ9I7WVFzXWm2u9HkrN2FiagAAADwEMoT6r4rVjr62xFPTyRqfttEMyuQLjelUWgg2Z2U+VEjTRVMD6MAsrSdJdu15fjUPLdJfXcAAAAAC5rds7gMipmcNJ2M1O7LaUkHIYv7p5KrmjIvHJh66oO5UjJhWFLCsdmUtk4oj2fppKELJWhqyJLiV3JddVzppKi25Mfo1Don/8LcRXtevv3CZKL563pSs/QLAAAA9kNJQt0XN6vzIv1gu2R6JFePsGzm+zQw1/sri8wBAAAAPIC2ZKXUXblIJiOtquedxv0T6ekMfAn/ohfXU5/q+1Fzrs/jpPRJMhp+XjZp6PrSBHblceX6QPaxzJWGr3NOybD9pXXW89oyNN8QTHoXa39BAAAAgIfTmOl7KXN0eZZ0dLpti3OUjMgocyinw1wpGN+V1nl8o+TR2Vjy85fOb7cv3uVrFUAHcn1xLr2ktIzjyWydSU/V/hpR4KsT/+PqGo4AAADAI/X+/fvo58uXL6OfRb7bMPMeqdjdWRa7Zw5PhyZ29sVtdGS0LJ4OB4UJNZffwTof96vXXma10oOLk7SspOPN5voL+f3o8iiXp7o8SrRAQv9aTjrmGBb6DMk5KGpZcGr2FlzLxTtJ+yvl/RFFv+68J/FhVVyHtN9hjk3tPz60UAbqnJL+jN0PZJxbOd1nRT8nfe8qlutzH7SseBLYytcAAADgXumEel7Qt3WCvWZzZp5ZL+I56TIVIC/wnCXbtvuzwLyutnR/9qy/9soAAADA/ptOp1Gr4jmFuLpGy2J1b+ZEzy2Lp4NZ386tXxboF6zqU9gVO1vZF6noM1SuV3j98u0v71OsPLaS65KuU3nNkutf3n9SW8iufY3rDgAAgLu3OELdH8jFuxvz2yqFEeq6HuJFvG426mVetP3zq3TCH31b5PHZ6WaT7KT7O5S3p11hnh4AAAA8NatGqIcDV0wIXlsWq4cycC/kZlU8nbsT9fiy5p2hoS+Di3O5ygJ/Ffofy9npa7WfJRsoW8/0GV5XTGSq1e5nlGz/6PhMTrtm1PkSus77xcm5jCZmpLti205lfybtWx2eVs71lL3mbckxhOIPLiTqni3ZBgAAAO7PQkIdAAAAwP5YlVAHAAAAcH9KJiUFAAAAAAAAAABFJNQBAAAAAAAAAKiBhDoAAAAAAAAAADU0ptMpNdQBAAAAAAAAAFiBSUkBAACAPcakpAAAAMD+oOQLAAAAAAAAAAA1kFAHAAAAAAAAAKAGEuoAAAAAAAAAANRAQh0AAAAAAAAAgBpIqAMAAAAAAAAAUAMJdQAAAAAAAAAAaiChDgAAAAAAAABADSTUAQAAAAAAAACoYXlCPfRl4Lak1WhIQ7eWeuz6EoZm+QZC35VWy2zPtJY7EL/GNrdZFwAAAHh6fHF1jJ60gW+eX0HF+fn13AEB9aMS9Yv0e+eqT8DjFvfxWqZ/l/88hqov6or7GPp7O38/cv8+Vf97tez1T+/fcv7/VXWu71O+FgCAfVGdUNdBgdWR3mgiE/OUTNTjUUcsqyWb/G3y3ZZYnZHezJzJqCedFdvcZl0AAADgydIxetJ672oknETC63MZ5dabmufxeMTvnfnlkQoHSR8vOZH48zi6upZQArkZjWQ0upJbs3Sf7fz9iLanmvl1JfP6J/lvObkWk5F06nzB8JSvBQBgL5Qn1MOBtHRgox/bjnjBTGazQALPETt6wUR61nrfvutgqTMy4YDdX2ub26wLAAAAPB8jebcyKA7l+mqXmb8dCUPxfV+1UB3hI7PLY9/n67DTY/Plohd/Dm3HkyDp4wWeOEcH0fPAgtE5g+kAAA+uNKHuX/TMN+GOeOOhtJv6cVOa7aGMPSdaUi9YT2TBkk6IB+Nu5TbPF/46brMuAAAA8LyMVgXp4bXsYz5dggvpdDqqXUhgnno0dnns+3wddnls/jvVg9McORu2pZn08ZptGerfxZJTzxPPO5PX0TJAm0jvZPD4vnQDADwpJQl1X97FkY2Kbd5K2zxMtd+qkCc2va33ZywcnJtgSW3yrKuCo4L2qfTjoeYy6V3MjTTfZl0AAADg2RktL/sSXl+ZwTPAPtMDqNrSVo18OuZMenJBxx8A8IDKS77YtvrPFufQMk9sJ7hJQnZH3i5k6LWmvD42WXGZSj5Pv826AAAAwLOhY/jowbI7SXPlXtLXA8Aj4HiS3KA+6lDyFQDwcEoS6m0ZjscyVm3YLRkLEN4undwjDMOoZUK5TVawD6UqRd88ODKPJnKT3j+4zboAAADAM3J0LMk4k8qyL7lyL87xcfzgrpn+wXwf4R4l+ze/plYcU3LMj2q8zibHnKzz2M51Sxufs1rn0db6T5lzrzyBVcsfTvu0n35xuJOSr9F57ue5AgD2V/kI9SWy+uq2HBeL2fmuWJYVtWzy7UDSQeY1ZaVktlkXAAAAeE4OpHuWDN8sL/uSlXtx5O3r6EE5Fdc3Gg3VqkeBhoNW/JpWeT3jcOBKSy83/QPd9Otb7kD8dAVf3Gg/qnWSQo8j6STP6Vax/ZXCwfz+o22p8/HVPlvZ81m/RQvVqcfnlRxzst4gO2hjl8e+3bZCfzB3TukxL9l5qN7j4vtTvt5DnWfy2tbc8fhu8tryz+by5eu8vwWhOh5zjeM68vG6LfUBqnfuD2Tu33Iog+j8zblb5tyTE0jOsWr5Pmh25dLUfJ30TjY8tvhzMP/51+fdUv8/2Ot3EwCwJ+ol1NUfVt8EaUncY/cvpWwA+1JHB9X176zD5becbrMuAAAA8Byk8x2VlX3Jyr3Y/dPFuZJ2SCc1rd4oHYjjOE5UUlKbjHrSsXLJTlNuci6eT57TLbkZdR06iWhlA4Ecx2x/MoqSoSN1lfQx6eczoQxalurvmBE9at/59XodS1rF7F1yjObXSPKcbusc+4bbutWDmjo90YdtR+ekrrVeoI/Zmk9Gp6J1kvdH70bvw/xStl5yDObXSPKcbvdwnon20Es/4535b0Oi80r6q443LHzGN3h/U764lvrcpBdMXWe1vjYZdaJr+Ri8cy3ppSdhJO+3/qIpf46JaHn5lxcPpdm9NPOoTaS3djH17HMQn2r8uYtNZKQ/B8XPFQAARbMagr490y+Nmz1zvMAsWRQEQdQy3kwFPPG6jmeeKxH0Z+rPWPQ6u5+sv826AAAAwOM3nU6jVm4xXvacivg5jZntWRQyL4uhPSfehjhqD+XSPoLdn82tvTQ2z453k33WE8z6dryP+WPLPV/St0ivm95/4dCy/pC5dkU7O3alzrbS1ySteMzL+lH5ZcX3bkX/617PMzmWkmue+4xlh7n82Ld5f7N1i8tzn6lk22bJdla8Dwuy11f/u9Kt0JfPXcdkeT+3PPCW/Vu+LxXXInde85doybVQ8u/lfF4jmHm5vMfDnS8A4DGoN0L94Dge6aD+mqbf2lZ8e99sNqMGAAAA4P613zrxg9H53CjjtNyLfSzFyo07FdyYkZ+OnC3c0tqW08ATz/PkbFnJma1kZSOds27uLtdmdUmccCDn+ZHNhcPebkTsXbOlHxSPWV3n+IB1TUyZ67n5tzJVHTvbdqR/mr8+SnPJevskV/YjmZzSd/WdB4rdl2BYuP9im/c3t+7iXdrqMzVORszvP8cbyzB/8rnrGH+OxtLNLW+2u5L8k5ns22Rl7eH6E5QW3su5a6Hey3Z3nG5z0rvYq1H5AID9Uiuhrv+QDodDGY9n6g9M/Ad30ivWGwQAAADw4NKyLxO5uk5SorlyL8ev55Oou5aWYxzJeUl96WazLe22anc+CMeWQ8s8XCGrLW/L9J0rrltsF3IVLVf2LNG8dilO1bcbj8eqDefX02U+B66cJLPW7rksCT6STqtlSr3Y0r8sfEmgbPX+pl8QlcwhFsl9CbHXHHm7rM7TXX/RdgfWnaA0P4fE4pd9sfQLSbXNqrmdAQBYe1LS9vAs/QZ+dL7mBEHLgs80UKmwzboAAADAs9GWJCc0ubqOY+jwWuI8aVVScIfykwbq+tLRpI8tcQd6MtK1eg8bsuQw2n3+C4VYeDuNH9iH6lWZIBnSrtaZjEYyKmmT9CU3sj9jdbd4P0NfBnriWPXeRJNWWh3p6Lr3j6Zj1ZTupUmomoOu+nJhm/c3/czIkRxUXOrmwSaF/rG1NScoTT8HhX//c9IvJHUK4j7+fwUAeIwWE+rRBKS6hRUJ7CxArxdMJgFtfUdppLLNugAAAMDzlI6ynFyJzin7F2aCznsahdrsjiUIPOknk35OJjLq6clILWk0WtIaLI5c352stIu+q7blDqL+zcBtidUzideqUfq6DIoXl6SpbqfVybh7V53kXcZX10In0HtRAt1cEz3RZr8vXj/p7D0CzddynOsvruwLPrr3F6s0u8mAvzXKMR0d3O1dOgCAJ28hoR5en0cz33c6FzsaedGU9At7E9CXyb75z9+auc26AAAAwDM1V/bFl3dJ3eAdlnvJRv2W06VdusOxzGYzmQWBeF5f4vz6RCa9jlh3WD9SdxuSPOtk1Iv6N72RSRw7nowLw5itZBSPesmBLkeztDUfdTIuHOjyKNm1CAL1/qj3SJeAGXa70j6IFj0KvmuJ+Y4kUlVL+67f36w/+kDCW3ngI3hAbRlmxdTrlaVddvd77loyWA8AUGVJyZeplN/hFEqWv15yq1ROVods8bbLWFbTsThqZpt1AQAAgOcpV/alZyZr3KY8yIIsSV8UJne85su7NJvS1vMyRXMymeeKE4Puiu+K1RnJJEoWB+L1++I4evS1J14wk3FxwkolK9lR1QdSwoGptz14xJMV5vpO+osFdS3uvJT9XVHvc1w3XZ9KkNVTL8mobvP+ZutW19Re9eXS+nJ3atf5d5Irgfosk8DtU/P+q8t1fl755UL2xUr1YL3sWjJYDwBQbSGh3nx9bEZzVNwy5V9kowDq3iqVq0NWVtssHJyk21wYNbPNugAAAMAzlQ1MMTYafFKWgAxl0EqS9CWSO15PTP32goXj2rF0tPD0Nk7kd7syHOrR121pV51/bkR/VdkIXTYnqretNv9482yBZGWkS84iHEgryVLvNV9cc5x2P5ChemPTeuqjjrSKncZt3t+5ZG3JHGLqmp3v/JI15XVayyb+kqDs31Jk7j1bMfHokzVfTz9JVxStLg+Tfa4YrAcAWGZxhHqzK6bkYBSMNFrx5EF6pImuO5j9sbalf1r4a+3Hk9roNj8wIHcblv7jZelJifTIlYG46rVJLUMVDcnlwiwy26wLAAAAPFO5RKC21uAT63BukE2azNN9gtZ8mY2idIDOpCcnOhGYraxWzyX/nLcq0s9Jk54mgRj1QeJ19KjhyoRiQX7/0YSouma76aO0WnoEsmq6hvvcBttymmZNdR/INX2guOma4+lhn3UXr+OOjj2yy20tyEY+T3oXMki2rZo+x5Zlau1XudNjqyv3hU6+D7h0gspt3t+sJn/0mUr7x/q8Vf+36ppV9o3raXYvs3+/6pgtvR3dD073HffPG7n92/3T+X9Td6Xq3NZ9fpdy73+14ucg/17q/EJ2N0//svA5uI9zAAA8HrNSwcxz7JleXN7sWT8wL83znPQ1jmeeywnUcvXnK7edXLP7aq/VtlkXAAAAeKym02nUynkzJ4mJSwLwoJ/E9I56ZUHQT+NruyS4X9Yf0K9Pt10Si2f7rWgV8XvlemvG+yv3H7XFPs2q9cquU2JXx66t3Fba7yp5X410G8X95973xWbPHGf5tnd2nivPIflsz79P2f7L+6SeU308lcdu2kbvr2ql12xF37ieYNa35/dV3tT7VnXsK65z5efESK9n/iSqzm3d52tZ/v+4ebnXqlb1fi7/HGyW6wAAPC9//62i/igUvBDrzdfy1ZefyIeffpWPPvtMPjOt/c1QfvC/k84L89K8xo/y84fP5YsvvpDDN2/kVeE1L6w38vVXX8mX//hBPv71o3i77W/km3/5XvzvOmqv1bZZFwAAAHisfvnll+jnp59+Gv2c15Aff/4gn6v4+4vDN/KmEIC/+If/TcXnH8sX//mt/POrQomPv/5NflPL9Lp/aLXklTW/bnl/oC3Df/tBvus01eq/yYePVez/h5a01Lbza7949bV8+9WX8smHn+TXj5J14/W/Gf4g36v4vWy0vF6vbJ/fnP2TdArHV8V3G/Lqv/5F7H4g/9P/b/Ltt1/JV1/9Uf74R930pJP/QT7+6U/y57/8Rf704Uv59k12XSqPW/U7hj98H513lV0ce2LlttJ+16G8efOqtC9U+f68eKX6VYvnGPXzvv9OTk5+J5/8rD8XIn/3u98vfC52dp4rzyH5bP9BWq1XEm86lP/r/wyjz+x//pf/R7pfRi+cY71R56aP/9Nf5P8rHP/W769a9x/n1tX/Hv6H/HOr5FxW9I3reSGvvv7W7Pdjtd+PsmM2+29/8y9R//ykagcrrvOyf8da48ef5YP6MMz9/6Xq3NZ9vpbl/4+bZ8kb9dn8WZ+Pen3Z/9e0qs/BNrkOAMDz0tBZdfMYAAAAwJ55//599PPly5fRTyyh60lHJTAc8WbD6vIXvisNXePD7kswLinhAgAAAFRYrKEOAAAAAI9R80COogcjeedXVPTWdeCTWSSPDkimAwAAYC2MUAcAAAD2GCPU15SMPo/YYps5CCOTSTaBpO2IN14yih0AAAAoQUIdAAAA2GMk1DcQhuJfX8i7q6lMzVOJo6MjOXx7Kt02Y9MBAACwvsZ0OiWhDgAAAAAAAADACoxQBwAAAPYYI9QBAACA/cGkpAAAAAAAAAAA1EBCHQAAAAAAAACAGkioAwAAAAAAAABQAwl1AAAAAAAAAABqIKEOAAAAAAAAAEANJNQBAAAAAAAAAKiBhDoAAAAAAAAAADWQUAcAAAAAAAAAoIblCfXQl4HbklajIQ3dWuqx60sYmuUbCH1XWi2zPdNa7kD8Dbbpu8k2WjLY4pgAAACAx8rX8XoUpw+EkPjpCAe63xT3v54HX1x9vi13L/p2z+/6AwCAuqoT6jrxbXWkN5rIxDwlE/V41BHL2iyBrYN9qzPSm5kzGfWks+421fGpTQEAAADPnIrRdZw+Nb/iiZjG76v57VnQ57s3H+RneP0BAEAt5Qn1cCAtnfjWj21HvGAms1kggeeIHb1gIj3LlXW+qw8HLemMTDhi97fcZiiDc7LpAAAAwIMKQ/F9X7XweY6Of+7nDwAA8AyVJtT9i575Jt4RbzyUdlM/bkqzPZSx50RLREbyrnZG3ZeLXpZMD8bdym2e1ximHg5OJNkcAAAAgAcSXEin01HtQgLz1LPy3M8fAADgGSpJqPvyLhn87byVtnmYar+VJP09va03DiMcnEu6ybOuRLn0vPap9ONh6jLpXSwfpR4O5MRk023brAQAAAAAAAAAwB0rL/li21Gy2jm0zBPbCW6S4eSOvF3I0GtNeX2cJMensixPn46et/tyeXYUPQcAAAAAAAAAwF0rSai3ZTgey1i1YXdhLLlIeCvLpokJwzBqmVBukxXsQ6lK0TcPkuT4RG6q7pdMJyK1pX9ZMtIdAAAAwFaSeP7ha4Kb46g8kFXLF+3FuSXHcE/Hcaf7uudzSaX7Nb+vY5t1AQAAlPIR6ktk9dVtOX5dSGn7rliWFTU3rdsSSDpAvabyUjK+uHE2XdeNkbJcPwAAAIBNhCqUb0mj0UjjeUs9brRcGfjF2FzF5XqZbkl8LiPpJM9F6w3WS7CqfkS8rqu2HsogOhZzHJbenjqOZIOh2n9Lv7Zi+YJ1zq2Ozc4/VOfY0suSY8gfx7qHEQ7ibanWyjpeObs+53k7PZfa4nOa36++Bi3V91y1023WLbHy+gMAgKesXkJdBa2+P4gC1yRmtPuX6ye1jw6qR5Vbh7KsInpWh90Rb1haNwYAAADA2kIZtCwV55tRMLr0o2PHsflkJL2OJa1iltSUiJyL35PndNuiMuM715JeciwJfRxWSwa+L67VkeLieLlOxhdtcG51JOdpfo0kz+lWPH898Eh1pJLDjl9nfknOre5h6GSuFQ9ysh1Pxgt9ozs658Quz6W27Jzi/cbXOTaRkT6nysT2NuuWWHn9AQDAkzerIejbM/3SuNkzxwvMkkVBEEQt482cZF3HM8+VCPozFdZEr7P7he3nls1twnPSYyquAgAAADwF0+k0alU8x8Tadn+2SUicri/OrBjmZ/2Aing7jcfVuuapjaTbifc119/I9QXSY8ktD7zqfsRW51ZHrfPP94cK71FQ3VdKjy//fL7PVNG3uttz3uxc6knWXzy27JyKfdFg5uX6qgv9SGXTdTe9/gAA4OmrN0L94FgcxzEjD8y3+BXDDprNZtR2J5TBSTYR6SkDAAAAAIDdCAdynlRV9IbSLoTxze6l9E0foHdxP6UtHG8sw/yBNLtyGR+EYks/GEs3t7zZ7sqZEz+e5Cdj2pdz829lqjpStu1I/7QwD1SzLafJuU1vVc9niTojo+/6nHd1LuvInZO+S3rus6GOoN0di5e8/72L+bsUtlm3qM71BwAAz0KthLoOUofDoYzHMxVwxEHSpJevk353wsGJ9OJsOhORAgAAADsUXl9FCUIda0/fueK6xXYhV9FyZZdJ0kqOvF2Wp7SPpTiNU5W9OTfVlxqPx6oN50tm6rKaA1dOruKjXCqXzNXX6KwimXvn57yLc1lTdk7qvCtqjrbfmqy4jORdro+6zbpzal5/AADwPKw9KWl7eKZCiNjofM3JhpYFbcGNCVDyfLmIs+lR8HwQ6FruuXY7jZcpN9fmOaZrBwAAAGoJbpIIfCKT0UhGJW2SvuRGcuO/997enVvoy2DgSqsVTxbasDrS6eWOocr0PJfM1UZyXnG38L2d86bnsoH0nOxDseJHi9pv0z7q9Da7Ntusm1rj+gMAgOdhMaEeTUCqW1iR/G5L+iV+rSDMkkNz519dRwclowcmPel0VKCWb0myXYU3o5557uIxhfkAAADAHtAlPDxPvKXttDopuc/24Nx8txUlnXtR0jnuw+iyKU6/L14/6VxVUK/Xa+gyI0HQF921mvROlk/8eYfnvNW5bOPoYPO7lbdZd5PrDwAAnrSFhHp4fW4S1hc7GqXRlINklvvJlVxXBB5hOtrclsM0srPk0FHBWVWzs0y9nTyXrQwAAABgCSsZ+TIROWi3pb20NR9V+cV9Obdw0JLOyCSeo6TsTGazWVQ2ZdjtSvsgWrRUUrO7mdaTn0jvZPFu4bs+512cy8aW3e0c3krSmywdnLXNukrd6w8AAJ6HJSVfplJ2x5uKOCTLfS+5dS4nq0s3kavSjHoo10m9vbm6iE3pDlVwVtXOkky9Lcen5rmK2ngAAAAA5jXTkS9Vsb8SDkz97cHySRv3zH6cW66fkyZl419rM+slml1TgnPSk5PCMOm7PecdnMsGsi8JqgdnSVo+ND84a7t1U2tcfwAA8DwsJNSbr4+j29h08rt05nf/wkwSqtS9dS5Xl67s9rhs4lGdT3/9qEa+AAAAAI9WGqdXxP6Kf9GL629P5XGVfNmLcwskK+Ndsgc92WVnZH6pqy1Dz5xZ72I+KX6n53wX57JamsCuPCdf3GS/hUlrt1m32pLrDwAAnoXFEerNrpzF8YHIqCON1iCa6DPUE8+4rVyQZEv/tDC7uR9PTKObOx/ZpUFHFMxYavlA12kfiKtea6XZ9L5cMsIcAAAAWN/kSi6ikcerWzbApS2nUQkLJYr9XRP7x03Xy07Cf+esuzjwJU3gjqSjOgDJeqGO892HLomx5bnVsfL8s/mkdPJ1UNj//GSXa2gPJe5exfvN3OU539G5rFQ8p6R/qlrUn+yoq6Cp/ull8Zy2WXeJqutf2R8GAABPyqxUMPMce6YXlzd71g/MS/M8J32N45nncgK1XIUzue3kmt1Xe11Tur+K4wEAAAAeuel0GrUqnlOIq2u0Yqwe9JfF/jKzlwTbleuuE9+ncb0zK+lGZPuo2GZ6DUo6IducWx0rzz/oV/eBVD/GccrPPd1uWccq4s0cs51dvp9LbXgu9STnU963W35Oy/uDm6y70fVf0R8GAABPw99/q6g/+AUvxHrztXz15Sfy4adf5aPPPpPPTGt/M5Qf/O+k88K8NK/xo/z84XP54osv5PDNG3lVeM0L6418/dVX8uU/fpCPf/0o3m77G/nmX74X/7uO2uua0v39QVqtV2KtvQEAAABgv/3yyy/Rz08//TT6WdT48Wf58PkXUQxetxVj9RevvpZvv/pSPvnwk/z6URb761h9+MP38l2neuyuXnex39CWb87+STp1A/Q0rj+UN29eLfQL/vq33+TDx2r5H1rSemUtLE+vweEbeVPohGxzbnWsPP8Xr1QfaHH/Ub/q++/k5OR38snPH4s6fPm73/1eXplrlp5zyTnFLPm93q96jVpRfp+7Lnd2zhueSz0N+fHnD2rd8r5d1Tkt7Z8am6y70fVf0R8GAABPQ0Nn1c1jAAAAAHvm/fv30c+XL19GPwEAAAA8nMUa6gAAAAAAAAAAYAEJdQAAAAAAAAAAaiChDgAAAAAAAABADY3pdEoNdQAAAAAAAAAAVmBSUgAAAGCPMSkpAAAAsD8o+QIAAAAAAAAAQA0k1AEAAAAAAAAAqIGEOgAAAAAAAAAANZBQBwAAAAAAAACgBhLqAAAAAAAAAADU0Jgp5jEAAACAPfP+/fvo58uXL6OfReHAlYsb80vB4elQuk3zC3DvQvEHF/KOzycAAHhCSKgDAAAAe2xVQt13G9IZmV8KHG8mw7b5Bbh3oQxalvQm5tcCPp8AAOAxouQLAAAA8OjZ0vcCCYL5RrISD6sp3cvFz6XXt81yAACAx2d5Qj30ZeC2pNVoSEO3lnrs+hKGZvkmdrhNPRon2kajJYNtjgkAAAB47KymNJvz7dnxXWnp/kXLFd889TBC1edxxXUH4u+on6JL+0TnpvpO9e3+ONZW+EzqZplFAAAAj1F1Ql0Ho1ZHeqOJpHfoTdTjUUcsa8MEdjjY3TbV8VXd2goAAADgeZro/kVFiZH7E8jNaCSj0ZXcmme2N43PzfxWz10cBwAAwPNWnlDXie/OKA7WbEe8YCazWSCB50h8c95Eeta6oz58ca2eCQBtccwtqdntfutsM5TBOdl0AAAA4FEJQ/F9X7VQRfSP1FM4BwAAAGysNKHuXySJb0e88VDa0d2iTWm2hzL2nGiJyEjerZFRDwfnao2Y441lqDaqb/drd8cSpEn1kZzXGKYeDk4qJ7YBAAAAsKeCC+l0OqpdSGCeenRqnYMlp54nnncmrx+08s6+HAcAAMDTUZJQ9+Vdmvl+KwvzGLXfSpJSn97WHZMRyvWVyYDbfTktbLT5+tiMfBeZ3KwIrcOBnJhsum0zmQ0AAACAfaMHI7WlrdrD5rH35TgAAACejvKSL7YdJaudw11NFxPITTKi/OhgMZhrHsiRebhKOnre7svlWd21AAAAAAAAAADYTklCvS3D8VjGqg27JeMYwluZmodlwjCM2oJlSfrcNu1lSfx0IlJb+pddRlkAAAAAD83E/1EzT92F0j5GXfdwfNvY6tx2aZPrVLWOeR4AAOCpKR+hvkRWX92W42IhPt8Vy7Ki5s7VV1+epA+vr8w29QD2qjS5L26cTRdxzqQs1w8AAACgQMXojUZDNVdF1EUqxo6WqdYalCRFB9KKlrekONVRqLYbLTPxf9Si7biF1+b2kcTzMpJO8ly0Tsm+lXQfquntx69viVtj3iUt9AfittQ6S4+vjnXPIXn94nVLbHtuc9L3qSGtuY5YxXEUPxNq/bWvU7LPwjp6wtb8tub7hQAAAI9fvYR6qGexj4OsJH60+5e7SWrnaqLrSVDfLhRtj2WTmjriDSteBAAAAGCedWjmK5rKwhRI/jsTYyuTK7kuLE8HvtjH85Na+q5YqmOQRPH6TlT1X2wykp5VSOCau1XnZkBKntNtoZJjKAPV98jvIzORUc+SxopM7W10jD0ZqQ3YjiOOatH+y46vjrXPocr25zZHJ7ateNCT7XgyXrevpJPrav3RRJ1D3etk1omP31brmOui1tETto5Un01vRz8PAADw5MxqCPr2TL80bvbM8QKzZFEQBFGrx5s56XZFbdc8XRT0ZyoUW3yN56TH1K+7SwAAAOARmU6nUaviOavi4WDWt+NY2i68aD7OX4zH422rNh+EZzG801dbzwnyy0qC+zR+d9RWqqX7Vc3ue7l9BDMvd8wLu0i3nzS1n7kDXHF8ddQ6h2Q/i+/LpueWvlf5Bbl+kl16PhXHUbxOduF9VL8ln5nF65RbNrfesnXmJeey4mUAAAB7qd4I9YPjeKRCPOxARh1LWhVDOprNZtRW0yMz9OiFmArupXwwhXrdSTYR6SmD0wEAAIA1NOX1cTxSeHJ1nStLEsr1VTSuWfp9J3pm9G6+XMg7E6w7+dtI/VuZRqOyHemfFuY1arbltG9GJU9vc/taQziQ86SToEdcd9u5fTSl3b2UZBej8/JSMTF1XsFQ2nMHuIPj28bOzk3ZdmR6yhFvXJyfKvvMLF6nQG7ioeninOXXa0r3LP4cqQ9SXEoGAADgCaqVUG+2uzIcDmU8nolnbtub9Laph6eT6ZZklV50MDkfwiXCwYl5HRORAgAAAJtovj42JTluJIieUcJrifPpx/K6+1aiVGg+EZqWgymUZVR9Az030ng8nC8BqctEDlw5iTa6uWx+JRX/l46maUp3HEgQqLakf7CzEpU7tKtzyyfT9ftztkVJTMcbymZr23JomYcAAADPyNqTkraHZ3GwrawcNVHBd3PJdLsvQWUA6MtF8kIV6B8EupZ7rt1O42XKzbV5jpnkAQAAgHnN1xIPOB5JMgg9Se7ax6+lKZYcRsuzOuthEms7b8sTrqEvg4ErrVYrnuDS6kinN5JJEudvKEiGP8uRHFRmlOO7YqtvjLXleK7o+37YyblNz3PJdG0k52sXhE9Uz2FVLfmsTOSqUHQ//czYh+pVAAAAT9NiQj2agFS3sCJZ3pa3SUY9P8KlJt9tpRObRsn0hdsLK0x60QQ3cy3NyuvJe8xzF+seEQAAAPDUNeXATJqZlHVJkrtHUWY3KfGRJEmTcjA6n76YcdUxvU6g96IEevw6XQLG6ffFM+VjtrZVUnZZwnoPbHNu6nrrK67LvARBP7rzYNI7WX+S1Y1lpV30XcstdxD1HwfqM2GZ/ln8JQ0AAMDTtJBQD6/PTcL6Yu1k+SrhQCfT4yBLj4ZYrNVXZMmhmWm+tMVF3SPJjPQO9x0CAAAAC9rJqJioJnZSHz0boZyUhYnqrCflYErKeuRj+jipO5PZbBaVgBl2u9I+iBZtzIqHP6sDWTZ4R52BuWv13vLIO7Crc0tqpjebXbmMiq5PpHey2d3Dm9D7SXpik1E88KmX+0xUlfMEAAB4CpaUfMlu95wXSlppZZ2RFb6bjliIkumzOrX6mtIdqsC8qp2ZYTb6ls5T8xzBGwAAALCobeqkT67kemDqo+fLuSRlYfTy65toFHRUX30uvM5GrkfzIEVJ3fjXXWkmQ+kr+yOKf2EGAZ1LoerIXtvJuZnrnmh2TUnOSU9O7mOYuu7XdUYyib5MCcTr9+OBTX1PvGC2xeSoAAAAj8NCQj2dsEiPcrgomXVUBXhpXvzooOatfL64WZ2XeLZ98xsAAACA+5CUblRxfi+Oze254edJWZjc8oXSHYEkZcDn1zX0ZJlp3L+hJPFf1R9R/Hh4vbLnpV2K7uTc2jL0zFZ7F9mksnckrZM+vVUfmaa0u10zsKkt7cf0XgAAAGxocYR6syumJJ7IqCON1iCa6DPUkw65rVyAXDIzvR9PSqSbm4vkwsF5PAJGs0VuLlxx3ap2f7cqAgAAAM9JWvYlsjhx56rl2YSUcfJ2EPUT4qbrqs9PllkiTSiPpKM6DMm6oT/I9QOyBLHuj7T06+LfVMcijPokSZfE7p/e/0CdWudQ5Y7OrT2UeLPxMd2ldADWpCeWnoy2Eff/4mb6dAN9XaKXAwAAPDmlJV/aw0AFZGmkLB3LEktPOjSKJ8DRwXU/GEtZdRU9KVEyMVEptWw0Gi1p6090CgAAAKAG6zBOhmoL5VyUNFmslC3XJRkv44kwdfK2F/UT4qbrqk/UEl3+I1JaJ7wtp1HNb2XUSde1Oj0ZJWUltfZQAvO6iX5dlLhVTb02qdUdlT55kHKPNc+hyh2dW3voxe+d2uad5tTTuu2JuP8XN9On6+nr0rrHiVIBAADuz99/q5jHOS/EevO1fPXlJ/Lhp1/lo88+k89Ma38zlB/876Tzwrw0r/Gj/Pzhc/niiy/k8M0beWVe89e//SYfPo6fX90O5c2bV+oIakj39wdptV6JVWslAAAA4PH45Zdfop+ffvpp9LMo/H//D/m///yZ/O9//DqNvyu9+Af57ec/y68fqdj++L/I6cIKDfmdWv5TtPw/quUlZV1evJKvv/pSPvnwU7ydfD/h++/k5OR38snPH8vnX4j83e9+L68KQfqLV2X9jLZ8c/ZP0sm9Nnqd2s+HP/8kf/7LX8yzIrbtyDfDH8T/5y/NMzlp/6C6T5H2Tf7QkpY6v1WXrMzqc2jIjz9/UNegvJ+yybmlx334Rt6UvtGW/F4fk3qNuvDy++jcKo5ji+vkuw159V//InY/kP/p/zf59tuv1Ln8Uf74R93a0m7/B/n4pz9F5/WnD1/Kt28WP0N//ff/Lt//6S/yxX/6VkoWAwAA7LXGTE/JDwAAAGAvvX//Pvr58uXL6GeRTnB2Rrb0vUt5XUhONnc9YyieN10jPyrr44g3WzIvlu9KQ9eusfsSXL42T2aC6xPp9NRWvJkwhykAAHhsSku+AAAAAHhMJtLrmNIjuXbH5bTx3DQPJJq3Vkbyzq+o56Ln3jo3heCP/he5Pln8XOpkOgAAwGPFCHUAAABgj60aoR4OXLm4Mb8UHJ4OS+c9AjaWjD6P2GLPlVPXdfQN2xFvfCoyuJB3fD4BAMATQkIdAAAA2GOrEurAvQtD8a8v5N3VVIrzsB4dHcnh21PptsmUAwCAp6kxnU5JqAMAAAAAAAAAsAIj1AEAAIA9xgh1AAAAYH8wKSkAAAAAAAAAADWQUAcAAAAAAAAAoAYS6gAAAAAAAAAA1EBCHQAAAAAAAACAGkioAwAAAAAAAABQAwl1AAAAAAAAAABqIKEOAAAAAAAAAEANJNQBAAAAAAAAAKhheUI99GXgtqTVaEhDt5Z67PoShmb5JrbYZugPxFWvj9ZTrdVyxd/qYAAAAIDHydcxdRJLm+eKwoF5jY6bzXMLwoF5TUsGOwmt/Shm1/vczfbwcJL3csVnKJW93n2kb76f+zdT+xTUv6H0Og1WX6VdCQduvE/1/wAAAHB/qhPqvvrjbHWkN5rIxDwlE/V41BHL2jDY1sH6htvUnQGr05ORen1iMhlJx7JU0EKkDgAAgOfFOtTxsI6l30lgnpsXyvWVWq5fo+LmdxU5t/D6yrzmSA6a5sltRdubml/wqEXvZfwZ6tRJ3JrXP9Z3v909kyNzvr2Leolq/yLup+p/Q2fdtnn2Pkyja531kAEAwH0oT6jrxHdnFP9hth3xgpnMZoEEniN29IKJ9Kw6IxTyfHGtnvljb4vjqe0FgXj9eItLt+m7YvVMmGD34+PR6zrmaHqW8KU8AAAAnpPmwZF5NJXb0vElgdzkMm2jiox6kLzIPhQrfoR9EIbi+75qYeUdCPdudP4M7jpoy1D1eyOjzup+puqrqq5zxPGGam0AAPDUlSbU9TfscVjtiDdWQUE0UqUpzfZQxklwIdWjXMqEg3O1RszxxjJUG202m9LujiVIk+ojOV+I0EIZnKdrquPpxsej1x2OJY11zgf7E2gCAAAAd639VkXH2kRuyoao++/S+DsyvS2Jl0O5TYYSHx2oiB97I7iQTqej2kXFHQgPYSK9k2fQ71L93iynvmwgmS9ulk1Xfdz4IQAAeNpKEuq+vEvz128Xv2FPA3cdk9cNpeLbTSN2X04LG22+PjYj31WIVuwNhNeSrXq6cDzt03687uRKrsmoAwAA4Nmw5NAE0WWjz8MkU27b1fFyLtZ23pINRA2TntSshPKotYee6fdWl7rx3Y750soRj2w6AADPRnnJFx10q+Yc7uqmz9ztpmUjX5oHktywuiC4MaPl9aolY2bSdSdyRUYdAAAAz0ZTsqovxdHn2YAW+/hMjuOM+uJI9jTWtmVnoT+eJserOWr7qciXfikpdRMOJLmRumzgFwAAeLpKEuoqcBiPZazasFuSwA5vl04wE4Zh1BYsS9LntmlvEckvjG4HAAAAnrD2W5Pwm9zMlwVJR57bcvy6nSbeiyPZ01HssnpC0iTO3/UQltK+Qx3J8Wy0+qp11992/HrVzO8PJjmOOziQ9O7g0lKd69uba1YlLf1SLHUTyuDElEm1+3JZ1m8us5P35m7eWwAAUF/5CPUlsvrqOjgvBA568lDLitr8XXHLk/Th9ZXZZsUo9LpK60ICAAAAT5R1mCY453Ll6cjzOFGeJt4L8XI6IWlZqcdIqEL8ljQajTTOt9TjRsuVgb955B2qfkNLb8dsV/9sNFrirkzSxscTrZscj2XWrToeta94+3pUdSiD6Hxy6+pzSVYNfXFb+rUVyxfs+vqo/UfHqlpSm1uXHEmei7ZdVsN8g+uyiWZXLs38V5PeyYYTlK55zebev6Lc9Sq7LuHAfM5aG0+mmpZ+mfTkxGwkHJxIL86mS/+yu2LugS0+s+k5qW0Mkn8zev0adwik596Q1sqZVQEAwDrqJdRVYOn7gyi4TOI6u38pdb+IX0r9oT+JoxHFkYXSjWknoaJm+4oR8wAAAMCTlSudmI+V/WRSpCRRnsTUc3XUs7mTyu8SDWXQslT8b2J1fbepk9RjH0mvY0lr7Syl3mZDLNWpSHoAmYmMepY0KpN/2fHE68Z3wMbUuvp4ViQO37mW9JLzSehzsVoy8H1xrY4UF8fLyxKYd3F9FHNnb3JmkeQ53RZqZW5/XdbR7F5KnFOfSG/tYuobXLO0PziVhe5gfuLdkjkC0oFb9rEUx4LVl5V+ib5EUP3ipP+6uk+8i/fGbKNX9m+mgk6mW/FAONvxZEx9dwAAdmtWQ9C3Z/qlcbNnjheYJYuCIIhaPd5MhSbpth3PPD0n9xq7PytuWcU26fqqx6BeDQAAADwd0+k0alXSeDgNpoNZ346fy+LrkueC/sw2cXRZHJ7F2SrGLgThWf/AnvUXQv8kfl9clo/d7b6Xi+2DmZfrcyw/nmJ/ZH5de3Gn6bKFdXPXIFnezy0PvGx5cbubX5+a0uNe3sfZ+LrUkuuL5d+U3DWdf6+y15ftb7Nrln12i9uc76cufm7S/ZV9oNaSHUPaSvqmRVt/ZtU++sk2bH3N4r520t1Ozz9/frnPtL31eQMAgDL1EuoqkHQcZ2bngojNArK8+aBk2fbmAiUVSPQ9b+ap1nf083buuJYHmwAAAMBjsyqhnsbKSYIvTajNJyYXkovLErYrku1zsfzCCyoS6vnkdelGc9ssJivzScKKfsNcstY8F6lM/saqE7mx0qTsVtenpjoJ9W2uSy0VCXWlfLtLEupbXLOFz3gkeb163/rmWs2tlx3Lpm/BnPznt+KzMmdHn9moqRMo28JCQj2/z52cNAAAKFOr5Euz3ZXhcCjj8Uw8R/2JVia9Yp30dcS3rWWVXjwZL7lXrtkdpzPKx7cCdqSjWm+kVx3LWXLbo30om09pCgAAADw+zWTG0aTkRVI/vVDmIq2jPnoXlS9JJyQtiaGzOY5smb5zxXWL7UKuouVKzXmM8tvsn5aVoGhKdxxIEKhWqEudrevIWUW/IT2/Yj35VEl5ybw1yoLcxfXZxG6uy2bWnaB0m2vWfH0c7ys/+W4y8a5+37pv4zrn5rMdScvBrHjf62q+luP4hGt9Vnb23th9CYbtFXXalVyZl2iflHkBAODOrD0paXt4Fgcryui8bEKc1XxduzD+S58GCKu0hzMJvL44dlx3zul7Ktgey7AdStIXAAAAAJ6dtMb0RG6CXP30o4P5JNxcLepQrqNspFJ8nZJOVqq2ORmNZFTSJulLcknOJbJtxhOllmtKs6mb+dVI1102gKZtkqpK6dxLO3QX12cTD3pd1pygdKtrliazs8RzkrC2j1+rT40lh9HyrM56+oVR5YS7d2s3702dSU+V6Xkuma7V+5IDAABsZjGhHk1AqltYkSxvS/pF+gbBoZ7hPJ2wXifTxzUCBCMaKT8ey1i1YbdtAu1A0tispDMAAAAAPGm5kbPTWz8dbOIUh+Wmr5vI1fV1GkMvvC7PdqTveeItbafVCcMyyxKMq+xbvH8X12cTD3Rdmt1ksNUaE5RudM2aktyIMTIZ9SRhfRR9O9OU19GHW3+2dS82+8Jo6ef7Pmzz3tS9a2IST3qqJyANgvjOgTpfcgAAgM0sJNTD6/OonEqnc7HzkRThQCfTk+y3I17NZHoYhlErFd5KMkDdPrzzUBUAAADYM1mycXJ1HpfBEFsWQ+P8665MDF32Oj2Y3WTo1bYO2m1pL23NWjF9ts1lg3JCM7jHLx/cs6x8Sq5fECdZ785dXJ+tPNh1acswqc056iwtCbrtNUvLo0Tn6kt8I0ZWziUpCzO5ulZ9R1MOpuLzfa/u6b3RyfSxLg2T3jkwkd7JZneUAwCA5ZaUfMlul5uXK7GyzugS3xUrK5ou3mxY79a7cCAnliWWaq2Sr9jztfiO6xY9BAAAAJ6QLFkZj1StGtmaJiWT11WUX0nrslf2CRQVp8e1rwdZ3eolam3TvzCDe87jevBGdn6mTnyZpHb8PSRR7+L6bGIvrkv7VEzlFxmdn6cJ4qKtr1lSHkWf68DUR8+Xc0nuwNDLr8vnEbhP9/remGR6Ir1zYNKTE4apAwCwcwsJ9XTCF/WnvfS2PRXkpnnx2rev+eJmdV6kH9RMpmvNAxXmxya6KGSeTrYnB+OcyZJ5TQEAAIAnK4vhjao4Pa2jblTVl05rO1eX8vAvenHt66narHluqTrbTOq/FxL9q0uL5Pob95FEvYvrs4H9uC5N6V6aCUrTL2pKbH3NktKjav1efE7zdygnd2Dklkf11R/Gw7432Z0Dk97F4pcTAABgK4sj1JtdOYv/9ka37TVaA/Gjkiu+DNyWtPKJ8eLs/L4rrZZ6jWr52/3CwbmZYV1RkdbNRTKTe1kr3pbWltN0yENHWmrDUQkYva904pWSYwEAAACei9wgFK2ybnSu3rpWXTJxPgZvtFzTJ4hbfl4k56zunEjz5UGiuD7+TXUYwqivkeYX+6fq1XnF40n6KLpfMBC31TH9jZqTOG7tLq5PQZqAHkkn6QMl55v2mfbkuuQmKK22/TVL77CILN6hvGr5/Xrg96Y9lPifW/z5SVX02QEAwBpmpYKZ59gzvbi82bN+YF6a5znpaxzPPKcE/WXbKjZnllvVCGYqFil5rW4VxwIAAAA8AdPpNGrL5ePl5fGx52SxdD5mL7MqjrfLOwUzJ1pefhwr+wZLDmr5uqv6KGX9jNw27b66iovS61VyXJtdn/oqt1841o2uSy3Je6naqg9L/rWqVZ37Vtcs6M/s5LWl71fuGCrez83l/o2tse2N3pvkM7tiP+m2K9+b7HqkL6noswMAgPr+/ltF/TEteCHWm6/lqy8/kQ8//SofffaZfGZa+5uh/OB/J50X5qV5jR/l5w+fyxdffCGHb97IK/Oav/7tN/nwcfz86nYob968UkeQ90Jeff2VfPnJB/np14/SY/msPZR/+0Edy0MOPAAAAADu0C+//BL9/PTTT6Of5V7IP/z2r/LnX3WcfCz/5bQYT2es3/0s//qTjqnb4nz9RqyqFyovXn0t3371pXzy4Sf59aOsT/BZ+xsZ/vC9fFcaiDfkx58/yOdf/EFarVcL29fb/Ept88Off5I//+Uv5lkR23bkm+EP4v/zl+aZRVXHU6+PUtbPyPVV/tCS1itrYXnjx5/lw+eqn3L4Rt4kHRxjs+tTX3StFvpkbfnm7J+kk7uwG12XWpL3svz851nyRh3rz6bf94dWS16VfLi2umYv/kF++/nP8XrH/0VOF46nIb9Ty3+Klv9HtXyXxXb+Kn/77YN8rD8LFZ+VMlt9ZlfsJ/3sVr43lvxef37Ua+Tvfie/19uq6LMDAID6Gjqrbh4DAAAA2DPv37+Pfr58+TL6CQAAAODhLFJ9GbwAABDBSURBVNZQBwAAAAAAAAAAC0ioAwAAAAAAAABQAwl1AAAAAAAAAABqaEynU2qoAwAAAAAAAACwApOSAgAAAHuMSUkBAACA/UHJFwAAAAAAAAAAaiChDgAAAAAAAABADSTUAQAAAAAAAACogYQ6AAAAAAAAAAA1kFAHAAAAAAAAAKAGEuoAAAAAAAAAANRAQh0AAAAAAAAAgBpIqAMAAAAAAAAAUMPyhHroy8BtSavRkIZuLfXY9SUMzfJNbLHN0Hel1TLrmdZyB+JvczwAAADAYxQOxNWx9IZNheCxKMbWz7mSPLXPwoE53vQEAAAAgPvTmCnm8TwdWHdGMjG/zrOlH4yl2zS/1rXFNn23JZ1R+ZobHw8AAACw596/fx/9fPnyZfQzFQ6kZfUqYuvVHG8mw7Z6oGL0horR1TPizYain9pn4aAlVk+dtePJLDoBAAAA4P6Uj1DXwXmS+LZVYB3MZDYLJPAcsaMXTKRnrTmCZYtt6qA5Tabb/d0cDwAAAPCYNV/LmeeJt9D64sRBchR390tf48mpZV4DAAAAoLbSEeq+25BokErZKJV0BEtuVEsNm2/TF7fRkWip3Zdg3JW5gei5de1+IGOGqQMAAOAJqRyhXimUQcsSPYi7NH4uYoQ6AAAAUFvJCHVf3sX5aRWkvl0MqNtvVagdm97WLV6++TbDwXmcTFecs5LOQPtU+mYEzqR3wSh1AAAAAAAAAMCdKC/5YtvqP1ucwx3eB7rhNoMbU+pFHHlbOgClKa+Pk3tap1I7xw8AAAAAAAAAwBpKEuptGY7HMlZtWFY+JbyVqXlYJgzDqM3bdJuh3CYL7EOpSsU3D47Mo4ncBOYhAAAAgM2ZuH6t8SrJOuuul9hm3a3U329yfksl53H/JwIAAIA7Vj5CfQn/ohdPLCq2HL8uJMd9VyzLipq7Ru2V6m0Gkg5Qr6l+GRoAAAAARaE/ELfVkIaJ662GetxyZbAkzA5VP6ClX5ess2o9XbddL2+4ccnGcP19llLbiY5DtdYaHZJwcGL2a46nStrfOSk5tlAtbhWugz6WluobVZxI8TqU0DXjo9e0Bg/wRQMAAACK6iXUQ198E1ib+T/F7l/KVvN/rrvNo4PqyZSsQ0mKvgAAAADYzK1OGHd6Mpqo2NxxxFEtirMnI+lZrcrkuKUC+mQcjC7zqP6LLVsvoZPKlt6nWq/uPsvoZLrajj4O2/FkvMaEpc3umZnTaSTvKjPqoQzOTcfFOSv0W+KJYDvqwiUDhfR1iE1k1LHWSvADAABgf9VKqIfX59IxgbUODh0vkHFZ5rs9lCAIorYqfq29TQAAAAD3YCS9aKSLI14wk/FwKEPVxjPPJJsn0rsoJoV9cZPRMU5fgplaLyr1OJNZsGy9xEj1CdT6tl5XrZfuM5B+nFVfsm7OFsn0WFvexgcro/OKkeDhtVzF2XJxCpM7+a4lvVy/ZqbPRV2HmToPLz4RmYw60lp7yD0AAAD2Tb0R6gfH8UgRE9RGIywqgsFmsxm1ldbYJgAAAID7YEs/GEp7Lpxvy6lJCsv0dj7Z7N/KVAX0tu1I/7Q7f0dpc8l6cxzxxoV11W+vj+usq2ydTI+1T/vq7JXJlVyX7DAtU2n35TS/C7X/ZOC6vuN2OHfxmtLujsUzyfpJ72J5SRkAAADsvVoJ9Wa7G48UGc9UMBgHtpPeenXSi+5imwAAAAA2t3ZZRxXTxyPSh/Pr6fKOA1dOkiHdSzjeUDZLgSu5ZLpOzJ9tmEyPNF9LnMMvH4n/LkmaH7+eS/6H11fZ/isuXjsZ/r60pAwAAAAeg7UnJW0Pk/qCS26HXFOtbS4bmRLcmCAWAAAAwGZsOX69TjY9J/RlMHCl1TITaFod6fRGMlkZpDtSqJ5S3/Q8l0zXRnK+1R2vTemeJXVf3s2PJPffqa1ri0nz4MYcgX0oVvxoUftt2t+Z3u6iBwUAAICHsphQjyYL1S2sSGBn9QVlciOBebjUxtu05NDc6VnX0cGGnQAAAADgWTuSTUJp321FCfRelECPk8u6BIzT74vXT4L8O6D2pfemy7wEQVyuZdI7qT+JaZk08Z0fSZ6fjPRt9Wj6o4NC2RoAAAA8RQsJ9Xiy0I5qF/WS5TVsvs2mHByZhxW1DLXwdmoe2XJYOSwEAAAAwC6Fg5Z0RiaJHiW2ZzKLJiYdyrDblfZBtOjOJDXTm82uXEb12ifSO9nmLtqs7nt652w6Gakt/bni6QXL7qgNbyXpsaw7ACgdAQ8AAIC9sKTky1TK70YMJctfL7mtsdT628zqDU7kqjSjHsp1UpvRPpZN71IFAAAAsI5cHJ4mtuNf70VhAtJm15SRnPTkZIth6s3Xx3OTk2aTkZb3NazkltolA4CyEpXrDgDKarcDAABgPywk1NMAUo/uWJiMR/EvpJcMkqh5W+NW28zVGyy7hTMcnKTrFicIAgAAAHBXAsnKh5dkifWEoZ37zAa3ZejFPYdJ72K+Bvo6ml2JS6nrvoubJrSds25pXyNN5Ff1ddSRuMl1qBwAVDbwKJRBq2NqtwMAAGBfLI5QTwNIZdSRRmsgfhhKqCcaclu5oLjklkc/nohINzcfS26zzVxgHAWpltr2QNdjH4ir9mOl2fS+XFbMqg8AAABg17L5jnQCexDF93HTddXnJwy9J+2hxF2HkXTmOiTrSe+SHY3SyUirJ0/NysTM93VUi/osSVJc9XUuC0l563Bu4FGaU9f9pJaVDToqU9X3AgAAwJ0qLfnSHgYqEE2jY+lYllh6oqFRPPFPFAwGYynLX+uJiJLJiPK22aYOjAMVGSfB5qin67H3ZJTsx+5LMC4fMQIAAADgLjSlexlPBqoT2L0ovo+brqs+UUscxySmJzc7m59plfbQi0eMjzqbJ5rbp5LkyDW7f1o9GanS7I4lSFZI+zqqRX0W/WRFXycaeGTWU8drNRrS0E33k9R6dj/Itluiqu8FAACAu/P33yrmcc4Lsd58LV99+Yl8+OlX+eizz+Qz09rfDOUH/zvpvDAvzWv8KD9/+Fy++OILOXzzRl7NvWbDbRovrDfy9VdfyZf/+EE+/vWjeP32N/LNv3wv/ncdtXUAAADg6fnll1+in59++mn0c7W/yt9+UzHz51/IF39oSeuVtTxWTmP4Q3nz5lXpa//6t9/kw8fqNcXtvXilYvQv5ZMPP8mvHxXi+++/k5OT38knP38s6lDk7373e3llmTW32Gf6/OEbeTPf4TAs+b3uc6jXqJ3K71edf6kX8g+//at8/6e/qMe2fPP9aaFvs+jFq6/l26prsaSvU95Hasvw336Q7zrN6mu/tO8FAACAu9KY6Wn4AQAAAOyl9+/fRz9fvnwZ/cT9CAemvKTjySw3+SkAAACet9KSLwAAAADwvOi65a4MfF/8JJmuS7UszPEEAACA54wR6gAAAMAeY4T6ffHFbSQTiBqMTgcAAEABI9QBAAAAQCx523fEsW2xbUf6XkAyHQAAAAsa0+mUEeoAAAAAAAAAAKxAyRcAAABgj1HyBQAAANgflHwBAAAAAAAAAKAGEuoAAAAAAAAAANRAQh0AAAAAAAAAgBpIqAMAAAAAAAAAUAMJdQAAAAAAAAAAaiChDgAAAAAAAABADSTUAQAAAAAAAACogYQ6AAAAAAAAAAA1LE+oh74M3Ja0Gg1p6NZSj11fwtAs38Q227yL4wEAAAAeLV9cHRNHzVW/rZK93h0QRAMAAADraswU83ie70qrM5KJ+XWeLf1gLN2m+bWubbYZDqRl9XZ7PAAAAMCee//+ffTz5cuX0c95vriNjozMb+J4Mhu2zS9lstfb/UDGBNAAAADAWspHqOvkdZL4th3xgpnMZoEEniN29IKJ9Kw6I2ByttqmCvzTZLqt+glqvSAQrx+vudHxAAAAAE/N6Fwe1cDzMBTf91ULhfHyAAAAeAxKE+r+RZK8dsQbD6UdDVxpSrM9lLHnREtUtC7v1shgb7PNcHCejrpxvLEM1crNZlPa3bEEaVJ9JOfctgoAAIBnbSK9k8HjSU4HF9LpdFS7kMA8BQAAAOyzkoS6L+/S7PVbWbhhtP1WkvT39LZuqL7NNkO5vopT8WL35bSwcvP1sRnhrroPN4ThAAAAeOYmPbng1k0AAADgTpSXfLFt9Z8tzqFlntiBjbcZyI3Jp8vRgSxUeWweyJF5CAAAADxbjifJjZ+jDuUQAQAAgLtQklBvy3A8lrFqw7JJisJbmZqHZcIwjNq87ba5NBmfW9fe5RcAAAAAwCPTPu2buzd3Uw4xie0fTQkZAAAA4I6Vj1BfIquFbsvx60Jy3HfFsqyouRvVVy/Z5opkfHh9ZdbVA9hLkvUAAADAc9HsyqWZY2jSO9lwgtJQhfUtaTQaaWxvqceNlisDv3yDvquW69c0ykfGzy/3xY0eq9ZJ6kKOpJM8p1vrEdWBBwAAwLNSL6Ee6pn3B+K2GpLEvHb/UsoGm9e2i22GAznpJel0R94uFGcHAAAAnpdm91LinPpEemsXUw9l0LJUfG5ibH2XqGPHo94nI+l1LGmVZOnbQ8/MiTSSTnFkje+m8b7jDeP5lMwdqMlcSJHkOd2o6QgAAIA91Zgp5nGlcNASK01cq6Dau5RhuzzznZR7aTaXZ8bX2WY5PbKlo0L2mOPN1PrmFwAAAOCJeP/+ffTz5cuX0c95uZjY8WSWBMS+m47+no+Ts9fb/UDGhdEseiR5vJojXjCUfHiexe+29IPx4kCYcCAtK77zNNtnxfEl0uNU+5up/cXPAgAAAHur3gj1g2NxHEcPGlEmMqoYmaLpRPqqZHpkjW0u0iNnsmS67gyQTAcAAACM9nD9CUrDgZybADsaSV4I6VeOfM+Vm0n26bsmZrf7EhCwAwAA4AmolVBvtrsyHA5lPJ6pwDwOkie99eqkF22+zfg21KzSi7cwsgYAAAB47tadoDSbm8iW6TtXXLfYLuQqWq5Mb0trnGdJ95F0Wi0z2t2W/mVXiNgBAADwFKw9KWl7eGbqI6ow+Xw3kwWts03fzSXTGekCAAAAlFtzgtLgJgmyJzIZjWRU0ibpS24kMA/nNaV7aRL55sVbz70EAAAA7JHFhHo0WahuYUViuy1vk+x3ZSBdsKNt+m4yykXRyfQxI10AAACAKs1uMnBljQlKbUf6nife0nYqlnn5guZrOY7z+JGjAyJ2AAAAPB0LCfXw+lw6nY5qF/WS5TXsYpt6EqTOKBkS44hHMh0AAABYoS3DrJj60vKK1qHJgquQ+6DdlvbS1qyMxefuKFVq13AHAAAAHoElJV+mcls6nDyU26l5aB9Wj0wpteE2fVesrGi6eLOh6hoAAAAAWKl9auqa6/KK5yoiL9c8ODKPqmJ2JRyYeuqD8iS5ituTO0odL8jqqW8z+RIAAACwRxYS6s3Xx2byoorbQv2LbMTJ0UGtUeLbbdMXN6vzIv2AZDoAAABQ33xd89zg8XnttyvLw/gXvbie+lRKBtZkcbvdD2TYzu131JFWjYlRAQAAgH3XmCnmccp3G3O1yr3L1ypgDuT64lyuRkkQrpPb4/kJhnxXWufxmJejs7EKoqOHkU23qUu9pKPTbVuco2TkTJlDOR1SCgYAAABPx/v376OfL1++jH7O88VtdCQKsx1PZksm7J+LqxWd9B4XZgudj70dFbNntdKDi5O0BKPjzeZifX3H6aBlSr0U5jrKtlnSfygcf3Bq9hZcy8U7iWP7JX0MAAAA4H6J/P8Eab6CxqvObQAAAABJRU5ErkJggg==;" vertex="1" parent="1">
          <mxGeometry x="1070" y="135" width="360" height="180" as="geometry" />
        </mxCell>
        <mxCell id="11LUYm5CSsk1cLdcRPxS-2" value="" style="endArrow=classic;html=1;rounded=0;" edge="1" parent="1">
          <mxGeometry width="50" height="50" relative="1" as="geometry">
            <mxPoint x="280" y="220" as="sourcePoint" />
            <mxPoint x="460" y="220" as="targetPoint" />
          </mxGeometry>
        </mxCell>
        <mxCell id="11LUYm5CSsk1cLdcRPxS-3" value="" style="shape=image;verticalLabelPosition=bottom;labelBackgroundColor=default;verticalAlign=top;aspect=fixed;imageAspect=0;image=data:image/png,iVBORw0KGgoAAAANSUhEUgAAAYYAAAH2CAYAAAB0oiskAAAAAXNSR0IArs4c6QAAAARnQU1BAACxjwv8YQUAAAAJcEhZcwAAHYcAAB2HAY/l8WUAAEnRSURBVHhe7d0PfJPloTf83x7EePAxiDvtcLYWTQdbijsLMtdMj0Y5x3icBOsQOaPBzyROAfUstRvkdELgHE5gq83OkOogxVfbbgpVNHW48AwNrj7pHDY7s83zyBqFFSZrd0TiCzM63r3Xdd932lz9AwVK/8Dv+/lEc1/3/zv1+t3Xdd2JnwLw1+nTp+NPf/qTeEtEROe6/2H8m4iISMNgICIiBYOBiIgUDAYiIlJowfDXv/5VmyAiImKLgYjGlP/4j//Ab37zG+31yCOPGKWjy1e/+lWUlJQYU2PPOPHy5+bm4s9//rNecrrmPorGDXch96kwfmUUncgdlY34/s1p/HTH/zFKgH/Z/Bq+9/eHlbLhdIVjPm6Z2onW5BExZcMd5Qvw1XQM8ff0+ZJtwUOY94XxeLft95BLjR23YZH3K8jd+1sk/1+j6GR97T4sv/VzwK9a8XujaEBX34H5X/4f6Hy7q5/rdAcervwGvvjRq3hzn1FENID8/Hx4vV6YTCZtevz48YhEIkin09r0cPjsZz+LBQsWYObMmQO+vva1r+Eb3/gGCgoKsHPnTmPNM+/++++Hy+XCvn37cOjQIaO0x5VXXqldv2nTpmH37t1GaV/a9xiKiorw3//933rJ6frWVry96jN46dLr8bBR1Ne/oObVr0NUKxpT7udwuaheftfZ8+FOzP8cctPZZb/Dczcuwn8aU2dWLq4rX4EHv3QEL5UvQ+3BXMz/9yqUTIpj7dJHEZeLTJ6Pf1tXgtzEj3Hfule0taRFgTrc+FljQvggUYufm+bDXTTBKOntAF65qww/NqaGQ+4312G942M8+8vzccffX2aU9iWP/YF1EWNKNf/f61BifgOrH/oR2oyygVz3rXVYdOMUjH+/DZHNq1H7pjFDcx+qni3GB09/E6t/ZhQNxuQiXDMF2Nvchk6jiM4+shKWN62ykpOV2sMPP4xrr73WmKt77bXX8Nxzz2HXrl3a8tIf/vAH7d9ngqx85WsgTzzxRHdASC+88AL8fr/2/kzKPq5kMonvfOc7eOedd7RpSV6/H/zgB7BYLNq0PE756o8WDFarFe+//75eMmj3Y+vbK3Gd2ZgcjFQTVk27E0/gG1i+/lrkG8UTv/Q1XIcm/Ow3h40S4PLr78BVqZ1ZZR14/cG1+IkxdebZ8NCPHobtg5fwzRXPAF98CI/5irD/qfuw9ue5uG3FOrgvexs/vm8temLhBFwr8OTXxR3O3Y9AbHGE3ITlP74PV7wjAi11G569RoTfkxG8a8zN+MrcBzH9T7X45uqXxJS8q78OPRFyPiZdloPxqQPo/NAo6uMAmsofxfPGFCY78VD5fBT9f504v2AKBorJjAPRu1D2uDEh3Bd8FjdlBa7uA8Q3is9j+G7IaJitXr1auwM+GeFwGCtWrDCmhl6mAr733nuNkr7uu+++7mCQnnnmGaxdu9aYGnpz5szBqlWrjClddjj0DoWMlStX4sUXXzSmepx2MHxm+6W43msUHU/wNbx36x+NYNB986lfYeW1nzGmjqP9J5hyy78aE8PhNqx40o0Bb/IVPXf8zmWPwW29WC/udgCv1ryDKa5puHBCLi6b9Am6DhzCx9q8I3g7/Ah+/Jo2MSxs3sew/EuHsG2ZCKeSKhEMH6D2m6shq/9ssiIuPpQJhpsw/4Hpoh2lGz/FhmtyDiH+6704apT11YnWx54ZMDRzRUium3cZ3t7yCNaGO/Xpf74C7/50GVaL6d6uuFoE04VHcOC1uAixXCz6/nrcjB148Ls1bDGcpW6++WZ8//vfN6ZUstKTeld0Gd/97nexY8cOY2poZQfDr3/9a6NUvyO/5ppr4HQ6YbPZjNIeTz/9NKqqqoypoTXQtcqEQ3+hIA10nYYkGEobbsXMSy8wynuZKMpf+Qmef6hvMNzf8DZWfuYlXPr3A3c6DWaZoacHw8VvZN21fk3c7S+8GM3Z3T79lfXni7dh0fVX4rKp12DqsVa8kZTVaQ6K/j4PB062C+V0XC1aPeXXIufgK7jLK454sQyGwbQYsgzQhTYwG5wlk7Bn2yt99mH75jo8dPNlOHKgExdelotDrz0qrrfWUXd8Vz+Mx747FfsfF62FqFFGZ51MBdxbdmU2UIV4vG6S09VfMAx0R95bTU0N1q9fb0wNrYGulwyH/o7rDHUl3YFHX/w2Lo5ej6YvDXDnbzLBdF4av28ow1fe+Rpec3yAH855uLt7Qav0v2LCcceN5Db2/mREguGyA6+j7aBR9D+n4BrbhXj3l23oMor0MuCXWcHQu8vjaFumcs3FQz9aj6l7HsQDj8l73FPsWz9Vk8U5/bsbUy/4BOO7fqkHg2cd6rLGGMZfMB745BN8ckyf7m+M4baKJ+Geul9rcVz4L+p4SrdxR9BaJ7vcgKkly/HQ123I+eQA4r+oxdp6veLPLboJN/2TEzd+aQq0Nta4T/DBXhGab7yC5tgbPde9H3esrsNdF6vjG1pr7eI4Sn01RgmdDXpXdnJAN5FIGFM6WX/95Cc9nczD2ZUkg8FsNuPJJ588YShI/fX9D6Xe12sgJwpOLRi+8IUv9DuCfeouxx1raxBYcDl+X+/DouXP9/vkihYMn9uD518b+LkWOf4wC8+NSDBM/fMBdGb6Ss6fhMs+Mx4fdHT2PFmjlR06weBxEW7zzMKVF0zAlC9Px/l73sAebdhEthiuwJG4qAQTO1ETPtEQ7um5bYWo0C9/F7W/uRhuy9t6MChOHFRad88Ccaf+XBke2dJpdO8YM6VPz8Adt1+LSR0v4Uffq9UH6TVXwFn+MOZPfgvPdVyF+V/OwXgZBAf2oOW157BNnPuFjvmYff01sE29DBPGf4K9P1+NZU/uMdYXrrwJ8//hGhRNzUOeHN/oiuON+B40v9GEN9o69fOb1NzPedFY9uUvfxmbNm3S3ssnbWRfen9kP7l8Akjq3cUz1HoHg+w6WrdunTF3YGc6FDJOFA4nCgXpDHyP4V9Q88b/QlWJCb/43j/iHwcIBan1leeMULgcM2+/A//wub7dUYd/8zM8v115jGXYdL5VhrJy4xV5F0fRiZbMdHeZSrYYnn225/Xkihm47PIpmDIlF+jqxMeT5Hv5uhBHRMjgb8X7yZOMtc+cl6LPofbx1XjJaA3gShuuu/66rNf/xPmiePzF2WXXwXalvnjuzQ9jxbwiTBDXYL8IBendN5vQ9Jp8HcLFRU64v34Nzv/NZixTQkF6F5HKB/DN8h/jpVefwebHtqHto09w4NXV+LEIBbm1d6PP4EdvfiAO4ABeXx3AE92hkIvbRGugbs19cP7dJJw/4WJM+OgA3j2Si6Lr78DDK9ajrnodbpo8AUcPHTDWobPRX/7yF+NdX8ebd6bZ7XbjHbRfqZaPz/Z+FHS4QkGS3Wxyf/2R5YMZezmNFoP6yGmPibj887lIv/s7/LFPF5HxyOmiOvzKdx26O5/OM8keI6SPHK9P6Y9oCnwFpcPSU2AMPos710y3CsaNx3jZ0yIqtG5a2WAeNxWVWPFUTJI1by8f//ce7Y532MhxhamixdB2Zd9uJEP2OR74ZSlqDq3Aw3OLcP6hDzD+00eUrjOdfr1y38x0k/WvaJ4b03bX4vl3jOvb7+C+ej1t4ngfvhZ44/G1+NHr1+HfnroLk1pW44H/1FtYuUW3oeSu2fj7aRdj/FERKj8Vy+0YxutJZ5SsTOV3BjL6GyztPc4wmDvi09G7xfDTn/4Usg5dtmwZmpqacOTIEYRCoe6nkjKhII/zTB6XNJixjsGE1MgEwxXX4darc3GBKR9fW+rFrRPfwpNVT2L3Z7+JwJJcND24Dj/DVPzzI/fjix3PYe3/8zoO4yN0vrkdTb1HMIfLIAea+/sewwPrxvcNGun88fjk//QzwHsmZYIhq8tFf0JoqvZlIXFE2GN0FXW7+j6s+Mcu1L41HSu0a/A2pj17U9bjq/1THzm9I6tSv0Jcj68DDb26rfpcYydWhO7Bha8/iGVPdqJIHPuK4iN49u5Heh6DlRzL8ePF04D/Ho+LP/0B3hCtk0fPXE8CDZOBukSyxxl6jy9knMlw6B0Mv/jFL7BhwwZs27bNWALdwZCphBcvXqy9P5PBMNgBcOlE4aAFw+c//3l88IFoxg+JR/Hae7fhjyun4c6NRlEfl+OOVY9i2d3X4XL5BcZ0GmnZEuzdcjCmceT32P3CT/DD2v/Ezv/SZ50x19+Hf5OPlhqT3fobY+jW89jpfcEn8ZlfGBWeqMiezHlFVPzQgkF5ykmQ/eJfx3MjGgy51z6E5YuvAV6LA7Om44Nfvosrii9GXLtD73XnPWA46i2A3ueXLfOYrF6py/GMmzDpjwdwSH9uV9dnzMaNdXVOfBwuxSOviX0E3Ljs//Z+Gkp+32Q5rsXrWP1QI6Yt/ArefvqZE37pjka/u+66Cz6fz5hSyfEGKTOu0FsgENC6cs+E3sHgdrtRW1trzNXJ+TIY5M93fPrTn9bGSc5kWB0vFOQ+5fH0drxwOANjDCc207sBK+XA9FNPoCmVwu6aMpQtF6+a3Ujh99gp38tX+Xb5fWg8H9iNC276Bu6/9nJjC2ND7rh++o5GkSu+vhz/JkLhwreewdqNxm9jvLtaBAJwzeIVePjmzDcXTtNkN+ZfnYOulmf0O/2FV+Kyjw7g7T17sXdv1usPh0R7JVsL3jkon2yqQ11QtLiOtaHxqexQyMVtFffj2s98gPjz8gmld/E8Q+GsISv2118Xf4z9kIEwUCjIdc5UKPSndyhIsjL2eDzDMqYgyW6q4z2S2l8gyeXlev0Z+hbDFRvwq//9D/j9cVsMGfK7EF7RyDCWzfo5jSdvvgNTzV/DsvWfQ9Nxf15jmAyyK+m+YB2m/fEN7BX17ATLNZh26JnuFoPylJNw/sWX4cLfj0RX0l48e3Aq7vjSxfjgjVqsDkbQqTyVJAd8/w3zZ1yID5pr8YCYrzmlFoPxLfEr3jW+SGfDwxuWY/of+znv/rY/uQi3/dMsXDm+Ey3hZ9BkPMYqxxbmf/PruDYf2BP+ER4xHoOls4v8bST568/79+/HDTfcgK9//eu4/vrrjbk6+VMY8qkg+TMY8u58woQJ6OjoMOYOvewWw2CNRIuh9/4yx50xLC2Gb9T/F9577z2897/vwOXp36P1fxkzjiuN9OEPkM7udzdcfO0/49tLP4f0603YbpSNDeMx6bP6k0e5xzqx/+BQddENpTSe/9Wv8OpTj2iVft+h2k68tO4+PBr+JX71Wv+/laSZ9TAee0rczT81H0UTPsEnKaNcMRWXmT/G3lefEKEwFfP//SFcY2rDcxsHGYYH2/DSkz/Cjzb2hIIMm6k33gTb37yLl360jKFwFpMVvAwFSQZARUUF3n77bW1aOnr0aHcoSPI3385kKGSTlf1gX2earNxlJS8re6m/EMouG74xhsyAcroTuxubBnxE9bi0bZjw+4adaDWKRg35o21Tz0eX9pMMA7vi6msw4UDvL2jpTyWd39mEeNbnkFt0DaZg7/A+lSQfU530AZre7H0WV8B2fQ4+3nOcL5f1uQZyHdHqEe8G/XTVlTfhpkmv4JX+nkAe5DWmc9vy5csxf/587X1zc3O//edn2qnss3dFfSZcdNFF2g8JZodnb/KXVWWQfvjhgD90diYGn4mIaCwbkcFnIiIavRgMRESkYDAQEZFCC4ZPfUoONRARERmDz/InMe7/9DK95CwTaF9uvCMiosFgVxIRESnO+hbDzyYM3/8lmojobKAFg/yFwt7/VyQiIjo3sSuJiIgUDAYiIlIwGIiISMHvMRARkYItBiIiUjAYiIhIwWAgIiIFxxiIiEjBFgMRESkYDEREpGAwEBGRgsFAREQKBgMRESkYDEREpGAwEBGRgsFAREQKBgMRESkYDEREpGAwEBGRgsFAREQKBgMRESkYDEREpGAwEBGRgsFAREQKBgMRESkYDEREpGAwEBGRgsFAREQKBgMRESkYDEREpGAwEBGRgsFAREQKBgMRESkYDEREpGAwEBGRgsFAREQKBgMRESkYDEREpGAwEBGRgsFAREQKBgMRESkYDEREpGAwEBGRgsFAREQKBgMRESkYDEREpGAwEBGRgsFAREQKBgMRESkYDEREpPiUeP11+vTpOHr0qF5CRETnNLYYiIhIwWAgIiIFg4GIiBQMBiIiUpxSMIz/1Hhcdn6B9m8iIjq7DPqppAJTISwXTEPO+MmYfP5lRilw8OMD6PrkIJIfvY196XajlIiIxqpBBYNzUgk+/zdXGVMD+79/fguRQ9uMqbHFOsuJie0RxPYZBURE56gTdiX9y2dXDCoUJLmcXH6wPPVxJJNJ4xVBwCgfdgvrUL+xGnVPDPURBBDpPr8k4vUeo5yIaPQ6bjB86cJrjHcn56TWS8URKvfCWx5ArVE07N5pQ/JQCh17k0bBUKlFQDu3CDqMEiKi0W7AYPjs+fm4YeItxlSPAx/vw1/++hdjqn9yPbn+4HyErm1hhLdFkTBKhl1TAHNn2uBYHDIKhkoCUe3cDiNtlBARjXYDBsPn/+bvjHd9/bRrI977eL8x1b/jrX98evdLvN6P4MuyqymOuntkeT7clY1ofsvomtkTR/OzfrgKtJUM+XCtbshaJtFrGQ/q4qJ8RzV89SKIxDKRdbI8s0+jq2ddRN/v6iAiu3v217jSoc/PKHDB/2wzEnv0ZRKvN8C/vA7x7u0SEY09AwbDZ87/rPGur/f/8ids+dNmvHX0TaOkr+OtPxjmYjdckw8jtv1FRPcAjnUh+EqsMB/R78KjiTTMM91YuymATHWdX1GNtQtsQHILqsq9qNqahEku8/2lxhIGixMe2wVI7goj8mujrA8z7POdmLg/qrVm2o+YYV24FjVzjdmwI/DEWrhn5iC9N4bItgha0ha477WLNYmIxq5+g2H8p85H7vjJxtTAXvngZ/jFB43GlEquL7dzytIJhG53oPRBP0IdfjxcUgjTvjCWFM/GIlHpL7q9GEu2dcBkmYMHHtBXsR1tReSZKiy/3YcNIjw2VMxGbTwN01S7aCtk60J0RTFm3yPCo8Eo6kdXkx/Fty+Ct3wRnOURsVYOZsx26zPnenDjVBNSzQG4bi7FkvIlKL3JhZAILCKisazfYMgdf6nx7sTajsZR2/m4aEV0GSU9TmY7vaUTryKQeXT0jumwjEsj3uhF1CiSouUxtMMEi12v9sNBH7wVG5AsdsJV4tJeJtm7b86BRVvCsL8FoeMEgi6F9qYtxnthZwvaU+Lf55m0SfsNFhETHYg9HsoaWO5AINwi1iQiGrv6DYbOT/5gvDuxL0z4O7hzF+OS83KMkh4ns53e0ums6nXyRVoF/9FhY7pbEl1iMfMlefrkLD8a40lE66sRrAxqL4+tn46d9GHEjLenquiSieKfaRxu0qe7bepAp/GWiGgs6jcYPvnrJ9o3mk9EPn1088VzjCmVXF9uZ0gc/FBUwSZcIOtihbhrF/V+6n05EG5HsMINq6kd4WWzYbFYtFeg+czcv7e9L1NqInJL9Olu9+Yj13hLRDQWDTj4LH/mYiCTzvs07vzbbx73+wrHW/+kPd+K5DETbLOD3QPNkmO9HYUiMpIx+ZhpEXImya9FbIW3IfPgqx0WmRxnQGyXaK3IMYe5HvQ8mJsPn2sGB5+JaEwbMBjkbx8N5Bs5953wewrHW/+k7fPj0W3tSBe4UN3ciJrKIGpeaEb1rflIJ1/EY4/JhdrQdQgw2zyoW+mGa2EZql+uxpy8MzQY3BDCq3vSMBf7EN5Rh+rKajTsisBj1ccgiIjGqgGDQf4gnvzto97kr6qe96nzjKn+yfWG+gf1oss8CGxLIHWhFY4SFxyiAu5sDmH5vT5jQDoG75oQYl1m2Bf6EfyeR7QXoghsP1PfOY7Bd/9y1O7ugmmKHc4SJ6znJVC7KcbBZyIa0074I3on89tHGf/5h9XGu+OTv5Xks7YhYCvFUH/n+IwrEGEwIwd4L45Ic1b4eBuQeMCClrU2lG4yyrQv0M1DbnMAtgVj7kyJ6BwzYIshQ1byuw7/3Jg6PrncYEOhxwXI0R4tdcBqlIwJ+4rgXhFE9eateteVPIfFQUQW2mBKtSGqhYLeunGVTAQ7mIhorBj0/49BjinIn7mQ32jO/vJb5ycH8ceP/4D/++f/wh8+PrluG63FUJwZqm3HFosTPmNqTJCPx1a6Yc0ebU4lULtiCfyN8lroLYVCfY72ZTi2GIhotBt0MGTTvxl9qQiF9/DJXz82Ss9d1lkuFMpwSHchvj3GX1IlojHtlIKBiIjOXiccYyAionMLg4GIiBQMBiIiUjAYiIhI0T343NraqpcQEdE5jS0GIiJSMBiIiEjBYCAiIgWDgYiIFAwGIiJSMBiIiEjBYCAiIgWDgYiIFAwGIiJSMBiIiEjBYCAiIgWDgYiIFAwGIiJSMBiIiEjBYCAiIgWDgYiIFAwGIiJSMBiIiEjBYCAiIgWDgYiIFAwGIiJSMBiIiEjBYCAiIgWDgYiIFAwGIiJSMBiIiEjBYCAiIgWDgYiIFAwGIiJSMBiIiEjBYCAiIgWDgYiIFAwGIiJSMBiIiEjBYCAiIgWDgYiIFAwGIiJSMBiIiEjBYCAiIgWDgYiIFAwGIiJSMBiIiEjBYCAiIgWDgYiIFAwGIiJSMBiIiEjBYCAiIgWDgYiIFAwGIiJSMBiIiEjBYCAiIgWDgYiIFJ8Sr79Onz4dR48e1UuIiOicxhYDEREpGAxERKRgMBARkYLBQERECgYDEREpGAxERKRgMNBpsc5ywl5gTBDRWWFEg8FTH0cymTReEQSM8tFIP9bRfYzDbmEd6jdWo+6Job4qHtTFM38X4rWDV51oOI18iyEVR6jcC295ALVGEY0R77QheSiFjr1Jo2CoRLChQv5NhBBPGUVENGxGQVfSR+jaFkZ4WxQJo4TGiKYA5s60wbE4ZBQMlQ7Etsu/iS7x10FEw20UjjEEEEkmEa/3wVcvwmKP3p2QeL0B/tn5xjK6/AVBRHYnursc4rvq4JtlzDTIZRpfz1qm93bWRUR5HHXLfajbZSy3J4HmZ/1wHbfvPB/uygjiCX27yT1xRMUxO4y5/XEsr0M000Ui9hF/OQh39j5myWPo6V5L7I4guCBzrEb3yo5q/bqI+ZF1xqzjriflw7W6Ac1v9exbPT9j26/UIPiysR2xTHSjB/lXLUVNZtuZMmOtns/K02va37MdOf2CX70uBS74n21WP1txbeLiffc5EdGIGbWDz2abGx4r0BIJI9LcjnSODe51IQSuMxaYW4Otq13IT7egdpUX3sowOs12eNbViWrOMCuAUIUL1kkpJHaJO1BR8acnGdtRAsSMGQs9KDrWgsi2CGJ708iZ6cbaJwKwG0v0Nm/jVvhL8pGO18Jf7kVVuBMTiz0IPtW9d5U43rX32jHxYBhVYnn/xhgOiwrS95hPr2gLfGhc74H9UqBdHuv2ODonFMJVkXXOksUJj+0CJMUykV+L6cx65k6EK8V1WFWLlrQIgqz18iuqsXaBDUhu0fZdtTUJkzy/7y/VF8gocMA5aT+i4hrEu8R6s8oQebYMdpNaVl2RHTp9mYvdxnbCiO5JwXyV2NfGecZcOwJPrIV7Zg7Se2Pa9W5JW+AW18ZsLEFEI2vUBoOoxRC63YHSB71YssAJ1w9iSJkKceM9soLJh/9uB3KOxhH6Rin8T4uK9HEvnDVxUfHbMadCri+W+fY8FJ7XgfCDxZh9j6g075mN4gfD6DivEHO+1atSTIbguqkUS8qXoPRmFwLNKZim3gjPXGN+tgI/3A5RscVDuHOBH7WiAtxQ7kRodxpm+xz4jMUUX85DDjoQ/a4XG8TytZWL4AvWIpJIQ1TZmLdyDqymFGI/cMEpj/XBuXCsiKDjWD5mzJZLZHQhukI/n6qGzHodiIj9ex8X1+FpP0qXifXktVro0tawHW1F5JkqLL/dp+17Q8Vs1MbT4vxEkGpLGOT1vGs2FolrMPcbW5A4ZoLpWN8yi+1OY4UBdEXhL5breLHon7yIHARyZrjglvPmenDjVBNSzQG4bjau900uhMR1IKLRYdQGQyr+IgL7jAmhY9MWtIg71hyLQ9xz3onpUyDuOH+HdlHhuEqM14FOdIpl86yyujOW+W0Y3p3aJnQ7vYgl0atSTKElHBDVdkYHQg0togrOgeWGftoMd0yHZVwaybfbYcvsW7w6OsXex+Wh6B5juWypj8U/8uH4fjXKRIXtLM5HbJMf3mVVCIszclhygP0xbNjUcxRoWALHVVY4l8WNAmF/izg2431mvYNJtJizrkNOJ/6UEtdqin7s4aAP3ooNSBaLgDWWMUFUxGZxftoShvd+h6rMNd+3H4ePiH/3U2YS6x1PKhnDFuM9EEXLXnEw48R6Ysp+g0ULyNjjIeV6B8It4lMgotFg1AZD5/7eA5phdMqaw2xGkahaLpogKhrrPAQrg1kvp6h6M/Rl0um+1U3yfVF2YQ7yjGmxNxE8xtuMbZ04LP418ZIifTrb5ItEJWeCdX72vsXr1uN0sax5FKFmURVanFi6Mojq+qg2LtG4Uva+F8nTEgd7GDFt4eNQljHWm+yAL/s4Kj2wZffLzPKjMZ5EtL66exmPssDwKbpkovhnGoeb9OluIhBlqBPRyBu1wZCb17uv3oVcWZelUmgT9/IfHhXVS3wDLBZLn5dtgQwVfRmTqW8FaLlElB3pwn5jWuwN+fcabzNKciGrsMPvt+nT2Q5+KKq2NOKP9d23xWJD6WZjOUUUgQUO2KaKZWSX1apaxN43w7rgYfjEGYnTEgc7ccAxjf4Z6+2PoLTPcYjXzbJTy45ghRtWUzvCy2Z3z5NdZSOh7X0tbpFbok93uzdffApENBqM4sHnOfBlPbGTf+88zMgR1X0yKu6Yt6J1r6hHp30VZdlP9RTY4SxxwXGVnDCW+aILweyB5lnVsE8VobInhp42iRkzXMYgsCYfnrkzRJujC8ld/dzDP9+K5DHRYri2LGsdsZbWVeOA1ZjO5lrTgMgL4k5dTuyLISLHAna1611PC2OIJruAPDuWigqy26wgIm8lEFmXPcaQLbOeFW5lMN0Kh7gOsrtKtipyJsmuua3wNmQeCLbDkjMyLYbYrqTWRTdjbvbTTfnwuWZw8JlolBi9g8/nWeF5IYq69bLbJYLwd+wwp9vx6mbZe90B/7YYUhNs8PykDv6FLrgWB9DwkxpUr1kKp7zVl8v8cAva/5IP1/pmNG4OIri5Ec3rncgX23lx4wa5UDfTNA/Cr9ShurIadTvC8BWbRXi8mtWfn2WfHy/GUjDZPNha74dbVMJLRcW/dXM11n7LqbU0egsnP0LuVWK5l/UxBnm8jbMKRY3dhujTwJZVLyKRNsP+nTAi8ljX1yFa6ULhuA60NGaNMfSyZfOraE/nw1kZQXCx2O7CMlS/XI+aylVwW2UvvmhfHZJB60HdSrcxvxpz8kZosLchhFf3pGEu9iG8Q7/eDbsi8FjlCAQRjQajd/D51yGExA3uDKe88y2EqSuO2mUe+DJ905tLsWBVGB2mGXCvFBVp+Txxn5xEeE3WMjt98KwJI3HIDOsNotK8wSq2I1oKcjvZA9JIIbY5hLZxM0SLwwn7FBO6dtdi+f2+Afv8Q3cvEOHUIcLBDX9lEGV3inbCnjACA60jjte7KYrOHIc2xiCPN++IOJYVPr3lsi+A2Q+GEHsPKJTHeqsducfa1fPpT5M4x2VivVQuXOViuytFMOZ0IrrJa3RpxeBdI+Z3idBZ6Efwex7RXogisD1rkHtYxeC7fzlqd3fBNEW28JywnpdA7SYR9MYSRDSyRvT/+Sx/f8hnbUPAVprVrSO/JDUPuc0BY6zgDJNfcJubi9iagcYGaEjJ7j7ZJ/heHBE5GJ/hbUDiAQta1orPoftBAPnFOx/sXVuM8RIiGg6joMVwAXK0Ryj775uns8y+IrhXBFG9eavetSU/+8VBRBbaYJLdaloo5MN+q/ybyBF/HUQ03EY+GMw2eLRHKH36F6DoLBdCaXktEukcvWtLfvblLhQigdpMtxqcWLpG/k30euyWiIbFiHYl0bnNOksEgqz4012Ib49lfeGNiEYSg4GIiBSj93FVIiIaEQwGIiJSMBiIiEjBYCAiIkX34HNra6teQkRE5zS2GIiISMFgICIiBYOBiIgUDAYiIlIwGIiISMFgICIiBYOBiIgU/BE9IiJSsMVAREQKBgMRESkYDEREpGAwEBGRgsFAREQKBgMRESkYDAbrLCfsBcYEEdE5bESDwVMfRzKZNF4RBIzyYbewDvUbq1H3xFAfQQCR7vNLIl7vMcqJiEavkW8xpOIIlXvhLQ+g1igadu+0IXkohY69SaNgqNQioJ1bBB1GCRHRaDcKupI+Qte2MMLbokgYJcOuKYC5M21wLA4ZBUMlgah2boeRNkqIiEa7UTjGoHe/xOv9CL4su5riqLtHlufDXdmI5reMrpk9cTQ/64dLGRfIh2t1Q9YyiV7LeFAXF+U7quGrF0Eklomsk+WZfRpdPesi+n5XBxHZ3bO/xpUOfX5GgQv+Z5uR2KMvk3i9Af7ldYh3b5eIaOwZtYPP5mI3XJMPI7b9RUT3AI51IfhKrDAf0e/Co4k0zDPdWLspgEx1nV9RjbULbEByC6rKvajamoRJLvP9pcYSBosTHtsFSO4KI/Jro6wPM+zznZi4P6q1ZtqPmGFduBY1c43ZsCPwxFq4Z+YgvTeGyLYIWtIWuO+1izWJiMauURsMSCcQut2B0gf9CHX48XBJIUz7wlhSPBuLRKW/6PZiLNnWAZNlDh54QF/FdrQVkWeqsPx2HzaI8NhQMRu18TRMU+2irZCtC9EVxZh9jwiPBqOoH11NfhTfvgje8kVwlkfEWjmYMdutz5zrwY1TTUg1B+C6uRRLypeg9CYXQiKwiIjGslEbDOnEqwjsMybumA7LuDTijV5EjSIpWh5DO0yw2PVqPxz0wVuxAcliJ1wlLu1lkr375hxYtCUM+1sQOk4g6FJob9pivBd2tqA9Jf59nkmbtN9gETHRgdjjoayB5Q4Ewi1iTSKisWv0BkM6q3qdfJFWwX902JjulkSXWMx8SZ4+OcuPxngS0fpqBCuD2stj66djJ30YMePtqSq6ZKL4ZxqHm/Tpbps60Gm8JSIai0ZvV1K2gx+KKtiEC2RdrBB37aLeT72/X7y3I1jhhtXUjvCy2bBYLNor0Hxm7t/b3pcpNRG5Jfp0t3vzkWu8JSIai8ZGMDzfiuQxE2yzg90DzZJjvR2FIjKSMfmYaRFyJsmvRWyFtyHz4KsdFpkcZ0Bsl2ityDGHuR7kG2XyqSifawYHn4loTBsbwbDPj0e3tSNd4EJ1cyNqKoOoeaEZ1bfmI518EY89JhdqQ9chwGzzoG6lG66FZah+uRpz8s7QYHBDCK/uScNc7EN4Rx2qK6vRsCsCj1UfgyAiGqvGRjAI0WUeBLYlkLrQCkeJCw5RAXc2h7D8Xp8xIB2Dd00IsS4z7Av9CH7PI9oLUQS2n6nvHMfgu385and3wTTFDmeJE9bzEqjdFOPgMxGNaSP6/3yWv5Xks7YhYCvFUH/n+IwrEGEwIwd4L45Ic1b4eBuQeMCClrU2lG4yyrQv0M1DbnMAtgVj7kyJ6BwzCloMFyBHe7TUAatRMibsK4J7RRDVm7fqXVfyHBYHEVlogynVhqgWCnrrxlUyEexgIqKxYuRbDMWZodp2bLE44TOmxgT5eGylG9bs0eZUArUrlsDfKFsRekuhUJ+jfRmOLQYiGu1GNBjOFtZZLhTKcEh3Ib49xl9SJaIxjcFARESKMfNUEhERDQ8GAxERKRgMRESkYDAQEZGie/C5tbVVLyEionMaWwxERKRgMBARkYLBQERECgYDEREpGAxERKRgMBARkYLBQERECgYDEREpGAxERKRgMBARkYLBQERECgYDEREpGAxERKRgMBARkYLBQERECgYDEREpGAxERKRgMBARkYLBQERECgYDEREpGAxERKRgMBARkYLBQERECgYDEREpGAxERKRgMBARkYLBQERECgYDEREpGAxERKRgMBARkYLBQERECgYDEREpGAxERKRgMBARkYLBQERECgYDEREpGAxERKRgMBARkYLBQERECgYDEREpGAxERKRgMBARkYLBQERECgYDEREpGAxERKRgMBARkYLBQERECgYDEREpGAxERKRgMBARkYLBQEREik+J11+nT5+Oo0eP6iVERHROY4uBiIgUDAYiIlIwGIiISMFgICIiBYOBiIgUDAYiIlKMmWDIL3bCcZUxQWOYFY5b7cg3poho9BnRYPDUx5FMJo1XBAGjHHDA/0IciT2iPF4Hj5gTqq9GzZN1cBtLjAX6+WWf11gRQER8JvF6jzF9OtRtuZ+qR836OoTWaJNDSN9P5u9paI6d6Nw08i2GVByhci+85QHUGkWoeBjuq8zo3FkFb8UGRCD+Y9+fQmpvG9qNRWhsahdhn0p1iMrbKBgytQhof0cRdBglRHRqRkFX0kfo2hZGeFsUCaPEY80T/2xHbPEGhLfHxH/oISy5wQbb3ABi+iI0RsXWzIXN5sCSzUbBkEkgqv0dHUbaKCGiUzPKxhg8qIsn4Ss2i/eFmCe7BbSuJL08uSPTKZPpnvAj+LLsromj7h59Tv6CICK7Ez1dCrvq4Julz4O3AYlkAg1eY1qwr48q60t6WRTV1xkFs3yo2dHT7ZXYHUH1A1ZjpjTw8Shm+dEoz2N3HZZq4yUO+OqjiMsuM7ntRByRSvdx+t/z4a6MIJ4wlt8TR7TeJ7aic1TK404iuj5TItbQzjmJ5o3ztOlM91ZQu04924k8vhTZZ9THCa+BZMXSx8XxZc5HLBNccIExz7BOtP+yr09merV6PI0re85Byp/tR8Prxue6J4HmZ/3i2unnMva66ohGt1EWDBFsqPAiFE+J9x2IyK4BrSupf+ZiN1yTDyO2/UVE94iCuTXYutqF/HQLaleJdSvD6DTb4Vknw0UIvonkMRMsM3v6nx1TZDVsRmGxSy8Qla9rmijrSuLnTWKyQITSOo9YTrRhmiN6C2ZcIZzeetTdq1bhfY4n21VLxXbcoupMoHZZKTa8BczbuBae4onoDFfBW+7HhubDyC/xobqi/2iYt3Er/CX5SMdr4RfXpirciYnFHgSf0s8nKrYR3ifOwCkCSoahOPbAQhtMh2IIfWuLtowuH84KJybuj+ottfdNKLy5DPXGdvoY5DXwPFWPspsLYXpfv3uP7p+o7af/s8lmhn1+z/G0HzHDunAtauYas68LICSunS0nre8/0oKPprrFtZM3EEQ01EZZMHSISjWMLq0vII3DsmtA60oaQDqB0O0OlD7oR6gpH/67Hcg5GkfoG6XwPy3WfdwLZ00c6Ul2zKmQK9Shda+ohix26DFQhqtFZZc6lELOtFtg18pKMV2UdSVEBSSm5q30wD4phdgPXHAuWALvg6Vw3h5ALCUqs38uM9YxKMdjlEmyYn1SLDuhHVvKZ8O/Uy+2TckB9kVFKGwQFWItqu7xoao+gtajNn2BbAV+uB05IhRCuHOBH7Xi2mwodyK0Ow2zfQ582kJiW2siotIWFX95AJ4KcexmcezVpQhp8zNMSDX5UXz7IrHvRZhdvEQLFLkdf4GxSJZBXQNxfHPsoqLeF8aS4tlYJIJr0e3FWLKzU+ztxLqyjsdZHkEXcjBjtv6owbx7bkShSd2/4/YQEuwzIjojRlkwnJx04lUERIWmu1Or0NN7f4f2GS64SozXgU50irl5Vnk33IFwQsRMjgW3yG6ie2bAMkGE0c79YgELXLJS9F4Ny7gU2pvkHbYdDouovPfHsGFTVjztCyHyW9GqKbAaAaNTjycjFzc+69ND4UEnfEYoSClZsRU4EHy8DO4SJ+wF4s5+hRe+oIykXu6YLo4rjeTb7bBlzk28OjrF2Y3LQ1Gma2bnEvi3d8A0dR58s3KQat4AX5/+fHHOa7JbECJQdibEdiyYfodR1G2Q18A4vnijV2ytR7QyPnCwd8tcb8POFrTLRuN5MlIG2n8AL2otSyIaamM7GNLZFUMOLpog7oWt8xCsDGa91K6MWENCVFT5sMzOh6u4EGbZZVTdinYUYnop4PpCHkxHk2jRKtMimGVvRfpwn0Hv2oMybiYid74+LanHk2FGjqjXUm+FUZ0VClLghyHERCYV3rwU/spq1L0i++Ub4c+MiWSbfJG48zbBOj/73MTr1r4dNdEXRGV8TL7rQuyZUN+KObUfbb0D7L3Dono24aLJxnS3QV4D7fjS+OiwNqvHvjbsP636e+D9h/bL/RPRUBvTwaDqwodHRf0R3wCLxdLnZVtgdKY0/RzJLlEZWxfBPkXcUSdjCO8LIykqaIvNj1umiVp875uo0hZuQ0pWaqaJapeR4J6cK/55GJ3P6NMDa0ekoR2mmWXY+pRH7W/fGUDpDTbt+BwLxJ3+0zF0ma1wf1vvGFIc/FBUu+KO/LG+52ax2FDa3SoQLZAKF/L/khItkhw4y6u7B6e7mUULo3eX0aUTRYSl8eFBY7rbIK+BdnwmXDBRm9WjoAh5pzUUYOzfnKu0ziRPntw/EQ21sygYtmrjB6ZpX0VZdqVXYIezxJX1rekwYklR00yZg1umAPsTMjBi+PnbXTBZ5sCeBySaM8+5xBCVKZJnx9LsgeaCMsyZIfvTE9o4xIkcXuZBVVMXcq4rQ6hSVNpaqQuBZyNo/KE+4NvRHEHtqlK8Ks4Blxb1/SLf863awLn12jIlXOQ3wl0lju4nihyVfrgK0mjftgTexnak85zwZz2lpMuHvUJ/SkknwmSW2MKxJFqfN4q6DfIaGMdnmx1UgshRblPD8KQZ+8+ZgXnK/n2YYzutxCGiAZxFwdAB/7YYUhNs8PykDv6FLrgWB9DwkxpUr1kKZ9adbGinuAudYIZ5XDta6/SycHM7UmZRJu7wM2XSllUhxA6ZYf9OGJH6agTX1yHywlLYJqQQ+2lVn+6N/nUgdPedCDSnUViyFqF1suoUrZSPcmGdvRQRbYzBhaVrGnGLBUi9He35sl/GPj9ejKVgsnmwtd5vLN+ArZursfZbTminNysA3635SO95Ef4KUaEuCyAin1K61Y/qXt1TOQ4/ml+oQbCyBo3N1dr4Siom1uszRjLIa2AcHwpcqG5uRE1lEDUvNKPaeXqxIG3Z/Cra09n7b0D0ZQ+sgxnVJqKTdhYFg7C5FAtWhdFhmgH3yiCC5fPEnXQS4TUe+LKfEtrcgqT8P5nuF/MyFWGmTN4BZ1eO+0IoXRZCVNzJF8q781vtyD/WjvCqBSjNHgw9IREOC7zYskdsZ25Qe04/dLcXoV2dyL1BjjEEUXZnHg43h7DyX9VniDJCdy8Q4dchwsFtLC/u8veEEbjfJypnBwLL5qBQBNuLlXJakk8pietxLB/OFdldSvL4Izic59BbG5eIFsaOKiy4u//9DvYayOOr2iFaKZdY4ZCttLzDiP4gLPZ2mpp88CyrRbzLpO/facUFb9Ui1Cz7mIhoqI3o//NZftnKZ21DwNb7cUo6U7RrXtyJLRan8Yjr6Ce7y2yXAl0tEcSyQrusIYGllpZefz/yy4bzkNsc6BlXIqKTMgpaDBcgR9xdZveTE2XrsLqxqrIaNZkuQtmNVhmB22ZCKhE1QkFvpbhKJoI9TESnZ+SDwWyDR3v00jemfjmVhtHmUnifTiCdY9e7CGU3Wkkh8FZtVrebGz7t72gw37QmouMZ0a4kopMjWwWF0L7W8F4ckeaTGeMhosFiMBARkeLseiqJiIhOG4OBiIgUDAYiIlIwGIiISNE9+Nza2qqXEBHROY0tBiIiUjAYiIhIwWAgIiIFg4GIiBQMBiIiUjAYiIhIwWAgIiIFg4GIiBQMBiIiUjAYiIhIwWAgIiIFg4GIiBQMBiIiUjAYiIhIwWAgIiIFg4GIiBQMBiIiUjAYiIhIwWAgIiIFg4GIiBQMBiIiUjAYiIhIwWAgIiIFg4GIiBQMBiIiUjAYiIhIwWAgIiIFg4GIiBQMBiIiUjAYiIhIwWAgIiIFg4GIiBQMBiIiUjAYiIhIwWAgIiIFg4GIiBQMBiIiUjAYiIhIwWAgIiIFg4GIiBQMBiIiUjAYiIhIwWAgIiIFg4GIiBQMBiIiUnxKvP46ffp0HD16VC8hIqJzGlsMRESkYDAQEZGCwUBERAoGAxERKRgMRESkYDAQEZGCwUDDKr/YCcdVxgQRjUojGgye+jiSyaTxiiBglI8tAUTE8cfrPfrkuog4lzjq7tEnzyknPPcAQvXVqHmyDm6jZKicHX9LRKPDyLcYUnGEyr3wlgdQaxTR2UpU2vtTSO1tQ7tRMlQi65eLvyEvQvGUUUJEp2oUdCV9hK5tYYS3RZEwSuhsFcKSG2ywzQ0gZpQMlY7miPgbCqMrbRQQ0SkblWMMjuV1iMaNboE9CcRfDsJdYMyUZvlQt6un6yCxO4LggnxjppQP1+oGNL/Vs43mZ/1wZW8DVix9PIL4HmMZsY3qe4Nqt5DRTRRZZ0waAjvE8vE6ZJY6Pgd89dGe/STiiFS6xRH2L3+BOIbdie5zi++qg2+WMVPT97iDch257Eked/5sPxpe79lX4vUG+GcbR+ZtQCKZQINXn5Ts66NiObWrSC+Lovo6oyBbgQc1cvsJcYzadj2ok5/rjkxHT6Ybzo/gyz2fZ/wFv7hq2QbzWRHRUBl9wTC3BmvvtWPiwTCqyr3wb4zhcIELvsd8emVa4EPjeg/s5k6EK73wrqpFS1oEQUUIAaNyyq+oxtoFNiC5RdtG1dYkTDPdWPv9pfoCguepepTdXAjT+wlExZ1mdP9EEUguFBrzh8q8jWvhKZ6IznAVvOV+bGg+jPwSH6or+okGcW7VFS7kp1tQu0qcW+UW7L/QDs+aGswzFunvuJ0VzgGDZkByX+vcsI1LYou8jmJfSZMN7v8IQrtKwTeRPGaCZWZPxeuYIvdiRmGxSy+QATxNlHUl8fMmoyhDfGbBTWVwTEohGvTA29hhzOjLXOyGc9J+/Xz2pGC+SnxWGzNnPHyfFRHpRl8wfDkPOehA9LtebBCVQG3lIviCtYgk0hBVPeatnAOrqQORcie8j4cRftqP0mURdJgKceNCvcKyHW1F5JkqLL/dp21jQ8Vs1MbTME0VlaxcoMCPOXYzsC+MJcWzsUiEx6Lbi+Hf2aWtP5RsU3LEfqIiFDYgvK0WVff4UFUfQetReTa9zCpCnimNxE9L4X9anNvjPsxeK9Zr6oBZLj7AcS/Z2QmTvoXB+2IardtFcIpr45PXUe6rPo70BAvsWougDq17RaVtsUO/qmW4egqQOpRCzrRbYNfKSjFdlHWJFkFYm85wILBpLVxTUogF78SiTQOHgqYrCn/mfP7Ji8hBIGeGSx+gHsbPioh0oy8YUh+Lf+TD8f1qlImK3lmcj9gmP7zLqkTlY4fDIirag0m0mF1wlRivnE78KSUqkyl6dRUO+uCt2IBksbN7GRPSopbLgUUucMd0WMalEW/0IqqtoduyJiYiaWilZJ93gQPBx8vgLnHCXhBDaIVXhJ1alWoOpcVRmmD95wYEFovjnmUFGvSWRigu5g9w3NHK+Mkfd2MVfOUiONvtcGauo0iXtGgR5EyTC3QgnBBbzbHgFtkSu2cGLBM6ENu5H8iz6N1y3qvF8aTQ3rRFrmAwoehb1ZhnSSP2gztReqJQEFLJGHq2EEXLXvFhjpNbEobxsyIi3egLhjWPItQs/pO3OLF0ZRDV9VEk98TRuFL2OhfBLG4eMdkBX2UQwe6XBzZZnjHLj8Z4EtH66u5lPNkLTL5IC4qPDhvTGfvasH+IH2oJ/DCEmKhLC29eCn9lNepekX3kjfAr4waGbX7RwmlHepIN88rFcW9s1MZHohs9elfRkB63A/4X4ki+UofqzHW81yZioUesISEq33xYZufDVVwIs+wyqm5FOwoxvRRwfSEPpqMipDcbK2hMIn9FlS5aSaFBhMIJDeNnRUS6UTj4HEVggQO2qRZYbirFklW1iL1vhnXBw/ChDSlZGeyPoNQi5vd+3ewTM+0IVrhhNbUjvGx297xAc1YtcvBD7c544qXGdEZBEfKya0aDadxJ9+D32BlA6Q027RgcC5bA/3QMXWYr3N+Wx9pbB2rLnbBZ5THLbhPRStor2k+zPPCXiNnacZtwwUR96W6ncNz2H/rhvsqE9m0+zM5cP3EXrtS1TT9HskuEmnUR7FNytDv78L4wkiLoLDY/bpkmWm9730SVsbguhdg2sZ0CF6pfDvQaRD4FJ/lZEdHpG3XB4FrTgMgL4g5fTuyLISLHEHa1A+PyULQwhqisqfJExdrrSR1Hid7tJFsVOZNE9RTfCq+449XZYcnJqkWeb0XymFhrVlCpuOZV2HsN4qbwsVguf9qinvICv9avPjguBJ6NoPGH+gCufKSydlUpXhWVPS4t6vslrweqEXm5Dj5tEF0OtG6A95kWcRQ5yJspirTjNsE2Wz1uR7ntpI+7KEekS6oFW8u3dD8mbBcVvVrXhhFLiqiYMge3iHX3J0KiLIafv90Fk2UO7HniKJv7+SpZolRce/GZTZ2HYP1S8emchkF/VkQ0VEZdMISTHyH3KheWvqyPMbgWB9A4q1BUYm2IPg1s2fwq2tP5cFZGEJT98AvLxJ1pPWoqV8FtlV0Xbeg6BJhtHtStdBvzqzEnL+sB931+vBgTFZ68q21uFOsGUfNyHIFZ4g5YUYdXfyvWs7oRfrkGwcoaEVqiNTLOmH1C4u76o1xYZy9FRBtjEOe1phG3WMTpvB3t+4W+3xwWx2SHe50xxiCOvaZ0BszH2tHyspjf33G/0IxqZ+8q8sTH3dYl9mWeAU+9aDmUuFH2eATVt+aLu3NVaKdopU0wwzyuHa11elm4uR0psyhDT1lv0WVOLBHhYCouQ3290RV2Kgb9WRHRUBl9XUmbxd3mpig6cxzaGEOwfB7yjsgBWx/k/SqafPAsCyGWyoVL9sOvXApnTieim7wo1fq6Y/CuEfO7zLAv9CP4PY9oL0QR2K72d4fuXoCqHe1IX6K3NhxiG5G14V7fyO1A1cMBhOUjlFMdcLnsyN1Xi0jSmD0Iobu9CO3qRO4NcowhiLI783C4OYSV/6qdjUqe2xoRJrDoYwzi3OzmDoT/3Quf8Thon+POO4zoD07+uGPf9iPU3Anzl93iuPzwfFlU5msjfQd0N7cgKf+vr/uTCO/Ti7rL9iV6yvoRXeZBVVMXzCIctmbGSU7B4D4rIhoqI/r/fJa/b+OztiFgK9Ur/WEjK5hCmFPtCO/M+r71ddWIPuUEtjngKB+CgdNhI78oNg+5zQHYFgzvlTzzTu6z0v6mijuxxeJEf6M4RHRio6DFcAFyxF2gq8Rxen3RJ2UinIvFHfnGekQql+qPaorWRd06B/KPtSP2wlgKhbPd4D4r+autcp58IIqITs/ItxiKM8Od7cN7lyd/ruHpMjjysmqSdAei1Uuw6LGx9qtNZ3OLQRjEZzWif0tEZ5kRDYbRQN5p2i6VFU4K7fwhv1GNnxXR8Djng4GIiFSj8AtuREQ0khgMRESkYDAQEZGCwUBERIruwefW1la9hIiIzmlsMRARkYLBQERECgYDEREpGAxERKRgMBARkYLBQERECgYDEREpGAxERKRgMBARkYLBQERECgYDEREpGAxERKRgMBARkYLBQERECgYDEREpGAxERKRgMBARkYLBQERECgYDEREpGAxERKRgMBARkYLBQERECgYDEREpGAxERKRgMBARkYLBQERECgYDEREpGAxERKRgMBARkYLBQERECgYDEREpGAxERKRgMBARkYLBQERECgYDEREpGAxERKRgMBARkYLBQERECgYDEREpGAxERKRgMBARkYLBQERECgYDEREpGAxERKRgMBARkeJT4vXX6dOn4+jRo3oJERGd09hiICIiBYOBiIgUDAYiIlIwGIiISMFgICIiBYOBiIgUozIYrLOcsBcYE0OpwA7nLKsxcaqscNxqR74xRUR0thnRYPDUx5FMJo1XBAFZuLAO9RurUfeENnV67qlDXGw7sk6fDDxRh+qN9ahbqE+f0APViOxoRHXW8u6n6lGzvg6hNUbBUOlnXyfPg7q4uJY7Tv/audY0ILKrDn5jWrcU1S9H0LjebUyfjgAi3Z99EvF6j1FORCNt5FsMqThC5V54ywOoldPvtCF5KIWOvUlt9lBK7u1A6lASbe8YBSeSb0GhJQ/m84xpoX1PEqlUh6jMjIKh0s++RlLuFHE8eTkwGdO6PFimFiLvErX01NQioH3uEXQYJUQ0OoyCrqSP0LUtjPC2KBJysimAuTNtcCwOaXOHUmixA7aZcxFoMgpOQWzNXNhsDizZbBTQKUogqn3uh5E2SohodBiFYwx6F0N318K6iLg7j6NudRCR3UbXw544Glc69PkZBS74n21GQtzRy2USu+rgyzXmGfSuK6PLSipwI/hyvHudZDyKuuX6dgM7xPTcQvHODHuFnG+slzmee+REzzarl9ch+paxnbeiqLm31yjELB/qdvV0nSV2RxBcoC8z4L76kb9AXodE93bi8jxnGTO7TYSvXgRt97WogSd7zOaqpajekdWNJ46l+oHM2IveHeUrNov3hZgn58fr4NHOe54oEUdZ7NPWy3TRHe/cNNmfoezqktszZhHR6DMqB5/7EhXmfCcm7o9qLYv2I2ZYF65FzVxjNuwIPLEW7pk5SO+NIbItgpZjRfAsnCHWHEg+fI/54CpIo6XeD295Fbbsmwj7vfp2a9d54d0uOzlSiG/K6urqVyGc9xQh/dsIwtvj6BqXD4e3Gr5MZVzgQ+N6D+yXAu27xF2yWKZzQiFcFSEErjuJfc2twdbVLhRO6ER8u9jOrnbgUruotHtVtBYnPFZxXpGwCJEuIM+BMnGuelU9DzWbyuDMO4zo4+K8V21ANJUPpzjeoDgWIIINFV6E4inxvgMR2d1TsQGRukB3t08qHhLvvQjUiYnMuZk7Ea4Uy66qRUs6v/vceojPcIELuYfE59MYRZtRSkSjzxgJBqCryY/i2xeJCmkRnKKC6kIOZsw2BkHnenDjVBNSzQG4bi7FkvIlKL3JhQ1a39RAnCjKMyH9Vi1KRWUW3rYBvtsD2LAthg6zDYmdouI9qndyfNSZ1dU1gES9C84FS+B9cC7ufDqBtMkKx7f0efNWzoHVlELsB2KZe0TlKZZxrBCV7LF8cQ6D3Vc+/Hc7kHOsA+EHHZj7oNjOPU64noojZSqEY7GxmHQsgdrbnSgVyyy5607UvpWGyerAEjnPZkZHUxihNW4sqhTn/XQVFq2Iigo/H9bZcoEOxETodGmHk8Zh2d2zXVwT0Qrq7vZJd4n3YdFCypybDBAnvI+LZZ/2o3SZODdxTDcudMmlu6UTIbhuEp/PihBiRhkRjT5jJBhSaG/aYrwXdragXd7QnqcPgtpvsIiYEBXa4yHtjlbXgapIi1hzIJ1Ii1rOdJUbDWuWwlXigBVbUCXuhP2b48Yyg9WO1lVZe17bqh+HNpBsh8OSA+yPYcOmnmXQsASOq6xwLhvsvu7E9Cmicv1tGN6dRpHQIcc8ripG6eNGgbS3Ff59xntxJIG3s/Yr7vb98m6//iI4SlzivMVLHJ6Um3eyHTzGuR1MosVsbEvbXif+JC58zhS7sZyURuKVQNbnQ0Sj1ZhpMRxP0SUTxT/F3W3vQWVREXcab/sKw78+jPajZtjmlyFYWYNG2T/euz/+tBXBLPuz0odP8y45BxdNEJtJDxx1g5MPz0bRIkk2oqYyKM5bvpxGN9PJMs5tsgO+7m3Jl0c2THpJ46PDxlsiGtXOimBoe1/WOCZMVPq0hXvz0Wv8WdFR74VzphUWiwWzv+VF1bZ2rT/eU6F2gZyeNqRkXW6aKO6vT0cXPjwqNmMaeNRkUB4IomxWPtLNG1B6k0U7d4tli2jznArj3PZHUKptp9frZp++GBGNKWdFMMR2JUW1mQ/7Yk/WnW8+ypzHG3zWv6xVV6FX17Kff0P5VrTILpB8owpPfaz/+7TEEE3KAWA7lmY/qTQriMhbCUTW2fTpE+5rK1r3imD4ogvBrKeQ8r11aH6rGXXZYwzHk3+RiNAORP+1CrFMd9M9fQO084g+5qFK4eNjxltN5tyscCtPRlm1bipn8am1Q4hoZJ0VwYCGEF7dk9YeowzvqEN1ZTXqXglj6ReP90WsFhyWYbIgaIwxuFG2uRQzRJK0/zasL7KrXVShZsyYH4RbG4M4NVtWvYhE2gz7d8KIbA4iuL4O0UoXCsd1oKXRGGM44b464H8qqj3x5FofRcN6sZ3Njdh6rx056XZEs8cYjqfjQ6TFeTueCGKpqLyXrmlA1DsDJqXCB8K/3S+WK8Qt9WVw3Zr5CZAo2vcDZtudCC50wXGVOLfNr6I9nQ9nZQTBxS64FpaJwK1HTeUquK0cUSAai86OYBB3rr77l6N2dxdMU+xwljgxw5RE7ebYcQaf5ToBhPcAljvlGIMfS4snomObH95lxmhAUxXqdorKbYoL/kofTvmHIPYFMPvBEGLvAYU3iMpTVLS5x9oRXuOBLzMuMph9NSzCnSvkuEgubLeK7dxghakrhtCyUgz664CPeRGQXWYWF8oqgyi79W+xv74WLUeM+RmPPYYtb6VE2C5FUASnUyuMoeqnUXQcK4RrZRC+UlHU5INnmTi3VC5c5SKsVoplczoR3eRFKb8ESDQmjej/81l+OcxnbUPAdhIVG51l5Bca5yG3OQDbAv4VEI0Go6DFcAFytMccT72rhsYifRzCVTKx1+8xEdFIG/lgMNvg0R5xPI2uGhqD3MYjrqf6qCwRnSkj2pVERESjz1ky+ExEREOFwUBERAoGAxERKRgMRESkYDAQEZGi+6mk1tZWvYSIiM5pbDEQEZGCwUBERAoGAxERKRgMRESkYDAQEZGCwUBERAoGAxERKRgMRESkYDAQEZGCwUBERAoGAxERKRgMRESkYDAQEZGCwUBERAoGAxERKRgMRESkYDAQEZGCwUBERAoGAxERKRgMRESkYDAQEZGCwUBERAoGAxERKRgMRESkYDAQEZGCwUBERAoGAxERKRgMRESkYDAQEZGCwUBERAoGAxERKRgMRESkYDAQEZGCwUBERAoGAxERKRgMRESkYDAQEZGCwUBERAoGAxERKRgMRESkYDAQEVEW4P8HXcCbichkCZkAAAAASUVORK5CYII=;" vertex="1" parent="1">
          <mxGeometry x="90" y="90" width="190" height="244.56" as="geometry" />
        </mxCell>
        <mxCell id="11LUYm5CSsk1cLdcRPxS-4" value="" style="shape=image;verticalLabelPosition=bottom;labelBackgroundColor=default;verticalAlign=top;aspect=fixed;imageAspect=0;image=data:image/png,iVBORw0KGgoAAAANSUhEUgAAAe4AAAGwCAYAAABvk4bRAAAAAXNSR0IArs4c6QAAAARnQU1BAACxjwv8YQUAAAAJcEhZcwAAHYcAAB2HAY/l8WUAAHBxSURBVHhe7Z0FmFTVG8Y/urukW7pDQAQEFRQLCxFM7AS7u+tvYLeoiAkmFgKSCqJ0d0t389/f2XuX2WFmd3Z3FvbC+3uew86ce+/MLe771TmTzcz2JbRkZMuWzYoWLWolSpSw3Llze71CCCGEONQcINw5cuSwkiVLOtEWQgghRNYiu/fXgact0RZCCCGyLsmE2w+PCyGEECJrkiTc5LIl2kIIIUTWJkm4CxQooEI0IYQQIouTJNxFihTxXgkhhBAiq5Ik3Hny5PFeCSGEECKr4oSbanKGgQkhhBAia+OEe9++A+ZgEemgd+/eNnDgQLvjjjtczYAQQggRb3CzH8TjLlWqVGJPQDjzzDOtX79+VqVKFRs+fLjXe/Dg+3v16uVez58/33r06GHnnXeeDRo0yI4//ngrU6aMjRkzxi2PJx07dnQGQuHChW3GjBlerxBCiKxK5cqV7eGHH3aasWbNGlu4cKG3JDnt27e3xx57zP2dPn26bdiwwVuSnMB63CeddJIbdz5v3jyvJ2WOOeYYO/3001NsZ599dsyecqVKleyEE06wqlWruvf58+e3zZs325dffmmLFy92wpoZ1KtXz04++WSrX7++1yOEECKrgmjfe++9VrduXefQ8RphDoc+lrEO6/KabSORNOUpK2YW7MgDDzxgZcuW9XpSBivj5ZdftgkTJng9yTn//POtT58+Lje/bNkyrzeRvXv32p9//um88S1btni9Zu+88461atXKexeZHTt22Ouvv25vvvmm1xOdG264wbp3725PP/20ffPNN07wn3vuOWvcuLGtXLnSnn32Wfvjjz+8teMH33vhhRda//793TkSQgiRdUELGjVq5L3bz6OPPpoULfZFO5x///3Xbr31Vu/dfpKqyg8F5cqVcy0tcAIuvfRSFyUIF+3s2bO70Dkn4aijjvJ6E0GMEVo81vB2wQUXuM+i/fzzz94WifBZn3zyiX399dfJWteuXZ1YX3nlle79Rx995AyU5cuX24IFCzJFtIUQQgSL9evXe6+S43ve0UQbom17UIQbD/Taa6+1bt26JWv008L7L7nkkojedvXq1Z3nznzqCGX4dhSGIejTpk2zuXPnelslMm7cOJsyZYr3LjmdO3e24sWL24gRI5zohoI449lnJdifrLZPQgghDoToaLiu+CDY0USbbdg2EgclVB4NQsxAfjk18LQRbWL+H374ob344ovekv28+uqr1qJFC3v++edtwIABXm/KkPt+/PHHbePGjda3b9+oJzic8FD5wYLvpTiN6MKKFSucscGxhhsqQgghsgZ+npuIcCygQ4TSoxWxHdJQeaxQiUc+t0KFCvbBBx9EFO1TTjnF5ZdnzpwZs5DiTV9xxRWukIyistREG6GOlKsA+lkeDoYB4Xfy7rE21me7aOzZs8cmT57sJs0h38++f/HFF66yXQghRNYCAUaIY3EMUxNtCIRw//LLL/b777/bI488Yi+99JLXux8E+JxzznFeKMOxQovSUuKee+5xHjr5aELvKXHWWWfZTTfd5HLa4ZDbpliOFi7e7MuiRYts6dKlMTfWT+kYEO6xY8e63AjfOX78eFfdzvFwro499lhvTSGEEFmBWMQ7FtGGQAg3eXDC5N9++63XkxwEq1mzZq5CD88zFghbkNsmJ962bVuXg48GuXUquak6//TTT73e/bB/L7zwggu3X3zxxW59H/Lql19++QH5+JQa60fLx4fz66+/uvUZQz548GBbtWqVE38hhBBZi9atW6cYLmcZ66RGIIQ7JW6++Wbr0qWLG88dyzAuvHNy4Oeee65NnTrVbY/wIn541JEgp1yxYkXnzUerFqdsnxA93nckrzyzIceNAdOzZ8+YwjFCCCEOHjhlaElqsA7rpkRghRuBJNeNh4tQMdYttQItwuLkyJk4ZdSoUXbNNdfY0KFD3Yw2eKl8Vrh433LLLc4znzhxYsTceijvv/++m+2GUDXbCCGEEEyalVJUNxzWZZtoHBThxhPFuw1vhJRpkZalVGCGRcLYaqYW/euvv+y2225LUbQRefIGFLiRCybczYnx88h8BtXhjJmjwCs0T03um/bkk096PdHh81577TWXi//pp5+8XiGEEEcq1CIR2Y0ETme0CCnbsG0kDspwMAqoyCUzp3csIK6MUyZv7IP4MhSqQ4cObqrTdevWOQ+XGdFSgu0QbI4Pb5jPxNuOBILNkDDyxHjws2bN8pYkwmf5M8BRiV6oUCFnEBzs4WCMc2fSF75bCCFE1sWfnCscvxANog0VI43r/yZGKId0HHdaIZeNuI4cOdJ5zbFWjxMiJ0f91VdfeT3RYUY0hBsvPBLPPPOM1ahRw71mTnLC5wdzDDU/MkKjkpycuxBCiKzLRRdd5IqbQ/FF268ejzbOmwlYmLcknEAJtxBCCBE0iDrjFEK4aPuEi/f333+fLOocivtZT14E7Wc9hRBCiCDAvBukV9euXeuitJHGafPjWpMmTXJTejPld0o/IiWPWwghhAgQgR/HLYQQQhxJSLiFEEKIACHhFkIIIQKEhFsIIYQIEBJuIYQQIkBIuIUQQogAIeEWQgghAoSEWwghhAgQEm4hhBAiQEi4hRBCiACRNOVpq1at+COEEEKILIw8biGEECJASLiFEEKIACHhFkIIIQKEhFsIIYQIEBJuIYQQIkBIuIUQQogAIeEWQgghAoSEWwghhAgQEm4hhBAiQEi4hRBCiAAh4RZCCCEChIRbCCGECBASbiGEECJASLiFEEKIAKGf9RTpYlmJhraqeB3bkbtQwg0k++9wJJvttTw7N1nptdOt3JpJXm/slCpVyooWLWp58+a1bNl41Bwe7Nu3z7Zv327r16+3//77z+sV4uAh4RZpYnuuQjajyim2K0c+25Mjt9crDmdy7NlpufZss9oLfrC8uzZ5vdHJnTu3Va5c2Xbs2GFr1qyxrVu3OrE7XMAIyZ8/v5UoUcLy5MljCxcutJ07d3pLhch85CqJNIFob89dRKJ9BMG15ppz7WMB0cYbXbRokW3ZsuWwEm3geDgujo/j5HiFOJhIuEXMEB7H0xZHJlx77oGUIDyOp32khJA5To6X4xbiYCHhFjFDTlue9pEL1557ICXIaRMeP5LgeDluIQ4WEm4RMxSiiSOb1O4BCtHIaR9JcLwctxAHCwm3iBlVj4vU7gEKtw63nHZqcLyHU9W8yProSSyEEEIEiMNSuMuUKeO9OrR07tzZnnrqKbvzzjutfPnyXq/o1rSyvdjjGKtQrIDXEx9aVStl/Xq2sjMaV/J6YqduuaL2U9+T7M2LjvV6gkPv4462v+49zXq1qu71CCEOZw7Lcdx33XWXG2P53nvv2dSpU73ezIWq0p49e9quXbvslVdesapVq9qFF15ov/32mzVq1MhN2PDuu+96a8eHiy++2EqXLm1ffPGFzZ8/3+vNPMbWu9J7lTYQxaMK57OTG1Swc5tXsYrFC9h/m7bbB6PnWNNKJax0wrJQdu3Za+/8McteGzbDzm9Z1Z7v3tIK5snlLd3P5h277OaBf9qnfyYe+4Wtq7t12e7+QRNdX6x8cNlxdnztsnZV/9H24+QlXm8wKJQ3lw26vpOVLJjXerw5zKYtW+8tyRxaTX3Te3UgDRs2tEmT0j5ZS9A5Uo9bHBoOO4/7xBNPtEqVKtncuXNjEu3rr7/eHn744ajtnnvusTZt2nhrR4dhIYg3EzOEQl+hQoUyZYIGRLts2bJZvjAG8f2hz4nOM5y5YoNd+PYIO+rmT+2nKUutTtmiViz//kr13DmzW+2jiljZoolinitH4i367E9T7LqPxyS1j8bOtdw5crjt/3uhhz18ZhO3Xnq4ot3R1iXBqOAzfdF+++JjbcfrF0f8XAyEjf162a+3dHHv+bvv7UtTbHxexwTDYMkz3W39yz3tmg613bbh3Niprm1+5UK3HuvD1Ie7JXsfzqbtu9z5KV4gt93epYHXGxyuuOIKGzFihI0ZM+aARj/LDwYvv/yyffPNN9a8eXOvR4isSZYQ7jp16tjzzz/vPOTU2muvvRZVSAlHH3fccW42I7xc1vXb66+/bo8//rj7rlCKFy/uxDVSO+qoo5znjCGQVvCAf/zxR6tVq5atWLHCecVHMojLTQPGWuf//WyfjJvn9Sby89Sl1ujBQa49/v2/tm3Xbm9JInv3JpzP1Zus/5i5SW315u22LzFYlGEubF3Dlq7bYk/8kD6PiX2+6J0Rrt00YJyt2LDNRs1ZldRHe2P4TG9tsyL5cttlbWs6TzkU3mMUFMiT0+uJHQyO7/5dbCfWLeciG0Fk6NChBxjOjz76qP3666/eGkIIyBLCjch98skn9tZbbyW133//3c1ONGjQoGT977//vk2fPt3bcj94naeffrrLbxOe/vDDD61///6uffTRR7ZhwwbLkeChrV271tsiER4O11xzzQGtb9++tnz5clu9erX98ccf3tqJdOvWze1LuFFRrlw5q1u3btL7a6+91mrXrm1HH320C5WL9FEwb057rVcb5+X67ZaT6juPO6MgctVLFbLRc1c54yI9DJ2xPMmgmLJ0ne3Zu8+279qTzND4a8Fqb22znbv3Wv3yxezB05N787ynn+Xpgf3IkT2btT/6KK8nWPD/HWM3tP38888HJQ0kRJDIEsKNqI0fP95Gjx6d1DZt2uSGWRCCDu0fN26crVu3ztsyEUT7oosusqZNm7rP+fjjj5Ntw1ANwtU8AFauXOltlTInn3yyMwL++ecfW7p0qdebyJ9//mnvvPNOMoOCxmfPmTPngP7PPvvM2zL+EJpv27atiwykRK9evdy+XHbZZV7PwYWQ91lNq9iHvdu59u6lba1G6cLe0pTZunO3PT1ksguRT1qyzrWr+4+2q/qPsoVrNntrpY8GCULJvv298OBNGkL0YPHaLS7f74e/Kazr1rSSzV650S1PD0OmLLV1W3danbJFvJ7Dh9atW9u3335rX375pdWvX9/1XX755TZs2DDnlUO7du2coT5q1Cj3/571e/To4ZZB+PLvvvsu2XIhgkLgc9zVq1e3Pn36WIsWLZyg8h8znGbNmtnevXudCMcCn9mmTRtbtWqV8/zDQcjHjh2bzDig7dmzx+Wyw/v//fdfb8vEtEDv3r1d3i6Wxrrh4f1Q+EEHCgvvu+8+e+aZZ+y8886zYsWKeUuzDnly5nBh3DObVHLt9EaVrHrp2CZ0YVjwbuLlmQDePEVuCGkkKPgifB3aqpYslGAMeiukAzzyd0fOthIF89hV7Wu5vr4n1rMyhfO5NALL0wMRg+Xrt1qBCIV8QaBAgQLOYA5t1KxQy0G++/vvv3dFpxRlIt4s5/8oRjR56ZtvvtlKlixpAwcOtJdeeslNjHLJJZe4z/CXM8MZ67McB4Dlp556qrcHQgSDwAs3YWj+sw4ZMsR5lOEh6fbt27t1Zs+e7cQ2NfDezzrrLMuXL58T7ZQ8dD6b3Pxpp53m9ewHS/6FF16w448/3utJBFHlIYJhEEtj3ZSEmB854Hs4fiILXbp0sSeffNKF+jFAfEgXYAjEu7I9VhDHaz4abYWv/8i1kn0+ccVpqYFI5s2Vw27r3MBevzDhfFQp4Rqhc95XLlHQWzP9YBhEEksK5Sgi86MEfnvojCYRq9zTwiu/T7eJi9baifXKu887IcGoGTP3P3vyx4xVJqdT87MEHTt2tPvvvz9ZYyglhjeQ/qJym/8Tt99+u/t/4Y+o4P8iovzVV185Uf7000+dgGNkV6hQwS0n6vbBBx+4/wMs759g5PN/5phjjnGfL0RQCLxwkwe79dZbXQgtHIrVOnXq5LxgCl9SA9Em/IaHiyebkmASRuez8bKnTZvm9e6HalhydieccEKyMdx44OTQL7300pga67JNSuzevduF4zkPDEVbsmSJValSxRXYBZ2cObLZtp17bMuO3fbcz1Ns5OxVrmEEbN6evIgtveTLncN5v+GQa37ku38s2+XvJWsUm6U3H+7D9v2GTnPpoLu7Jv5wx9t/7C9gSy+hFfpBg9A2IfHQxv8x/o8DHjTiTRoNo5T/Y34aivud/tDoFiJOaoh6E5aTVrrllluSKtYfeughJ+aaZ1wEjcALdzQQXcZVUxk+cuRImzx5srckMqx/ww03uGp0cmCIH94roedIUAiHMJJjY+hZOFj6LKNqvWvXrl5v5jNhwgR75JFHXAV9LBGGrE72BI8oXtXjkZj332b3HXj2BxvGn/vDz779d3HSePT00qJKSStWIHeG8/5ZmWrVqlnBgolRFoZChg+/TImNGzdav379DqhcxwsXIkgclsKNNY4I16hRw1nlkbzxUMiX4a2yPmJLDoxGCA6P+eyzz/bWTIT3hO/+/vtvl3eLxi+//GIzZsywBg0aHPRwXKxFeAeLfLlyJniWjezfB89Mal0bVvSWmpv16/3LjrPjah5lObLvvy2ZuAXPd8fuPV5PcpjIZeBf823CgvQVl42es9J5v00rl/B6Di79hk53KYPXh83wetLPMdVKufz2xEWH569z8f+0e/fuLjfN/1MiY6SEYMGCBU7QGcXhQzHa3Xff7QxwhmQyTJSRJX7FOkYu0SoiY0IEiSwh3I899pgbZx067pr/bBSrUC0e2k/DSo4EoW68bMJheNo//PCDy+1GAy+bUPRNN93k/tOTE6MiHfCYCcvxH56pS8l7+8ycOdOGDx8esRAuHEL0jEMNDeEdCg51VTnFZTOWb7B/F69Nais2bvOWmm3ZudtVWDNZy7L1W23YjBWuv065orY04X0ojHM+rVEly5Uzu23YttOu/3isDf5nkbc0bcxaudGNuT6uZplDMv557Lz/7NSXfnV/U4JhXgwVCy+UC52U5bwWVW3lhm1uXHwQiVScdtJJJyWNmCCNxf9Z/p++8cYbTqw7dOjghmfy/5Ehn9SW3HjjjXb++efbdddd53LbpLN++uknVw/iL2cbolIIO4WtQgSJLCHcEydOdNYvHqzfGNZFHiq8nxY+tWDFihXdmGkKxShwYfz1q6++6saAR6NmzZqu8IVCl1mzZrmClvA8OOL9+eef2+bNm92Qq3r16rn+KVOm2IABA1whHKH1e++912677baIOXFC9IMHDz6ix3Ezpnndlp0JnvG8ZJOSTAgZ2/z13wut0u2fucK1+vd/7cYkI6QVixVwHuT05ett+fpEoWdK1HVbd9grCd7qoInpE+xQ8HbZxz4n1PV6sh5HFcnn5ncPL5QjigH+GHCq0jFGgkik4jT+bxH1uvrqq61x48au3oO89qJFi9xfagQwqvlNbP7/M+8CXjniTBideR+IfPE8wTlgHgeW8/+VeRcw1DHQhQgSh81c5XjFhMnIZyP2sUDojarS1PLfrEdIjbB3OHgD55xzjityYcgZxgbW/cEAjwRjgQlnDkZoPL1zlUcDbxHxGTJliV3+wSivdz94kDcliOl9X//thBz8aUZPeG6I+wt9Tqxnj3Vravlz57S1W3a48d5pzRdf3aG23X9aI3tv5By75+vY7p+sAgbOqz1b24hZK+zid5NPFpQZaK7yA9Fc5eJgclj+yIjIHOIt3EzxeVK98rZozeZkM4ulhB8a9oUc+JWxtjVLu9dUnC9Zl76cJaHnzTt2O+8/SPAjLpxHfpglo9XusSDhPhAJtziYSLhFzMRbuEUwkXAfiIRbHEwO2+FgQgghxOGIhFsIIYQIEBJuETPZLHPmCxfBIbV7gCpvCj6PJDhejluIg4WEW8RMnp3p+9UqcfiQ2j3AsMe0zGZ2OMDxHsnDPcXBR8ItYqb02umWY89O75040uDacw+kBJOc8AteRxIcL8ctxMFCwi1iptyaSZZrz/7ZzsSRBdeeeyAl+P18phY9HH7gJhY4To6X4xbiYCHhFmmi9oIfLO/ODfK8jyC41lxzrn0sLFy40P3iVqVKldw0podbzpvj4bg4Po6T4xXiYKJx3CJdLCvR0FYVr2M7chdKuIFk/x2OUIhGTpvweGqediTwRhE2fkPgcBJvCtHIaRMel6ctDgVZSrgP1//oIj7ogSmEEFlEuHPnzm2VK1e2HTt2uB8L4AfzNbxChIMxRwUvxUDkFQlR7typkL0Q4sgiS8Q4EW28KH7xh9/GlWiLSHBfcH9wn3C/cN8IIcSRxiEXbsLjeNoKfYq0wP3CfXOkVC8LIYTPIRductqEx4VIK9w33D9CCHEkcciFm0I0ctpCpBXuG+4fIYQ4kjjkwk3BkXLaIj1w32j0gRDiSCNLFKcJIYQQIjYCL9zNmze3O+64w5o2ber1pJ3zzz/f7rvvPqtVq5bXI4QQQmRNAi/cHTt2tLZt29ppp51mv/32W9T2zDPPeFscCJ9Rv35927Yt9nm4+/bta++++66ddNJJXk/awOD44osv7IUXXvB6Di3dunWzJ554wqpWrer1xJd27dq5c5YRA0sIIUQWmIClYcOGNmlS2qdTBMT24Ycftrlz59q6deusTZs29uGHH9qmTcl/evDSSy+1lStX2g033GDHHnusXXLJJUlFTdmzZ7fy5cvbxo0bbcOGDa4vHGbrev/9923UqFFej9ndd99tnTp1smeffdZ+/PFHrzd2WrZs6bz8P//80x555BGvNzoXX3yx9ejRw3LlyuX1pAznBCGeP3++1xOdLl262HXXXecmNXnrrbfs888/95YkGhj3339/isOuKBJL7TxwrMcff7y98sor9uWXX3q9GScj948QQgSRQAv3o48+ak2aNLGnn37aCTLHgJCPHz/eWyORTz75xA0dQrgR+65duzqRgho1aliZMmVs3Lhxtnv3btcXDuOFv//+e5syZYrXkz7h7tWrl/thAsYg872IN/uFGDN73EsvvRT1s/BYjzvuOMuRI4fXE5lChQq5z+WckkJIrWKffbrooovcsb/66qv23XffeUsSYaYyzhnHHu2z+L4FCxbYqlWrvJ4DwfDhhxluueUWN4FKvJBwCyGONAIr3GeddZZdc801TgQvuOACJ6SxeNyhtG/f3m6//XabNm2a3XbbbV5vbPB90QyFaBCu90PFvgAvWbLENYTx559/TlH8wqlTp45VqFDB/v33X7cdYW72p3Dhwvbkk0/amDFjvDUPpHTp0i50TZph3rx59uKLL9rff//tLY0vpCIwIogu4HnHEwm3EOJII5DC3bp1a7vzzjutSJEitmzZMifceHKnnHKKW84QITxq5rHeu3ev60OUwsWZ/HLNmjWdx04oOtIUmnv27LGPP/7YPvjgA68nkfQIdyh8NyF69ptQPEYExXGE7gHvdujQoSmKaajXP2PGDGeEVK9e3V577TX7+uuvvbWSgwfNsVITwPkj/4/IR/KmzznnHHf87F8scN5/+OHAn37EYDr99NPtjTfecHn9eCLhFkIcaQRSuF9++WUXcsZLxctEuEM5+eST7cYbb7SvvvrK5WwjcfXVV9u5555rgwcPdiFqQu14qj6I6tlnn+1CwAh7eK44I8LNvj/33HO2YsUKJ2onnnii219E1QcRJGyeUlGdL9wYFaeeeqoVK1bMvf7oo4+8NfbDeSJHTridcDpePj/W8dlnn0U9R+xj48aNvXeJ+EYRgr5r1y6vN5HFixe7+oFw3nzzTStZsqTdc889Nn36dNfHsRYsWDBNEYZISLiFEEcagRRuxApPGs+b/CvFXVWqVPGWmpUtW9YN8frll1+S5aURYYSDvC5eJ95teI4aUUV8CCH/9ddf9thjj0X0RjMi3BgEV111lX377bfOCEkvhJ1btGjh9gGBRYyHDBniLU2EanHOBSF1xJbzMXDgQCecqRk3kfCL1Qiv9+nTx+uNDueRc8X3EhEArjmfQUHg9ddfn2oePiUk3EKII41ADgcjvPv7779778yFyG+99VbXCIf37t3beZVnnnmme+8vYz2qp1lOwRlCFg65X8Tpjz/+cB5iNFFhvfRSu3ZtN+vX1KlTvZ70QVEdx4HX+vbbbx8g2rB27VrXBgwY4ELf1157rQ0fPtxbmnaoxs+ZM2fMnjLFg3jooeLKa64hxtbll1/u9QohhIiFw2LmNEK6eOE0Qr+Mx0aUaYMGDUpaxnrkxBFlqqdZjieKiFDIRcMDZugTIu/30fAaQ0mtuht69ux5wLhoPHq8xOXLl7scNgVmhOoxJtICkQbC+YTbU6rSRqQp4uvXr1+Gw9JQrVo1VwXP98ZCgwYNnOEwYsQIrycRQvpEQMjtcyxCCCFi47AQbp/zzjvPedn//POPqyynipn8Mf0+FG0RpvW9bcLLiDphdxo5ZyrVCWP7fbTHH3/crR8rFJ1dccUVLiwfCqHt4sWL2+TJk937ihUrugI5vygtVvCeKS4jnH+wILxOLcDmzZvduU0NJqeh4I/0BMYFRgx9DD8jAoIBQNSAcL4QQojYOGyEm5wxQkku1Q+jz5w50wkb4dhwAc0oCD7FVXigoRBCJ+d8xhlnOMEKLxTDCCA/P3HiRPee8dOINuHz8PA73nk4iCchfIZYcazxrtKOBt9LjpoIwciRI5PVDoRD9KB///7OCOIcdejQwUaPHu3G0z/00EN22WWXuSI5xq5jYGHMkJ4QQgiROoEXbkSPymsqpvEC8ab9IWBA8Rk5VUSdYU/xgtAvokMYmuIuCuQQKwq/EFVmWXvggQeSVaMTFq5bt64r7CJMDvwldI94UShG2J4+hC58f6mWZ5w6fymIYwKa9BZ2MRkK4f5YPH32m8lZOC72j+FmKeEbI0wuw7GQe+ca4WVjuCDkREK6d+/ucu/UI/DZQgghUodE7YO8INd7KCBUyuQo6QGvjXw0+WrC4+SnGaJE6PmYY45xHi8zojGxCQVVCPicOXPcts2aNXPeI8vpu/DCC+2pp55yooh3ybpjx45160YCjxtRZkgVIWAagoUn/fzzzztPe8uWLd7aiSBm7AffOWvWLK830QgYNmyY82L5TkSbPkSSnLwPrxlWhceLEIZ/flrgcyiQYz9mz57t9UaGYyQP/c0337h8fPgwsHCYEAYjhPoCoh8YJowzZ7hYOIy1Z6pZruH69eu93tjJyP0jhBBBJNBTniK85ItD5xAHQs4IDcIaba5uX2wRS4q22KZRo0ZOWMlxp2dSFXHw0XAwIcSRRqCFWwjdP0KII43DqqpcCCGEONyRcAshhBAB4pALNwVSzH8tRFrhvuH+EUKII4lDLtz88hRV3EKkFe6bWH+5TAghDhcOuXAzBIjhRkKkFe6b9AwhE0KIIHPIhZuhV/wIBeOxhYgV7hfuG+4fIYQ4ksgSxWkLFy60okWLuik+mdFLOW8RCe4L7g/uE+4X7hshhDjSOOTjuEPBi+KBzE9HSrxFOBSikdMmPC5PWwhxpJKlhFsIIYQQKZMlQuVCCCGEiA0JtxBCCBEgJNxCCCFEgJBwCyGEEAFCwi2EEEIECAm3EEIIESAk3EIIIUSAkHALIYQQAULCLYQQQgQICbcQQggRICTcQgghRICQcAshhBABQsIthBBCBAgJtxBCCBEgkn7W88orr+SPEEIIIbIw+j1uIYQQIkAoVC6EEEIECAm3EEIIESAk3EIIIUSAkHALIYQQAULCLYQQQgQICbcQQggRICTcQgghRICQcAshhBABQsIthBBCBAgJtxBCCBEgJNxCCCFEgJBwCyGEEAFCwi2EEEIECAm3EEIIESAk3EIIIUSAkHALIYQQAULCLYQQQgQICbcQQggRICTcQgghRICQcAshhBABQsIthBBCBAgJtxBCCBEgJNxCCCFEgJBwCyGEEAFCwi2EEEIECAm3EEIIESAk3EIIIUSAkHALIYQQAULCLYQQQgQICbcQQggRICTcQgghRICQcAshhBABQsIthBDpYN++fSk2ITKLbAnN3WGtWrXijxBCiBTwhblam1OtXMNjrUTlupa/WGm3bOu6VbZm4TRbNmmUzRv9nWXLls01IeKJhFsIIWLA96Krtu5qDU67wgqUOMq9j8aWNSts8rdv2fwx37v3EnARL3IktAd5UaFCBf4IEXfy589vbdu2tZIlS9qyZcu8XuHjn5927drZCSecYP/++6/t2rXLW5r1Oeuss+zGG2+09evX2+LFi73ewwvfy25+/i3WqNu1ljt/QW9JdFinQuP2lqdAYVs2ZbTrk3iLeCCPW2Q6zZs3t/vvv98WLlxoN9xwg9d7IFdccYVdeOGFlitXLq8nkW+//db9Pe2009xfH8Stf//+9tZbb7n3lSpVciLC93z99deuL73UqFHDHnroIfvvv/+sT58+Xm/sIMbHHHOM5c2b13LmzGm//fabbd261VuaeCxXX321FShQwL3fvXu3M2oWLVpkO3futPbt27v+1atXu8+isf1LL71kv/zyi7377rtWuXJltw5wzK+++qo7z6VKlfJ698NxPPzwwzZ+/HivZz/33XefNW7c2B3vpEmTvN7I9OrVy6pVq+a9S4Tvq1evnv3111+2ZcsWrzeRefPm2UcffeRe+9encOHC7n1KbNy40b766it3Pg41vmg3636z1erU3etNGzN/G2gTBj6v0LmIC/K4RaZTrlw5J0Q8jH/44Qev90CaNWvmBPPpp5+2O++803meLVq0sCVLlrjluXPntlNOOcXeeecdt6xJkyY2d+5c+/vvv91ytr/ooots3bp1NmbMGNeHWGzYsMG99kEEEb21a9d6PQfCsnPOOce2b99uP/74o9cbHfYZYbz88stdu/jii+344493XjTHsGnTJps6daq3ttmsWbOsatWqtmrVKps+fboT8J9//tmaNm1q/fr1sxdeeMH9n0QU2Q+EFwOIYy1atKgtWLDARo8endQmT57sBKFNmzY2btw4Z9AMHz7ctT179liZMmXca4wDvrdly5ZWrFgx9x4xzp49u/tMvuPMM8+0rl272rZt2w7woE8++WSrU6eOlShRIqnxOYUKFbIcOXK4fQtdxvkbNWqU25b74KSTTrLy5csnWydSy5cvn7vGGC7xJl+RklasYk0rXrmOFU34W6R89aitcLlqVrhsVavR7qwE0T7P+4S0U7Jafdu8ermtXzJbwi0yjDxukenwsL/11lud+Fx22WXJPM9Q8LgREYQGD4cHXJ48eez77xNzhIj2jh073GuWITYff/xxksfNtj179nTC/sUXX7i+Tz75xAlVOHieKXn/wLZr1qxJdT1AzBBf36PlO2+77TarXr26E1Hf6wwFQeaYEEy2J9Q8f/589xmlS5d2nm2jRo3s119/dQJ26aWX2muvvWYdO3Z0Ah8K0QciE507d7axY8fa448/7i0xu/vuu93/b9/j5hpg4HBufTjfiCx/8fiXLl1q7733XpLo+oRGEnzq169vJ554on366ae2fPlyrzcxioD4YpxkFYpXqWMFS8XupOzbu9fdjy173m55CxXzetMHOe/Bd53h7l2Jt8gIEm6R6SAUl1xyiW3evNkJysiRI70lyUG4CaUSDsbL9UPsCBEgEBdccIF7zTK88p9++ilJuBHYTp06ue/4888/XR/rRQodI5Z4uimBcOP1+vlmPEoe4s8++2yKXjiiessttziR+9///mcjRozwluyH5Yg2IKA8yDFKEM4JEyY473TOnDlO0OmfMWOG+z+KcEf77tDzlZJwh/Loo49a7dq17cEHH7QpU6Z4vdEhpH7XXXe5egUfDCiiIf7++4SG9rMCaRbthGNBuEtWb2i10xkiD2f0uw/ZgrE/uHMmRHqRcItM55577nFFV4jehx9+6FokEO4ePXo4Dw2x5OFGWJUQMuBp+h4dy/BKP/vssyThfuSRR5wIIYrxyI0i3HwPQjhz5kzXl5oX2aVLF5e7JtT+/PPPpyqGrMsxYxTg5b7yyivOqHjiiSdcvrhgwYIuxI6Akxv2hTulHHeswt2tWze78sorXQidY8LjJszuR0TOOOMMl+LgPIQLfijhBlckSB1wnOH1CynBPTBgwAD74IMPvJ70Q3i81NFNvHexgXDv3bPbap3Qw0oniHc8WPT3UBv5+l3yukWGkHCLTOf99993oVXECYEhbB4JBIDw8cCBA5OFXBEyqFKlivsL5FQRAnLmvnC//PLLrh/vPh6kJVQOvXv3dhEBjtM3PDBW8JYJ6SOKoVx11VUun0wOH4GmkIt8OMdftmxZF2bHGyfUTs4ZoUacU/O4YylOI5TPe8LxGAjUAZAH/+eff1wkglw0n8O5J2ROcR3hcKrHiSSEwnFG8rjB97qJHtSsWdOdm1A4zvPPP9955eFGDudu9uzZLn2QUUrVaGT5vLHWseLC5AmGWsued1jewhkLk/sQLh905+nunEm4RXpRcZrIVBAAGhXHFI01aNDAPYj9grNQKC7DY0YkEAyEmSKq4447zjW25T4l54vYHHvsscmK08hvI0AphbHTwtlnn+280JQK6gAhu/322936fD/r4yki1uwnoXPy/KQKEHEg/41HO3jwYFcERvTguuuuc0KN541HTS6ZYq+nnnrKGSSEqUkBIIIsR0TxZGkdOnRw57h169Yuv//kk0+616QlyGezP/5QPL6LNAPiTT9V89QRIKxsg8GAB/7cc8+5CIAvnOw/hhcePQVxFACyX4ivH+F4++23nQfPckQXY4X94pi4Vuw7Rgrv6T/qqKPcNZ44caIzWChgpLGM9cn7xwMK0bJlT240pIbvcVdvc2rcRDZX3vw26du3JNwiQyjRIjIVqqp5ACI4iAhDowibpwaFXoTJGZ6E50tDHPC6/SFU4fAwhJtuusnlw9mellYwCPAuEd3ixYt7vZFBBMkTk1unOAyPGw+Toi4ED4FFpPF48a59bxXjBG+eEDPb4u3Sh5jjaRJCZz8AMeVzQwvCqBtgO7/x3h96BpwrDKWKFSu696Hg6WMEIfBvvPGGC++TvuB7KIIjtUF43TeIfEgP4BljGHEcfGfdunWdWLM9YXC/eh1jhWI6ogChaQWuywMPPOCMlEhgUFAXwL7Ek+w5Yw/Rg4scJLTwCIIQWQEJt8g0ED8e3AxV4oFPrhovjMlGWJYaeCQM5yJ8TEMkUwNvDg8OT5AQLB4j+5AaeJ8MwaKQjOIzwsi++CPE/rjqcOgn3Ix3/cwzz7jjuvfee53x4FezI+B42gybQugAUSSMTCU2jWFXd9xxhxs2hqeN986QMTxwhJ8IRWg1PoYMHq/feI93jngi2EBeHm84XATxpDm+119/3eW5b775ZmdYsB+Eu/fu3eutmRzO//XXX+/GyOOl89nDhg1zFfNcWzxkjDKMAa4xRgtGQCikQhD9P/74w+tJzueff+7C6Rgq4SH5jLB3d/ontNmxOflwwozAlKhCZBQJt8gUEC1CtAgBE2n4IDAMN2KZL2zxglAun4kni5gheuSaYxmOhBeKqCJmCB2NfDBeN8YDxV7k6sOHYSE0eNIMQaMoDmFD4PCWyUcjjEAfhW18ng/eMcO3aFSR9+3b14oUKeL6EVEEn22onCf8Hu794eGzn/4ENRgZrL9ixQr3HoMJISfNEAoGwNChQ91rPHzqCdh3zlVK4VuiA+Ta2a/HHnvMnedQvvnmGxcNId+NEUJuPhTOBePMCYOTIogE1w0jj5QJIh8vdmxKNGZixZ2HhMbfDasWer0ZZ/WC/WP5hUgvEm4RdxBPcr6ETRE7HsY+vCafSggXzzQl8cbzI1SOd0jzc63RQJAQPbx6ID+KYLItoV+K3yjeovqc6mw/FA3kWqkEHzRokNeTOEyLz8D7+/LLL50wkjs+99xzvTWSw5hrvFxyzxTIYTAwQxpGClXhFF+FDkEjJE4OmIbHi5hhfPAeQ8BfBw82mhccCjlqtvdD3H6EA+GOFHomZ04UAC+fc8f34OlHqyDHqCFXj4cePjEKk81g1OCBU9RGtCPUY+b7OScrV65MOrZocA24FtRGYDTFg83/LfVexQ4mTLZs2W31vGmJHXFgyT9/JBoFQmQACbeIKwgVIeOjjz7aFRtFmnoUAcAbI19NKJtpTiOB54ZokvulkculkAuvMlJxD54jxWQUQAFGA94+XizbIiaEtvH6wqfdxDul8I1tfGHH66OIClFjaBf9hIMjFdYBok14nZwvlfNEFmrVquW8ecLeVGeHQkiYsDgNscP7JdQfK6QEOI/8ZaYxvouisvCQOqKPMREeLaCCHGMIg4PPYcpTDBtSBbyncI3Ct3AQZK4d3jw1DKQXODcYAnwmuXOEmrw31w8weogEEIUINcA4B+HXkfw8BYgUqcUyPWosbNuwOkG8I1+3qOBxZ89mK2eOt20bo8+yFytUlPu/GCZERuAO0nAwERcQDkKk5JfxqoYMGeItiQxFUUwPitiSX2YKU388MFXlDK+iOjk01I7X7M9nznYMBUOcAG+wYcOGzqOPZTKRcM477zw3VtwvfsNbxciIJdTuE/4ZCD/FXBRshYOwUYWOtw0YKsz5TW6YsDK5czx0DAUMD8LshOz9nDbv/SlJEVK8Z0LY4R4zn4XxgDdMxCAURBiDBvEPL/qjCp1zGTqBDFPS8hlEKDCUMFa4Rnx2qMGAMXLNNde4/SJawVC9UDCMEHpAoDEWDsZELWmZhIXUBEPCdu/a6YaT1evcy1uSPka986D7pTCMTr+QUoj0IOEWWQbC5jREN5pYEvrGQ8RrQVhTC59nZfBK8UIjHYNfUIcIx3JeEGC89ZTOG2H0UHFNL4g3oh7LZ0X7XlIHiHpqE9pkBkzGUrBUectTqFiq1eb+lKe7d+2wGseebpWadvCWpI3pvwyw8Z8+lxRhkNctMoKEWwghUgDPm3QDAt6ix61W58Qe3pLYQLT/GvCsE22N3xbxQBOwCCFEjCydPMo2rlpqJSrXttz5C3m9keHXwMZ9/IxN/fGDpPC4vG0RD+RxCyFEKrh8t9fwvmnV2pxqFZu0s5JV6lmB4mXcelvWrnRDvhZPHOEK0cIFW6It4oGEWwghYgDR9v8i3P5fvw98YfbF2v8LEm0RL1TaKIQQMYDw+g1BJmfNvAH+39DXoflsvwkRLyTcQgiRBnzhDhXw0Ba6TIItMgMJtxBCpANEOaUmRGYh4RZCCCEChIRbCCGECBASbiGEECJASLiFEEKIACHhFkIIIQKEhFsIIYQIEBJuIYQQIkBIuIUQQogAIeEWQgghAoSEWwghhAgQEm4hhBAiQEi4hRBCiAAh4RZCCCEChIRbCHFEsm/fvhSbEFkVfnvO3aGtWrXijxBCHNb4wty6dWurX7++Va5c2YoWLeqWrV+/3hYuXGhTpkyxMWPG6Cc6RZZEwi2EOCLwvehjjjnGTj31VCtevLh7H421a9fad999Z+PGjXPvJeAiq5AjoT3IiwoVKvBHiENK7969rXv37vbrr7+69126dLF69epZyZIl7bbbbrONGzda1apVXd/s2bPdOj7h24ZSp04du/POO61QoUKWJ08eW7FihbdkP/nz57e2bdtau3bt7IQTTrB///3Xdu3a5S3N+px11ll24403Oq9x8eLFXq8A38s+77zz7IwzzrB8+fJ5S6LDOo0aNbICBQrY1KlTXZ/EW2QF5HGLLMXdd9/twpcXXHCBE9J+/frZ/Pnzbfz48XbNNdfYa6+9ZqeffrqtWbPG7r33Xm+rREK3Dad58+ZOuAmB8hpP6vXXX7fTTjvNrr76avdwht27d9uyZcts0aJFtnPnTmvfvr3rX716tdsf2tatW+2ll16yX375xd59910XavUhzPrqq6/a/fffb6VKlfJ69/Pff//Zww8/7I4nnPvuu88aN25sDz30kE2aNMnrjUyvXr2sWrVq3rtE+D4Mmr/++su2bNni9SYyb948++ijj9zrSpUqOZEvXLiwe58SGEpfffWVOx8pgbHTt29fGzlypD333HNeb2xwTvGC8+bNazlz5rTffvvNneN44Yv2ueeea8cff7zXmzZ+//13+/zzzxU6F1kCedwiS3HcccdZ6dKl7ccff7Rbb73VvUYM8bzxgBCbsmXL2owZM+z666+3uXPn2sqVK5Nt++WXX7r3oZQrV8550xMnTrRZs2ZZ3bp17e+//3bv8eBXrVpl06dPdwL+888/W9OmTZ3R8MILL7j/G4jiOeec44QX4Wdb8qILFiyw0aNHJ7XJkye7B3ubNm1ciLV///42fPhw1/bs2WNlypRxrzEO+N6WLVtasWLF3HvEOHv27O4z+Y4zzzzTunbtatu2bTvAgz755JNdFKFEiRJJjc8hopAjRw63b6HLtm/fbqNGjXLbci5OOukkK1++fLJ1IjXOOZEHDJeU4PwgikQy/vjjD683Mk8//bQzXi6//HLXLr74Yrct4t+iRQvbtGlTkocbLzAMOJ/phWuFgUG0hvOXWuM+LFiwoO3du9d27NjhfYoQ8UEet8gS8NBGeKtUqWJHHXWUTZgwwf2l4fkigojc8uXLrWLFis4z/vPPP513h5eNwNWoUcOtj9eHuDdo0MD79MQQZ+7cuV3om4cpfwcMGGAffPCBE+RTTjnFCSZiSKjZ9/J5AOPZEjIlBI+AXXrppc7z79ixoxP4UPjcb7/91jp37mxjx461xx9/3FuSGBHg/5nvcV922WV20UUXOTHwwTNEZPnLcS9dutTee++9JNH1CfVSfTgPJ554on366afuPPlwrhBfjJOM8swzzyQ7ZvYdQyEaeM7PPvusM8R8OMcYSH7UAVEkDVK9enVn6PiRgXjge9uPPvpoqjnt1MCg4J7heDGwYgVjL7WIhRBpQcItsgR4XT169HCCxEMRL+WHH35wYV28bELbLP/pp5+cQOPVDBkyxL7++mtr0qSJXXLJJc7rw8tBdL/55hsnWKEguOTFEXa8X14TMka0ARFC4PluHvYYD3zPnDlznNjQj6fP/xWEO1SMQsFbJlSemnCHgrDUrl3bHnzwQRfOTw1C6nfddZfL/ftw3jBO/P33CQ3tZxQ/KoAYhYKnjxFC1IEohW9UpGY0YATccsst7rr/73//sxEjRnhL4gNGGvvC/RUPCJkT5eEcpCVkLvEW8UTCLbIU77//vvOMEDc8a4qJEDK851y5crlwNp7lsGHDXOgbgf7www/dtoS2a9Wq5XLMCPonn3zitmX90L8sQ7AJ6fpCQZ4bwwBvCi/3lVdecR74E0884fLFGASEbxFwDAlfuFPKcccq3N26dbMrr7zShdAROTxuIgx+npdiKnLtHE+44IdyxRVXuONCpKMZFb6BxLmMldDoRDiIIvtPpIPQO8IWeswpQfqD80719vPPPx+TwZIWfG+b84JxFw+oFSAHz32S1lw3BuCGDRu8d0KkHwm3yDIgxIhbkSJFnLeLt40nR8gYz4mHJQ9ihAQxpR9PjjArovzII4+4vCwPVwq8HnvssWSCTRgebxSBxHNE4IYOHWpXXXWVy38uWbLECTTbk2sdOHCgC7kTwsUbJ4xLSB6hRpxT87hjKU4jTMx7wvEcEw928uD//POPM1LIRfM5GBGEzBENwuFUj+OlhhLN4wbf60Y8ataseUB4m+M8//zznVceLqB+dIJIRijsBwVphJBJL2DUsD3XITUYAUARIfvB9WTf+R4iGh9//HHSEKyMwDngvuE+yGiY3Ce94XLgHOGtC5FRVJwmsgyMrW3YsKETN4qiPvvsM7vjjjvcg5wiMgrKEBAe7njW5JLJnwLe27HHHuuKoxACvD8EF88SMfc9JKqWaRRv4TX36dPHebSDBw92RWDktK+77jon1HjeeNR4laz/1FNPOUOCMDX5dUSQ5YgoniytQ4cOrqqbyT2++OILe/LJJ91rwvOEknnoU4gGfBeV7og3/ezL999/74SVbdh/PHDy+EQAfOHcvHmz8+zx6AlNM1EI+4X4+uHYt99+2xkoLOecIYTsF8eEeLDvGCm8px+PmRoCzjMGC9XkNJaxPqITDqkHzi3hfc5Ds2bN3D7zXdE8S4yN22+/3c4++2y3DukQjp1rjOFC6JzCO46R65xREG6+K63ecTS4nzC6/PspLXDf+YWUQmQETXkqsgQ80PFU8XrxpHk4EkZFlGgIA+FyxlczrIfc7rXXXus8dEDoEHy8tgceeMDlVhF/vFX+IjAIAwKMB44g4oXiwTK0jBBzp06dnLdLH2LOZ7EPGAT+d+AlhhaEUWDGdn7jvT+sCRDSdevWubB/OHj6HBMC/8Ybbzjjg7A/30MR3D333OOOjwr2UIgy4Nni8XPe+E6MGsSa7REXv3odIURgObeheWbOAecJIyUSGBTknNmXaGDccJ4ReMDbpw+DJBL0k8vnPGF0cS6JAlB4h1HCNSZ6wnUkAhIeUcgq+CH48KhGavj3hBAZRcItsgR4WXiA/rAnPGlEBY+Q4V0ICDleQsYIHqFkHvrkUxFZisgQfUAsX375ZefZ4sEiWIjftGnTnODzPf6QJfoRcCqxaXw/Xj4hUTxtvDWGjyFIiArf4eeegX3yjQsa7zEOEE8EG2bOnOm84XARxJMmTM54cvLEN998sxMt9oNwN95iJBBAhsKRq8dL57PJ+VONzVA2PGQMHIwB0g8IIkZAKFTSI4zRhm4xZhmv0h9PHwmOl7QGkQi+i+I69jtaIRp5elICeNdUpxNqZyz+TTfd5KIOgIDjaTO0DWMkHkSKFqQXjL/0El4sKUR6kXCLLAGeIYIb+mBEkAgB44kiajzUERE8SDxKRBz8YWKIng+fx7q+eAKiixjibWMQ+OAJMXyLhgFA3hZBoh8R5Xt56FLRTmg33NPCe0SU+QuE6Vnfn52Nsd0IOcPdQsEAIMcOGB8cAxXWhPpTCsMSHSDXzn6RvyViEAoFewy3wgPGCCE3HwpGAuPMCYOTIogEooxXjxgj8pHAcMAr98O/iDYh/GjV0xgDeNLvvPOOO06MD4wQIhrUDLBfQB/nLyMiGYp/n8QDjpVr47e0QPhfiHgg4RZCCCEChIRbZAnIzVKAFQreHgVjeLIUfeGJkf+mgI0QOLlrwtnkdt98881knjDr8N4vcMI7wuNlGz6TPDmV30Aum4IqGl47XijeEe/xDv11CAdHC1+HQnEZ2/u5acLXFIjx/ZFyxhS7ERomPI8XzvcQoo829IvQOqkFohDhM5oxAxnRBkLn5PepFA8NdfP9jHnHc/SPLRqDBg1yQ7WobKfCPxLk2SkuI0JBpMCPOqQGE9qQQqCwj/0hvM70sxTwUZ1OZTtV9RmF657a9LFpAe89rdXkPqnNPidErEi4RZaAhzihXx9ynoRQEbwXX3zR5YIZi4t4M86ZByjLGZPMdqEFXGxLPpUHPwJA3prcKoJG1TQGAZO4+DlHcrkYADTEjrA1efBYIVRPOJq/GAZUvPvFbz7kvhF9hIr9CIV8PceAmPE5DGXDqCDPz3uEMdIEIggyQ9wIwzPzHGPSGYqFIcBnUvSGUGMU+fO3E8YnhE9oOvR8R6qSJuTNbHEUn0Wa15zzxNh5pjDlfPGZFMTFAtebAjmMLqa2xSDjvFG/QE0BQ9/iAcdE2B8DJKNwHthvPjP8XKUGBqHGcIt4oeFgIkvhzzeOuCKieIVMLYp3SQ6Voiby0HiSjKemuIpcbei2eMoIDcVaFCYhiHhxeKos4/PInzPzGuJO3hVvCCFDrPB8qUJHfKmu9qvdEUTGf+NZkv+lD8+Y72BbctRUlFPIhlj6w76Addl/isUQSYaHhYLoYkiw/+Tv+X7feGBbhp+RP/bB8CBCQREaokQeHYFHuMnLM9yL80LEgeOnkpt6ASa4YRY6PhMYEkeBGMKPeJLDZxy7DwaRX+AXDsVjGDtUhSPe7GOscN0wbLiGDEWjngAji2gDBkA8CsoQVz8KQwQko5OwYJSwX76RE6t4I9rR8v5CpAfuPHdnawIWkRVAYJksA88Y4UIw8Cz9qUd9/CFaoXN4+9uGz+sdDh45oV28UsArxQsN9UB9EG0gbM12NAQmWuU0++rvdyQQZkQk1BtPL4g3xkEsnxXtezlneO0YDRgq0fY7qCDcNFIdzMKHAZMeuB8ZE090A+FOLVzO+eR8YxDK0xbxRsIthDisQbhJUyDe/F57WsWbcf1MSuMLdlrD5ELEG4XKhRBHDH60hBB9aNFeJBhmR/qBYYAIti/aEm5xqJHHLYQ47PFD5r73TSNFQv6fVAFV/cC4fwofSRtQ1BYu2BJtkRWQcAshjggQbf8vwu3/9fvAF2ZfrP2/INEWWQUNBxNCHBEgvH5DkMlZU83u/w19HZrP9psQWQUJtxDiiMIX7lABD22hyyTYIisi4RZCHJEgyik1IbIqEm4hhBAiQEi4hRBCiAAh4RZCCCEChIRbCCGECBASbiGEECJASLiFEEKIACHhFkIIIQKEhFsIIYQIEBJuIYQQIkBIuIUQQogAIeEWQgghAoSEWwghhAgQEm4hhBAiQEi4hRAiHezbty/FJkRmwW/XuTusVatW/BFCCJECvjBXa3OqlWt4rJWoXNfyFyvtlm1dt8rWLJxmyyaNsnmjv9NPhIpMQcIthBAx4HvRVVt3tQanXWEFShzl3kdjy5oVNvnbt2z+mO/dewm4iBc5EtqDvKhQoQJ/hIhKjRo1bPv27bZr1y6v5/Alf/78VrlyZVu7dq3Xc+goXbq0XXbZZXbcccfZpk2bbNWqVd6S+HHLLbfYVVddZfny5bMpU6Z4vcLH97Kbn3+LNep2reXOX9BbEh3WqdC4veUpUNiWTRnt+iTeIh5IuEVMVK1a1Z588knr2rWrjRw50rZs2eItSR8I43333Wfly5e3SZMmeb0H0q5dOzvrrLNs586dtnz5cq838+nWrZs9+OCDVqlSJRsxYoTXe2i4++67rXjx4rZ7927r1KmTff99ogcXCufypptushkzZtjKlSu93tThOtx+++3WuXNnd007dOhgJUqUsDFjxnhrxE7fvn3t2muvdYbF4sWLvd7UYR/atm1rderUcW3JkiVZyjj0RbtZ95utVqfuXm/slKhaL0HEEe/EcyrxFhlFoXIRE3hkp5xyin3wwQf24Ycfer1mjRs3tg0bNtj8+fO9ntThQX3vvfc6UZ44caI98sgjUb1IBOn444+3V155xb788kuvNzoYFxgD0di2bZt99dVXNmTIEK/nQNi/fv36WZEiReyBBx5I8kDpr1+/vnu/detW1wd4xBwP3uqLL74Ys8fKZyFYCxcu9Hoic+655zpjiXOEEYNBkSNHDqtZs6aLCIwfP97efPNNK1CggH300Uduv4mOFCpUyL755hsbNWqU90nJ4fuvu+46q1Wrln333Xf2/PPP280332ynnnqqLVq0yF577TUbN26ct/Z+LrzwQjvjjDPcd/78889eb+K1atKkid1zzz02ffp0r/dAnn76aRc9CGXv3r3u744dO+yNN96wgQMHuveZQb4iJa1gqfKWp1Axy54zl9cbGSfaCftWqkZjq9XxXK83fYx572FbMPYHCbfIMBJukSrt27e3O+64w4oVK+b1JAdBeeyxx+zPP//0eqKD537bbbdZw4YNbezYsXb//fcnE8Fw3n//fSdIGA6ISWq8++67LsQdCcSO9vnnn9tLL73k9R7IjTfe6MQyZ86cXs9+eJAjlKwTCmHm8847zzZv3uwELyXDwOfkk0+2W2+91RkEqYGgESYfNGiQvfPOOy50ftFFF1mePHm8NRL3jVQGf4lQLF261N57770DhBtDA/Ht0qWL8+IR2fXr13tLzYoWLeoMMs7V6NGj7eOPP05mjHTs2NHt948//ugE9qSTTrJq1aq5awr9+/e3wYMHu9eRwKvmmnIewb8nqlev7rbF+MgsilepkyDasUcXEe09e/ZYy563W94Eoc8I5LwH33WGE26Jt8gIEm6RIjxUH374YStcuLDzZkNDqHiLhHHnzp1rN9xwg9cbndNOO80uv/xyK1iwoH377bf2wgsveEsig0BgMGAQ4M1lBMQRQcUr5jOjRQgIkV9zzTUu5HznnXcmMyo4RjzeTz75xN566y2vdz8IIR5s3rx5XWQikgD17NnTiWGsEQpEEVEjXE9kIhKPPvqo1a5d23niqXn7119/vfOWEXeMi9mzZzsvORz2j+tEaoRrj0g/8cQTbpl/Lgnfsw6f9d9//zmDgPOFx08U4bnnnrO///7bbRONpk2bOqOMz/zf//6XqWmJNIt2wnEh3CWrN7Ta6QiRR2L0uw85rzt7do3EFelHd4+ICqJNCLhMmTLO8w3Pe7Zp08YJ4V9//eX1ROaYY45xD3oEkwfWQw89lKpoQ7169dz6//77r9eTfhDMihUrupBzNNEkRHzFFVe4HDEiEiraCEvz5s2dZxot/4sQPv7447ZmzRrngYaD6OMlY8DECmFszkFKhkazZs2c98rxkVYI9eARaULg7DuQH8foIAWAp43HzfULb+vWrXPiSxQBg+DTTz912wNGAsYJgv7ZZ5+58/brr7+6HDmpAow5BJ2cN/dQNDB0iLgQTcAwy0zRTgyPp72OZ9++vU7w40WFxokpAowCIdKLPG4REfLPeJiETXnQH3300U6MyD+S9+SB/NRTT7mQLA/qSGFsRIPGtoR5yS8Tyr3gggu8NVKGHGrJkiWT5UwRJUQhLZXV5HIxFhAWDJFI++qHuimAe/nll52AL1u2zOW6+S6WXXnllTZ8+PConm9KcL7wjAkR89cPE6eE79mSq46UN/ajIVwXjo1aA4ysf/75x62Lt16qVClbsGCBC5n/9ttv3pZmzzzzjPN2I0EYlxA8ofbw6AT7xDkpV66cMygQbHLW7CfLiFZg8PjnC08dzzuc3r17u/uAcDyFaHwWIWkiHYTmI+XWM0KpGo0snzfWOlZcmDzBsGnZ8w7LWzhjYXIfwuWD7jzdHa/C5SK9yOMWB0DIk/wrDxYeunhVeL1UG/OQvuuuu5znyHuKk0KFkG0Jqf7yyy/uoc97vLWLL77YCUGsEIZnpMOcOXOSBIscKoVxhOxDvcqUYD0EBPH7+uuvI4p269atnaGCaOD5TZ482X0nfeTMe/To4bxkhJHPSCsILJXbZcuWdWH2WEQbuAacA8Lf4aLNeaWQjM/knCDSnGMEr0WLFs67Zxty8b169Uom2kD4nQr1SI19RHy5huGe/jnnnOO+k/Myc+ZM5+3jcVNXwHf7UQqK3VavXm1VqlRx7324Hhgh7CvGHIWCePSkULhPMAgwjIgkxBMK0dIKHg0ed56CRRI74gATtcjbFhlFwi0OAA8TceYh7RdZkZPGC50wYYKrLkcopk2bZl988YVb7sO2hJOnTp3qPoOHuu+1pgXyrnh9oUPFeI0AIQY86FMDkcDDRlxy587tvM9IEPomlE5+GqFCfDBY/MI58sIIE95lrBXjPr5oU5BFVTxGUCyw3ZlnnunCyOGiC0QIGjRo4M4/URDCzgg4RgiCiTgSCUktxxwO38u1nTdvnvN8w8EoIJXAcQwbNswVLOI9E00JDXVz3qgUDy1oxNgg2oBxwP2Ex02RIMVznHeMAQwK8uUce6zGWSykVj0ejhNXctwSWZEFkXCLmEF8hw4d6iqngfxr9+4HFu0QQu/Tp48LK6cXRImhTuF5T4q+CP1S6U4IPBqIBJ75scce68K1FNAhFIhzrPDdDFdDgAjpMoSJfH2s4KUTkq5bt64TKoa0xQKCRX4YYwHDKdJ5xLAgTP7666877xTvG8HDa0Xs/eFV0cAI4/gwWkIb3ja5cqIbfDfrhUKUhXMJGCIYb/RxX4QaNRgq5MExIny4ZoT1MQg4LyeeeKIzrBh/jsEACDiRDwSf8xYv9u5O/7jwHZs3eK8yDlOiCpFRJNwiZi699FL3kCXEScEToeMTTjjBCXg8weNDtAj1Etr2vUDC8wxDypUrl8vlRgunIq4UvyH+DEvCy6PxeQzzuvrqq701o+MLP+FqQsBUiOOxU2WdGqHFeIgXBVuR8ryRwBhhXfLPePjRhq3h0SKWQB0BuXmqs8kXx5o7JS+O+OOlhzfqGyJFSTAIODfA+UdcyddSqBh6HyDKiO+sWbO8HnPD8PCkGc7GvhLJ4LMwrl599dWk60kfRXPsX7zYsWmd9yo23DlMaPzdsCrlcfZpYfWCqd4rIdKPitNEqiAiiDZjexk+hGjjXeEZpqVQjKIvvLNoxWmEXJm5i4I4hhpRrMRYal+I8CQRJjxxKpp5jfD4OWMe+IgBnh0P/bffftvlUH0wAFgfjxLPkuK3SJx99tkur83n/fTTT0kV5rwn2sDrcKjaZvgaYXny0ggPnnKsaQI+2x9bTVj/hx9+cJGL1OCaUHjHTGUce6zgSZMHxzAgIhEOx8NwOI4/dOgbIXiMKKrOuUbcD0QTuBc4p/ylQI0UCbUC4UPqfAjrb9y40e0z22DocL0Jv2OgMWSOVEW8oKq81NEHDntLCb84rUT1hlbvpNgKKlNj1DsPJg0Hi9XAEiIcCbeICiJCdTCzcCGaPOAJzUZ6EMcCQongMnlIpM+gYAlRQJARIvKmeMkIX/gkIjzcMSbYJwrmCO3yoD/qqKNcXpfvipSPxptETCB80hjC6EQQEFE8WMLyiFJqsC8cE4KLUYHoDBgw4IDCrmgg0HidPMzZhnB3LN/rQ3QBg4EUArlpBJDzTFQCw4eQN8cSCsLNteVcRfJsORbqDJjwJVS4EVmuU6NGjVy9A2FvriUpE3LXGEcMEeRzMXiinQMMALxyig+JqmBM+aFxCiEJpcd6/mIlPeO49+7Zbbt27rDWF99r+QoX95akDyrKv7r9VJd2QbQl3CK9SLhFVHwPFgElvBmrZx0NPDEKzvCCI1V3pwVyqFSeE072H/CEqBE/crUpwXoYB+GFW1SR44Ui5niPaQHhRbTDq79jgfA4c4UTOUhPXQBiev7551vLli3dcLNQGNLG2O3wWgGEm6gC15RzEQ7nketPEVqkyWbCwSAiYkDhGkZHLEVxGA5EKfx9ZtQBhlhGaiNSIy3ijXDjde/etdMNJ6vXuZe3JH3gbfNLYZxbmhDpRcItxBEInjGNqEQkgwxjgHA5kY94e76HmjTNVU64fM+eBPHeYTWOPd0qNe3gLUkb038ZYOM/fU7etogLEm4hhEgBFzL3BLxFj1utzok9vCWxgWj/NeBZJ9p42hJtkVH0s55CCBEjSyePso2rllqJyrUtd/5CXm9kNq9ebuM+fsam/vhBUnhc3raIB/K4hRAiFVy+22t437RqbU61ik3aWckq9axA8TJuvS1rV7ohX4snjrB5o787QLAl2iIeSLiFECIGEG3/L8Lt//X7wBdmX6z9vyDRFvFCpY1CCBEDCK/fEGRy1gy38/+Gvg7NZ/tNiHgh4RZCiDTgC3eogIe20GUSbJEZSLiFECIdIMopNSEyCwm3EEIIESAk3EIIIUSAkHALIYQQAULCLYQQQgQICbcQQggRICTcQgghRICQcAshhBABQsIthBBCBAgJtxBCCBEgJNxCCCFEgJBwCyGEEAFCwi2EEEIECAm3EEIIESAk3EIIkQ727duXYhMis+C359wd1qpVK/4IIYRIAV+Yq7U51co1PNZKVK5r+YuVdsu2rltlaxZOs2WTRtm80d/pJz5FpiDhFkKIGPC96Kqtu1qD066wAiWOcu+jsWXNCpv87Vs2f8z37r0EXMSLHAntQV5UqFCBPyITufnmm+2oo46yGTNmeD1po3nz5nbNNddYnjx5bM6cOV5v1qNp06Z20kkn2ezZs23Xrl125ZVXWuvWre3PP//01jDr0qWLnX322bZhwwZbtWqV1yuCyFlnnWU33nijrV+/3hYvXuz1Hl74Xnbz82+xRt2utdz5C3pLosM6FRq3tzwFCtuyKaNdn8RbxAN53AcJhKxPnz42evRoO+aYYyx//vzekuSsXr3annjiCfvnn3+8nv3ccMMNdtppp9kbb7xhX375pdebMqeccoqdd955Nn78eOvXr5/Xmzb+97//WcWKFe2ZZ56xcePGeb3R6dmzp11yySU2ZMgQe+6559xD/dRTT7W3337bPvvsM3fsfGbJkiXtgQcesClTprjtbrnlFre/PpwLzhcCnytXLq83Od9++609/vjj3rusy6233mq7d++2F154wevZDwbZli1bbPr06V7PfjhXGEKzZs1Kl4GT0vfCscce667V2LFj7Z133vF6o9OrVy+rVq2a9y6RUqVKWb169eyvv/5yxxHKvHnz7KOPPnKvK1Wq5ES+cOHC7n1KbNy40b766itbtGiR13Po8EW7WfebrVan7l5v2pj520CbMPB5hc5FXJBwHySeffZZq1q1qn366afWu3dv++2335IEy6dt27bWoEEDe/jhh53QPvnkk1a+fHlvqTmhy507ty1fvjwpbBfOsGHDkj2ATz75ZPfw5vvSK3AIPt992WWX2datW73elHnwwQed4Dz11FPOC3v66adt2bJlLupA1IAHeP/+/e3DDz/0tkiZli1b2t133+2O4+WXX/Z6o4OxcsIJJziDI2fOnLZmzRqbNGmSDRgwwObPn++tdSCIS/369d06CGnp0qWd0bVu3Tr7/vvEkGdawSDB4FqyZIk98sgjNnPmTG9JIhwP4h0Nzjn3z48//uj1xEZq3wtpvT/uuOMOd35CyZcvnztPXF8iLKFwj3MPQJ06ddy1L1asmHufEpzv1157LaIxk1HyFSlpBUuVtzyFiln2nJENQh8n2nv3Wqkaja1Wx3O93vQx5r2HbcHYHyTcIsNIuA8CiMjll19u3333nQsf44HiTbz11lveGokgTFwHX7h5yOHNQNGiRa1x48Y2efJkJ0LRmDBhQjKBSY9wt2vXzo477jjn4fH9hLkRP7wg3v/yyy8uKhCN1IQoFN9jvvjii61Hjx4HeNa//vqrlS1b1glDuXLl3D5t27bNLQsVBR/2/frrr3cpiQULFjiPldQC5x2jaG/CQxjDBs8/EhgI9913nxM5zhtCTqQBbrvttjR5gHz3Pffc4/YJj/nRRx9N0WiIF2n53rTeH3w2EaO8efN6PeaE/MQTT3RGKUalD57+v//+m6VSIcWr1EkQ7djTgoj2nj17rGXP2y1vgtBnBHLeg+86Q163yDAS7kwGL5sHJ0KC1wQ33XSTe1Cm5nH78LCMFFqOBR7M0QyFaISKKA8YvPwVK1Y4j4rQ508//ZSiJ4RwlyhRwi644AL3HhG///77XTjWF4dIfZHww6s1atSw6tWrO8Nk586d1qJFCyfMpA98MDDuvPNOt5x94By+++67LuSOmHMtbr/9dveXED4GSDjnnHOOy8mTiiAlAddee62de+659vnnn9urr77q+lIDceM6Uzvy+++/OwMj1mhFRkjr96ZVuDEe77rrLncv+mTPnt3dIzt27EgWCeJ7X3rppYjn+VCQZtH2vO2S1Rta7XSGyMMZ/e5DzuvmnAmRXiTcmQiCS7ibhx0Pteeff955IQgpywBvEC/QDzFGynHjrSOkgwcPdmIamgf2QWD//vtv9xAOJT3CHQrh8e7du7ttv/jiCzv++OOtWbNmSfvPvhMFYN98EM0qVaq4nCfwUMeTXbhwYVLxkt9HaN8XDCIOhHZ9/vvvvyQjBi+YPKofrv/kk09c5MEXbt+4wUDinI8ZM8YZQnwmrwkVg28wsC+hou9DKJgQO172zz//7PoQegQQT58oSEpCiPdJjr9NmzbOgCCvP3DgQG9pcrgvrrjiilRzvjzkiXZwDbjGkUjL94biCzeGGcYKdQlpNTA4BowrRDpaOD9aRCUl+D9BauODDz7wetIP4fFSRzfx3sUGwr13z26rdUIPK50g3vFg0d9DbeTrd8nrFhlCwp2J4LkRJkecEClyduEPtnABCsf3Inmw9u3b1ypXruxE0Qfh56FJ3vCVV15xD95QMircCF6jRo2SBBQPln0IBTGmwMkH4Saf6YdNER5y9VQdb9q0KVkf4piSp+cXQ9WtW9dt40cb8LgphMJj59h4f9VVV9mgQYOSvGK2RTB4+LPfPuTba9Wq5aIX4UWA77//vsvZhofF8dQJB7/++usRCwPbt2/viug4VxhnGB0YE+HRk1A4R+wjRl1KcOyIO+dp5MiRXm8i6fneUHzhRlBJh2zfvt2dY45x+PDh3lqJcPyhRqcP1yWSxw2+180oiJo1a1qOHAxk2Q9pkPPPP9955eGRJELUpDjikV4oVaOR5fPGWseKC5MnnNOWPe+wvIUzFib3IVw+6M7T3TmTcIv0ouFgmQgPLR7+eHcIy8SJE53oIRo8xGh4r3gWPKT8vjJlyjgxpLiLYi4EjqFUQ4cOdR45D0EaFcEYBni9PNT/+OMP75v3w+cRPiW0Hc1biwZharwkDAs/bIxnTUFZaEMsQyEiwAMcUfr666/dOcAwpCKd4wnto3DK32+8Y0SVCAPtjDPOcGJAmJxj5BwRgqchMPQhsuRRMXDYX6ICvuAS3iY3jrDzPT5ci9q1a7tIQeiwOorQOnfu7IrYwo+J7+J8k9v1PXHAQ7/33nuta9euTlwJTz/22GPue/k/hfiRYogE15JryjrRGucewVy6dKkz/Hwy8r2hcH/gpSOc7733nguBk67hPDASAEHmfMDmzZvdvYyxRLU/kYxChQo58fXPOZ4+381yRJdrTuSF/Z87d6473wULFnTv6SdCglHL/w0iBEQWaCxjfYy9eFC8ch3Llj250ZAavsddvc2pcRPZXHnz26Rv35JwiwyhREsmglgiJD48VPFY8HBo5AqpeuZBiUfn91N1jidFSJcHabTQJWFfRJ9QZTRR5qGalvBkKOxX8eLFI1YjpwYiSt6UhhgjtghjeF8oGB8IsN9OP/10V53+4osvushEeMOLJhrBecaTw+NE0IHvR5wRFAQmHNYN93QxcHiYRhqKx2fwWXjJ7JsP1c94hITSOb54F6AhoEWKFDngGDLjexFc7k9SI9y3GCl48j4UmSHwRI3wuklbEA1ArDHguM8wOvkcjM5LL73U3aOhxWmE9Il0XHfddV5PcriepDxCz3E8SK16PBwXOUho4REEIbICEu6DCKFjcridOnVy3hIeF8LLw4HqX38ZD0REAsEk/O2PjUWseID7jYciHjxC6PexTigIWmqWPeFSvjcchAxPE28I8PLIH6cGYX/yy3wmDaMEzxFP1e/r2LGj82BDw+QMX/KFnYYHRh6YcDdV0r5hQ+MzSR0gHIAI430jHIDgYRjgVYeC4BDxwJML9bYRFMQGLzVanhbjiO057z5vvvmmK14LzfHHi27durmJaqZOnZrMAITM/F6ElnoMQvAYWD4YnhT5ETFhTgKMQtJAjNPm2uIhUx9AdIbrj2HFdQuF4j/OYaToEFAAyD1LYWN4SD4j7N2dfJhaWtixeYP3KuMwJaoQGUXCfQhAJPA4CD0i5tOmTXPDrBAj/2GF94RQhoZ4eZiFeqTkMFkvtM+v5I4VhAEBwFgIHTOOx4rAsX+EcwEPvECBAu51JPBGyWcyPju0IbCEcwmJhi+jcZxAvp5zgbBTgU9onLwrYMj4ok/DQKEIyweBxsjgeDAKCPMiwgzBC4WKa2oESD344V1AJBlyh8EQLcKBAUOOnvRGZkMK5Oqrr3aeNcea1oKxeMB3hnrL1FIQmueeIyyPMRbKN9984+4PwutcU65tKJzjNm3auDB4NIMD4xOvnmgJIh8vdmxa572KDWfsJjT+bli10OvNOKsXTPVeCZF+JNwHGcbWEirk4UbOEnEivMtDjpwvnng8PQ1ykghaeEEZXHjhhU7IgO8n7+jToUMH52GFeqyElxF3PPFQWC+e+wyxRApCweOjcKtJkyZOVAjzUmDlizPGEsYA+Xdy4qH5YkSecesIUrhnGwqGEueT48WjzAw4t+wbUQsiMn6FfFaAwjyiM9QpsG+hMNqAiAUeOEYoBWeh9wRGJQWMK1euTHWGNuoL1q5d61IAGJDxYPN/++/tWOHuy5Ytu62eNy2xIw4s+eePNN3XQkRCwn0QQVQQZjzF8Acy4UfChHilPNgIEccDxIwcMEJM6JkqcR7AhIN9j478aGg1Og9cwth4XBQZ+eAlEY4mB4kXjnfK51O1TU6e7yFHikEQ2lifgiO83PBlNPK0Pjz0ye0T6sYD90EsMS78xnLfG/fh2KimJt/KsXFOL7roIndshG/xlNln8qihHiwhX4SCIrbUPFvC1nihofsWCc4TD2iKkGKBYWacX0LUjFdn31OqXYhGWr83PXB/ELUgp40hOmLECHfuuWepD8D4Qai5Dn4ECIOPkRFU/Ifm4iMZaBhbTLzDPZPaULlY2bZhdYJ4749exUTCfmXLns1Wzhxv2zau9TrTDxXl/i+GCZERuIM0HCyTwUvhwYzgMGwLj8IPQRIGDR0ORqiXqmAKfsAfd+xPVNKwYUNXfY3A8eAkT0uYOyUQPQre8IgoNsPDx3NkIpVIIUsezFR0EzoO9UyBZXiFoTNn8XlUD0cTvfBjiAbHhefre3P+tJeE8kOHlwEChXBjdKQ07AmP7cwzz3TbUjQVGvrNTKioR6yYxS6WCXMYK87wQVIFRApSMyCikdbvJRJB+Jt1Y5nSlQp/jE6qwTmn1GFg3OFph+4z9wj3PALP8TBEMBSuq2+cItBEQw7GRC1pmYSF2hOGhO3etdMNJ6vXuZe3JH2MeudB90thGFWZaViJwx8J90EA4WTyEN9bCwXPlsKqaOLjCyXeCh4tsA2eSGqCmVWIdAyRQJzJkYafC4QfD3fUqFFeT6LQUZHPuln9+A83EG/qB2I579z71HKEr8u1RtRJvxzsaVHTNFd5gnCTztq9a4fVOPZ0q9S0g7ckbUz/ZYCN//S5pAiDvG6RESTcQgiRAm48tyfgLXrcanVO7OEtiQ1E+68BzzrR1vhtEQ80AYsQQsTI0smjbOOqpVaicm3Lnb+Q1xuZzauX27iPn7GpP36QFB6Xty3igTxuIYRIBZfv9hreN61am1OtYpN2VrJKPStQPHH+gC1rV7ohX4snjnCFaOGCLdEW8UDCLYQQMYBo+38Rbv+v3we+MPti7f8FibaIFyptFEKIGEB4/YYgk7NmZIP/N/R1aD7bb0LECwm3EEKkAV+4QwU8tIUuk2CLzEDCLYQQ6QBRTqkJkVlIuIUQQogAIeEWQgghAoSEWwghhAgQEm4hhBAiQEi4hRBCiAAh4RZCCCEChIRbCCGECBASbiGEECJASLiFEEKIACHhFkIIIQKEhFsIIYQIEBJuIYQQIkBIuIUQQogAIeEWQgghAoSEWwghhAgQEm4hhBAiQEi4hRBCiAAh4RZCCCEChIRbCCGECBASbiGEECJASLiFEEKIACHhFkIIIQKEhFsIIYQIEBJuIYQQIkBIuIUQQogAIeEWQgghAoSEWwghhAgQEm4hhBAiQEi4hRBCiAAh4RZCCCEChIRbCCGECBASbiGEECJASLiFEEKIACHhFkIIIQKEhFsIIYQIEBJuIYQQIkBIuIUQQogAIeEWQgghAoSEWwghhAgQEm4hhBAiQEi4hRBCiAAh4RZCCCEChIRbCCGECBASbiGEECJASLiFEEKIACHhFkIIIQKEhFsIIYQIEBJuIYQQIkBIuIUQQogAIeEWQgghAoSEWwghhAgQEm4hhBAiQEi4hRBCiAAh4RZCCCEChIRbCCGECBASbiGEECJASLiFEEKIACHhFkIIIQKEhFsIIYQIEBJuIYQQIkBIuIUQQogAIeEWQgghAoSEWwghhAgQEm4hhBAiQEi4hRBCiAAh4RZCCCEChIRbCCGECBASbiGEECJASLiFEEKIACHhFkIIIQKEhFsIIYQIEBJuIYQQIkBIuIUQQogAIeEWQgghAoSEWwghhAgQEm4hhBAiQEi4hRBCiAAh4RZCCCEChIRbCCGECBASbiGEECJASLiFEEKIACHhFkIIIQKEhFsIIdLJvn37vFdCxIdY7qlsCc2t1apVK/4IIdJIzpw5LV++fO5vtmz8lxJBgYfk7t27bdu2be5vrGzLU8zWlahtW/OVsn3Z5P+I+JFt317Lv+0/K7ZmhuXbsc7rTY6EW4gMkCNHDitSpIgTbZoIHgg2bcOGDbZnzx6vNzqI9tKK7c1y57VsOXMn9MhYE/Fkn+3bvdNs53Yrv3h4RPGWqShEBsifP79EO+D4149rGQt42ominSfhnURbxJtsifdWwj3m7rUISLiFSCeEWXPlyiXRPgzgGnItUwOPnPB4oqctRObBPca9FgkJtxDpRPnsIw9SI4k5bV17kdlki1o/IeEWIp2oovjwI7VrqmsuDjaR7jkJtxBCCBEgJNxCCCFEgJBwCyGEEAFCwi1EOlCu8/Al2rXVNReHivB7T8IthBBCBAgJtxBCCCtXrIAVzJv6WPbM5tijy9mPd3SzsY/0sAuOjTwByZGOpjwVIh34oasSJUpY3rx53euswIsvvmgVKlTw3iWydu1a++ijj6xXr15WvHhxrzeRJUuW2E033eS9S4T3RYsWtY8//tjmzJnj9SbC8W7dutXN7R0LzOHeqFEjy5Mnj5vkZPTo0TFve7DZvn27rVmzxr2ONEbfv+Zzanaz7PmLuNeHE/eddYxd0r6evf7rJHvm2/Feb+bz4NmtrXn1Mvbc9xPs96mL7b2rO9u6Ldtt5rJ1dmbz6nbui9/Z5u27vLUzDsfYvdXRNnDsLHt/+FSvN2uyd+sGqzH7a/c69J6Uxy3EYcbkyZPt7LPPdu23337zes127dpln3/+ecRloRQrVsyJP6Lr07hxY2vatKndfvvt1qdPH6/3QO6880778ssvkxoGw6233mo33HCD9e7d2zp16uStKbIStcoWs65Nqtl/G7fZN+Pner3Rue3U5jbsvnOjtqH3nuMEORaKFMhjFUsUst179rr3e/butcL5clvV0oVtT4KxFE/RhjJF8lutcsXd36Aij1uIdJCVPe4yZcok/dIVM31t3rw5yeMuUKCA7U14MPrLVq1adYDH/eCDD7rPeO6555zHjYAj2MzlPWzYMDvrrLNs0KBB9v3333tb7KdGjRpufYwHwAC48sorrXLlyvb111+77bIqQfS4v+x7mh1Xu7z3LmU+HjXD+n44zHuXnH6XdrSzW9a0XXv2JAho4nECp2Hn7r322i//2gs//u31mj3Zo62d16qW9y452RM2ypc7p/01b4Wd/9L3qQrv/y7qYB3rVbTr3xtqf8xY6oyIm7s2c+Ld76d/bNSsZd6a8eGO01vYVZ0a2hu/TbKnvvnL682aRPO4JdxCpIOsLNzr1q1z4gvXXnutNWnSxAl39+7dbcSIEfbpp58mLatVq1ZE4cbrDu0/5phjnMdMqJsHyMqVK+2HH37wlkamXr16dsUVV7jz8+6779qff/7pLcmaBFG4Ee2jihbw3pkVzZ/Hbjq5iY2dvdx+mrTQ601kzor1NnHBKu/dfhCxW09tZlOWrLFPEsQ9lK6Nq1qHuhXtka/H2ju/T/F6U+aZnu3srJY17MnBf9lbQxMNOGBfMRDKhuxvSiD4dwz4wz4fO8vriQ8SbiGOULKycBcuXNiJN+BhZ8+e3Qn3BRdc4DzxHTt2JC1DrGIRbujYsaMT7KlTU88LtmvXznr27Gnr16+3d955x2bNiu/DNzM4HHLcvjgOnbo4qncdyhUdG9jtpzW3pWs321Vv/2ozl+//CUkK1SgSy5Eju134yo82d+UGb0l0/O9fvGbTAd42n4cRgDceSueGla1VzbL24o8Tbf3WxHsTCJ2Pm7Pclq3b4vXEB4T7upMa2aRFq+29YVPtyz9ne0uyHhJuIeJIVhZuQuM///yz12NOqDdt2mQnnHCCE1CKy6B58+ZWqVKlmIU7Vs477zw7/fTTXSievDqGA7+qNW/ePBs8eLD9888/3ppZiyNJuBHRe7sdYz3a1LZ5qzbYrR+PsAnzVnpLE7mxSxPre0pT+2LcbLstYXks9L/uZGtZ/Sh76MsxB3jv0QgPlUfj8fPbWpF8sf0qW/bs2Wx8wvFEihIg3Dd0bpzwKpvlSjBKNmzbYSMTvpd14x2WzygqThPiCAGxHD58eFIbO3aslSxZ0urXr+9E2++PVt2NJ54eyG1fd911Lge+ZcsW++mnn5whQcHad9995/Lmffv2tc6dO3tbiENFo0qlrFWNsjY6Qah69vvhANGuXqaIy3mv2bTdPh0z0+tNmbvPbGnH1Spvv0xemKJo89m/3XuOfXz9yV7Pfk5vVt3+frynMz7CwSg5t9XRMTX2vX7Fkt6WB0Le/uWfJiYYLMNtfoLhclLDKvZF39NsxAPnWc8ADEGTxy1EOsjKHjdhcoZ5dejQwetN/L1p2s6dO11xGkVmuXPnjpjj5jMgLR435+Hqq692eW0+u3///gcYBhSqUWFOuP6+++7LcsPCjsRQeTT4jNObVbM3fp1sjw0a5/VG5/oED7bPyU2tUN7cNnz6YrvsjZ+jFqW9kOBhI9AUu700ZOIBHverl3WyExpUsscH/Zkpw7Ui5bgpiOtzSlM7oX4lGzR+bswRhsxGHrcQRxBvv/22qyKnIaKEyxGmN954w/WxPL3gWbdp08Z7lwjFa4TdqRp/8803rW3btnb99dfbJZdckjSuHGNi7ty5VqRIEVd9LrIm95/Vyon2n3NW2ItD9leSR4Px3wwPm7NyvQ1M8M7bHF3OPrimi5vQJZyL29W1U5pUdSFpRDsSLyYI+trN2613h3pOUA8G5Paveec3a//wZy7Mn9WRcAtxGENBWo8ePWzatGlx83Avv/xyV5HerVs3r8dchflVV11ln332mVt+4YUXOi+cPPojjzySFB6nD487q07CciRD3htv+MpODeyfBf/ZPQNHpTiUC2FmspSrOjVy1eo3vf+73fjB7/bRyOnWonoZe+ni45PNxNYpwZvte0ozW7Z2sz361Viv90AQUULt5YsXsksTxPtgQiFcasPXsgISbiEOQ5gw5dFHH7UuXbq4QjXy3LFCfpqZzo4++mivJxFE97bbbrPjjjvOZs+ebUOGDPGWJKdOnTo2f/58e+ihh9z6hJ+pSEfo8bQpkAufkU2kHULMi/pdbvNe7J3UPry2i5UunN/OblkjWT9txnOXuPxvJMjrDr33XLd82LQldkG/H5JVmIdzQ+cm9us959iJDSrbF+NmWa9Xfkxa/84BI+2bCfOsTa1y9u5VJyWJ9/Sla2zQ+Dn2yNfjUvxseHfYFHv798n2+bisW/F9KMmR0NyAz/BpEoUQqcOkJOSOswonn3yyC4lTjEZl+FtvveWmPOX/N6I5adIkW7gwcXwvdS1MgRouwGyL8Ddr1syJd4sWLeyUU05xnjufw1jul156KarXXLNmTTd2nO3YnnPEdzds2NCJNqH7jRs3emtnHUIjAZFy3D5rS9SxbLkOfV1DsQJ5bPvOPW58tt9mJ7TpS9farARhDO2nTUsQTnLIy0OGV911RssEz7iDnZMg2Ft37raXh/yTILx/uOKtaGAc4Akzy9qjX4+1Z74bf8D6I2YssWZVy9gxNcvavn3ZXGh8U4Ini1FAMRi8n+Ct9z6+gdUuV8xy5shuP/wz3xat3uSW8Xnh+xov2tYqb82rlbEJ81faqJlZq4o8nH27dljxtYmFfqH3pIrThEgHWb04zZ+ABZhutGXLlrZgwQJX3U0oG8HmGPCc77rrLm/N/eAd4yUj/kCOfObMmc57j2U4V9euXa1169ZOtGHFihWukn3cuNQLnQ4Vh0NxWlrhBz2uObGRjZuzwt4bPiWmMDF5Zyq2f5q0IMX1WY+pRb+ZEHkK1Wd7tbPmCeIOjKm+e+DIgxKm7tKoiosUUP0+5N8FXm/WROO4hYgjWVW48ZKpHPenHI0E6xQsWNCN954wYYLXK45E4RZZGwm3EHEkqwq3SD8SbpHV0HAwIYQQ4jBAwi2EEEIECAm3EEIIESAk3EIIIUSAkHALIYQQAULCLYQQaSKxulyIzCfyvSbhFiID8BOa4vAg1mu5b+cO75UQmUu0e03CLUQGYOyvODyI9VoytlaIg0G0e03CLUQGYJYyZiDjN65FMOHacQ25lrGwd/tm27NhZcKLPV6PEHEm4d7iHuNei4RmThMiHTCLFo0fGMmRg9/qMcuVK1fEGbdE1oVr6IfI9+xJeFgmNIg2cxrLZxdratnyJP7WdLbceRP+kf8j4si+vbZvZ2L0Z9+OLVZ747/utaY8FSKD+NNf+qLt/xXBxBfs1IQbFhaqZdtyFbZsOfb/1rQQ8Wbfnl2Wb9dGq7xppnuvKU+FiBN+eNV/4Ivg4V+7WEPlxTcvcQ9OHqxCZAbcW9xj3GuRkMctRDrBAwv1vJXnDibZs2dP5mlH8rZ9/Gu+OXtBW1ugvG3Lni/pHhAiHnD/5du7zYpvWWoF926OeE864aaTn/ojXyeEiI1Q4QY9wINJ6EMx0kMyFF1zcTBI7Z50oXJuPo1HFSLthP8HE8EiPddP11xkJrHcX/Q6k7FGjRpWsmRJXgohYsD3tuR1HR74D8mUxFjXXBxMot2TScVpmzZt8l4JIWIh9D9VSg97kbUJvX6pXcfQ9VJbV4j0Enp/HXifmf0ftPTcwv1vmhcAAAAASUVORK5CYII=;" vertex="1" parent="1">
          <mxGeometry x="470" y="110" width="263.01" height="230" as="geometry" />
        </mxCell>
        <mxCell id="11LUYm5CSsk1cLdcRPxS-7" value="" style="endArrow=none;html=1;rounded=0;fillColor=#FF3333;strokeColor=#FF5416;" edge="1" parent="1">
          <mxGeometry width="50" height="50" relative="1" as="geometry">
            <mxPoint x="270" y="80" as="sourcePoint" />
            <mxPoint x="245" y="80" as="targetPoint" />
          </mxGeometry>
        </mxCell>
        <mxCell id="11LUYm5CSsk1cLdcRPxS-9" value="" style="endArrow=none;html=1;rounded=0;fillColor=#FF3333;strokeColor=#FF5416;exitX=0.947;exitY=0.123;exitDx=0;exitDy=0;exitPerimeter=0;" edge="1" parent="1" source="11LUYm5CSsk1cLdcRPxS-3">
          <mxGeometry width="50" height="50" relative="1" as="geometry">
            <mxPoint x="295" y="80" as="sourcePoint" />
            <mxPoint x="270" y="80" as="targetPoint" />
          </mxGeometry>
        </mxCell>
        <mxCell id="11LUYm5CSsk1cLdcRPxS-10" value="" style="endArrow=none;html=1;rounded=0;fillColor=#FF3333;strokeColor=#FF5416;exitX=0.947;exitY=0.123;exitDx=0;exitDy=0;exitPerimeter=0;" edge="1" parent="1">
          <mxGeometry width="50" height="50" relative="1" as="geometry">
            <mxPoint x="250" y="120" as="sourcePoint" />
            <mxPoint x="250" y="80" as="targetPoint" />
          </mxGeometry>
        </mxCell>
      </root>
    </mxGraphModel>
  </diagram>
</mxfile>
